<?xml version="1.0" encoding="UTF-8"?>
<!DOCTYPE svg PUBLIC "-//W3C//DTD SVG 1.1//EN" "http://www.w3.org/Graphics/SVG/1.1/DTD/svg11.dtd">
<!-- Creator: CorelDRAW 2017 -->
<svg xmlns="http://www.w3.org/2000/svg" xml:space="preserve" width="502mm" height="199mm" version="1.1" style="shape-rendering:geometricPrecision; text-rendering:geometricPrecision; image-rendering:optimizeQuality; fill-rule:evenodd; clip-rule:evenodd"
viewBox="0 0 50200 19900"
 xmlns:xlink="http://www.w3.org/1999/xlink">
 <defs>
  <style type="text/css">
   <![CDATA[
    .fil0 {fill:#392C20}
   ]]>
  </style>
 </defs>
 <g id="Слой_x0020_1">
  <metadata id="CorelCorpID_0Corel-Layer"/>
  <path class="fil0" d="M22659 12246c-1948,0 -3387,-1406 -3387,-3319 0,-1912 1439,-3319 3387,-3319 1923,0 3362,1407 3362,3319 0,1912 -1439,3319 -3362,3319zm0 -7736c-2668,0 -4628,1888 -4628,4417 0,2529 1960,4417 4628,4417 2643,0 4603,-1875 4603,-4417 0,-2542 -1960,-4417 -4603,-4417zm19355 14979l-981 -1177 -191 0 0 1578 234 0 0 -1177 981 1177 192 0 0 -1578 -234 0 0 1177zm-20068 -1177l-234 0 0 1578 1119 0 0 -196 -885 0 0 -1382zm-4351 1003l353 -773 353 773 -705 0zm238 -1003l-740 1578 241 0 180 -395 869 0 180 395 245 0 -743 -1578 -231 0zm32308 -5067l0 -8637 -1241 0 0 6440 -5211 -6440 -1017 0 0 8637 1241 0 0 -6441 5211 6441 1017 0zm-16503 5067l-234 0 0 1578 1119 0 0 -196 -885 0 0 -1382zm7636 -14169c-7,-754 -467,-1509 -599,-2302 -49,-296 -131,-681 -272,-1015 -159,-375 -392,-686 -740,-738 -505,-75 -1037,-85 -1480,171 -761,438 -2202,1372 -2678,1653 -61,29 -123,57 -184,85 -557,249 -1131,579 -1663,717 -304,79 -592,176 -843,258 -151,48 -277,88 -365,111 -19,5 -39,9 -58,12 -40,-21 -80,-43 -119,-65 -8,-5 -16,-9 -24,-14 -31,-18 -62,-36 -93,-54 -11,-6 -22,-13 -32,-19 -28,-17 -56,-34 -84,-51 -12,-8 -24,-15 -36,-23 -26,-17 -52,-33 -79,-50 -13,-8 -25,-17 -38,-25 -25,-17 -51,-34 -76,-51 -13,-9 -26,-17 -39,-26 -25,-17 -50,-35 -75,-52 -12,-9 -25,-17 -37,-26 -26,-19 -53,-38 -79,-57 -11,-8 -22,-15 -32,-23 -37,-27 -73,-54 -110,-81 -554,-415 -1133,-790 -1792,-1030 -481,-175 -975,-246 -1480,-170 -658,98 -1037,564 -1142,1192 -162,973 23,1916 318,2843 125,392 267,780 404,1169 20,57 58,109 104,194 205,-362 159,-696 99,-1028 -62,-340 -140,-677 -201,-1017 -82,-457 -79,-916 86,-1353 168,-446 430,-830 958,-894 239,-29 496,-10 731,45 445,105 848,324 1254,527 475,237 941,491 1423,712 389,179 807,289 1240,274 410,-14 777,-144 1061,-523 -94,15 -155,15 -208,34 -356,132 -706,70 -1059,-23 -40,-11 -80,-22 -120,-34 -30,-9 -60,-19 -90,-29 -8,-3 -17,-5 -25,-8 -37,-13 -75,-26 -111,-40l-1 0c-38,-14 -75,-29 -112,-44 2119,-178 4661,-1698 4279,-1507 406,-203 809,-422 1254,-527 235,-55 492,-74 731,-45 342,42 630,440 836,836 74,154 134,306 182,432 165,438 625,1016 543,1473 90,307 57,719 -5,1059 -61,332 -106,666 98,1028 46,-85 84,-136 104,-194 137,-389 279,-776 404,-1169 56,-175 78,-347 75,-517zm-2122 6307c-564,1825 -1686,3439 -1686,3439 0,0 -734,-974 -1202,-2387 -1040,-3139 -2179,-3059 -3219,0 -485,1426 -1300,2351 -1300,2351 0,0 -1015,-1128 -1688,-2591 -1859,-4045 -2761,-5586 -945,-117 346,1041 757,2040 1249,2860 456,760 694,1431 694,1431 0,0 255,357 557,357 331,0 713,-357 713,-357 0,0 936,-1683 1532,-3459 534,-1591 735,-1687 735,-1687 0,0 248,4 813,1687 569,1694 1454,3459 1454,3459 0,0 331,357 655,357 297,0 591,-357 591,-357 0,0 189,-678 661,-1610 312,-615 663,-1277 899,-2139 1497,-5460 864,-5699 -515,-1238zm-1697 9440l234 0 0 -1578 -234 0 0 1578zm-7659 -1396c180,0 334,59 460,187l152 -142c-150,-162 -369,-246 -621,-246 -497,0 -867,340 -867,807 0,467 369,807 864,807 255,0 474,-86 624,-248l-152 -142c-126,129 -280,189 -460,189 -369,0 -642,-257 -642,-606 0,-349 273,-607 642,-607zm-24962 690l820 0 0 -192 -820 0 0 -485 920 0 0 -196 -1154 0 0 1578 1187 0 0 -196 -953 0 0 -510zm-4150 510l-441 0 0 -1186 441 0c404,0 663,239 663,593 0,354 -259,593 -663,593zm14 -1382l-689 0 0 1578 689 0c526,0 883,-320 883,-789 0,-469 -357,-789 -883,-789zm3996 -12704c955,0 1774,321 2444,1024l806 -777c-794,-888 -1960,-1345 -3300,-1345 -2643,0 -4603,1863 -4603,4417 0,2554 1960,4417 4591,4417 1352,0 2519,-469 3313,-1357l-806 -777c-670,703 -1489,1036 -2444,1036 -1960,0 -3412,-1406 -3412,-3319 0,-1912 1452,-3319 3412,-3319zm40707 14282l234 0 0 -1578 -234 0 0 1578zm-32332 -10322l-2109 0 0 -3886 2109 0c1588,0 2419,703 2419,1937 0,1234 -831,1949 -2419,1949zm3660 -1949c0,-1875 -1365,-3010 -3623,-3010l-3387 0 0 8637 1241 0 0 -2628 2146 0c186,0 372,-12 546,-25l1873 2653 1352 0 -2060 -2899c1216,-432 1911,-1394 1911,-2727zm32802 12088c-369,0 -642,-257 -642,-606 0,-349 273,-607 642,-607 180,0 334,59 460,187l152 -142c-149,-162 -369,-246 -621,-246 -498,0 -867,340 -867,807 0,467 369,807 864,807 255,0 474,-86 624,-248l-152 -142c-126,129 -280,189 -460,189zm-36379 -1199l561 0 0 1382 231 0 0 -1382 561 0 0 -196 -1352 0 0 196zm-3151 981l-981 -1177 -192 0 0 1578 234 0 0 -1177 981 1177 192 0 0 -1578 -234 0 0 1177z"/>
 </g>
</svg>
