<?xml version="1.0" encoding="UTF-8"?>
<!DOCTYPE svg PUBLIC "-//W3C//DTD SVG 1.1//EN" "http://www.w3.org/Graphics/SVG/1.1/DTD/svg11.dtd">
<!-- Creator: CorelDRAW 2017 -->
<svg xmlns="http://www.w3.org/2000/svg" xml:space="preserve" width="639mm" height="133mm" version="1.1" style="shape-rendering:geometricPrecision; text-rendering:geometricPrecision; image-rendering:optimizeQuality; fill-rule:evenodd; clip-rule:evenodd"
viewBox="0 0 63900 13300"
 xmlns:xlink="http://www.w3.org/1999/xlink">
 <defs>
  <style type="text/css">
   <![CDATA[
    .str0 {stroke:#2B2A29;stroke-width:1.54}
    .fil0 {fill:#2B2A29;fill-rule:nonzero}
   ]]>
  </style>
 </defs>
 <g id="Слой_x0020_1">
  <metadata id="CorelCorpID_0Corel-Layer"/>
  <g id="_1359892430352">
   <path class="fil0 str0" d="M13927 641l0 5339c0,391 14,652 42,783 28,130 94,246 199,346 243,235 647,352 1211,352 849,0 1525,-228 2030,-686 288,-258 512,-614 673,-1067 161,-453 241,-953 241,-1500 0,-502 -71,-974 -213,-1416 -239,-753 -634,-1306 -1183,-1660 -550,-354 -1290,-531 -2221,-531 -157,0 -417,13 -780,40zm-2192 -36l-286 -56c-164,-26 -246,-107 -246,-242 0,-150 92,-225 275,-225 45,0 118,8 219,23 101,11 167,19 197,23l472 51c187,19 434,28 741,28 213,0 466,-13 758,-40l517 -51c468,-45 840,-68 1117,-68 651,0 1207,56 1668,169 460,112 868,290 1224,534 1108,764 1662,1883 1662,3355 0,1397 -483,2441 -1448,3130 -719,513 -1643,770 -2773,770 -172,0 -410,-11 -713,-31l-590 -37c-457,-37 -842,-56 -1157,-56 -382,0 -738,15 -1067,46l-556 51c-94,10 -180,15 -258,15 -191,0 -286,-67 -286,-202 0,-135 76,-219 229,-252l308 -62c265,-56 436,-158 512,-305 76,-148 115,-447 115,-899l0 -4496c0,-443 -39,-738 -118,-884 -78,-146 -250,-242 -515,-287z"/>
   <path class="fil0 str0" d="M728 11527l270 0c341,0 544,-171 544,-436 0,-274 -189,-418 -503,-418 -166,0 -261,9 -310,22l0 831zm-678 -1303c220,-36 544,-63 912,-63 449,0 764,67 979,238 184,144 283,359 283,638 0,382 -274,647 -535,741l0 13c211,85 328,283 404,561 94,346 184,741 243,858l-701 0c-45,-90 -121,-332 -207,-705 -85,-382 -216,-481 -499,-485l-202 0 0 1190 -678 0 0 -2987z"/>
   <polygon class="fil0 str0" points="4965,11931 3850,11931 3850,12650 5095,12650 5095,13211 3168,13211 3168,10184 5032,10184 5032,10745 3850,10745 3850,11374 4965,11374 "/>
   <path class="fil0 str0" d="M6034 12506c180,94 467,189 759,189 314,0 481,-130 481,-328 0,-189 -144,-296 -508,-422 -503,-180 -836,-458 -836,-898 0,-517 436,-907 1145,-907 346,0 593,67 773,153l-153 548c-117,-58 -337,-144 -629,-144 -297,0 -440,139 -440,292 0,193 166,279 561,427 535,198 782,476 782,903 0,508 -386,939 -1217,939 -346,0 -687,-94 -858,-189l139 -562z"/>
   <polygon class="fil0 str0" points="9475,10759 8657,10759 8657,10184 10984,10184 10984,10759 10158,10759 10158,13211 9475,13211 "/>
   <path class="fil0 str0" d="M12947 11922l-189 -642c-54,-180 -108,-404 -153,-584l-9 0c-45,180 -90,409 -139,584l-180 642 669 0zm-768 512l-216 777 -705 0 921 -3028 898 0 943 3028 -741 0 -234 -777 -867 0z"/>
   <path class="fil0 str0" d="M15396 10184l0 1738c0,526 202,791 548,791 359,0 557,-252 557,-791l0 -1738 683 0 0 1698c0,934 -472,1379 -1262,1379 -764,0 -1208,-427 -1208,-1388l0 -1689 683 0z"/>
   <path class="fil0 str0" d="M18904 11527l270 0c341,0 544,-171 544,-436 0,-274 -189,-418 -503,-418 -166,0 -261,9 -310,22l0 831zm-678 -1303c220,-36 544,-63 912,-63 449,0 764,67 979,238 184,144 283,359 283,638 0,382 -274,647 -535,741l0 13c211,85 328,283 404,561 94,346 184,741 243,858l-701 0c-45,-90 -121,-332 -207,-705 -85,-382 -216,-481 -499,-485l-202 0 0 1190 -678 0 0 -2987z"/>
   <path class="fil0 str0" d="M22853 11922l-189 -642c-54,-180 -108,-404 -153,-584l-9 0c-45,180 -90,409 -139,584l-180 642 669 0zm-768 512l-216 777 -705 0 921 -3028 898 0 943 3028 -741 0 -234 -777 -867 0z"/>
   <path class="fil0 str0" d="M24775 13211l0 -3028 800 0 629 1110c180,319 355,696 494,1038l9 0c-40,-400 -54,-809 -54,-1267l0 -880 629 0 0 3028 -719 0 -647 -1168c-180,-323 -382,-714 -526,-1069l-18 0c22,404 31,831 31,1325l0 912 -629 0z"/>
   <polygon class="fil0 str0" points="28913,10759 28095,10759 28095,10184 30422,10184 30422,10759 29595,10759 29595,13211 28913,13211 "/>
   <polygon class="fil0 str0" points="33279,10184 33279,11347 34407,11347 34407,10184 35089,10184 35089,13211 34407,13211 34407,11945 33279,11945 33279,13211 32596,13211 32596,10184 "/>
   <path class="fil0 str0" d="M36720 11702c0,598 279,1015 737,1015 463,0 728,-440 728,-1029 0,-548 -256,-1015 -728,-1015 -467,0 -737,440 -737,1029zm2188 -36c0,997 -598,1595 -1487,1595 -894,0 -1424,-678 -1424,-1545 0,-907 584,-1586 1473,-1586 930,0 1438,696 1438,1536z"/>
   <path class="fil0 str0" d="M40390 11702c0,598 279,1015 737,1015 463,0 728,-440 728,-1029 0,-548 -256,-1015 -728,-1015 -467,0 -737,440 -737,1029zm2188 -36c0,997 -597,1595 -1487,1595 -894,0 -1424,-678 -1424,-1545 0,-907 584,-1586 1473,-1586 930,0 1437,696 1437,1536z"/>
   <path class="fil0 str0" d="M43476 10184l678 0 0 1339 9 0c67,-117 139,-225 211,-332l683 -1006 845 0 -1002 1289 1051 1739 -795 0 -746 -1307 -256 319 0 988 -678 0 0 -3028z"/>
   <path class="fil0 str0" d="M48216 11922l-189 -642c-54,-180 -108,-404 -153,-584l-9 0c-45,180 -90,409 -140,584l-180 642 670 0zm-768 512l-215 777 -705 0 921 -3028 898 0 944 3028 -741 0 -234 -777 -867 0z"/>
   <polygon class="fil0 str0" points="50825,10184 50825,11347 51953,11347 51953,10184 52636,10184 52636,13211 51953,13211 51953,11945 50825,11945 50825,13211 50143,13211 50143,10184 "/>
   <path class="fil0 str0" d="M55718 12726c68,9 148,9 265,9 310,0 584,-121 584,-440 0,-301 -274,-422 -615,-422l-234 0 0 853zm0 -1343l225 0c364,0 553,-148 553,-373 0,-229 -175,-350 -486,-350 -153,0 -238,9 -292,18l0 705zm-678 -1159c180,-31 539,-63 885,-63 418,0 674,40 899,171 211,112 359,319 359,597 0,265 -157,512 -499,642l0 9c346,90 602,355 602,741 0,279 -126,494 -315,647 -220,175 -588,274 -1190,274 -337,0 -588,-22 -741,-45l0 -2974z"/>
   <path class="fil0 str0" d="M59657 11922l-189 -642c-54,-180 -108,-404 -153,-584l-9 0c-45,180 -90,409 -140,584l-180 642 670 0zm-768 512l-216 777 -705 0 921 -3028 898 0 944 3028 -741 0 -234 -777 -867 0z"/>
   <path class="fil0 str0" d="M62259 11527l269 0c342,0 544,-171 544,-436 0,-274 -188,-418 -503,-418 -166,0 -260,9 -310,22l0 831zm-679 -1303c220,-36 544,-63 912,-63 449,0 764,67 979,238 184,144 283,359 283,638 0,382 -274,647 -535,741l0 13c211,85 328,283 404,561 94,346 184,741 243,858l-700 0c-45,-90 -121,-332 -207,-705 -86,-382 -215,-481 -499,-485l-202 0 0 1190 -679 0 0 -2987z"/>
   <path class="fil0 str0" d="M20495 776l-21 -477c73,-4 148,-6 225,-6 202,0 415,6 637,18 534,28 848,41 941,41 324,0 640,-6 950,-19 310,-12 585,-20 826,-24 241,-4 404,-7 489,-11l-6 71 12 351 0 48c-226,35 -460,52 -703,52 -226,0 -375,44 -448,133 -49,57 -73,296 -73,718 0,129 2,234 5,314l5 217 -11 567 35 483 -24 1044 78 1515c20,439 117,803 290,1093 129,213 310,380 544,501 338,169 670,254 996,254 386,0 747,-50 1081,-151 197,-56 383,-148 559,-275 175,-127 297,-243 365,-348 145,-222 245,-429 302,-622 76,-266 115,-679 115,-1239 0,-975 -52,-2073 -157,-3294l-24 -320c-12,-238 -56,-397 -133,-478 -129,-125 -274,-187 -435,-187l-568 15 -77 -21 11 -462 478 0 1156 53c388,0 757,-18 1108,-53l103 12c24,132 36,224 36,276 0,44 -8,98 -24,162 -150,40 -307,64 -473,71 -271,36 -421,67 -449,91 -57,49 -85,123 -85,224 0,73 6,178 18,314 12,101 18,276 18,526 0,141 1,252 3,333 2,81 5,163 9,248 12,290 22,585 30,883l60 1228c0,823 -28,1373 -85,1651 -57,278 -133,498 -230,659 -149,242 -361,465 -635,668 -274,204 -617,365 -1028,484 -411,119 -891,178 -1439,178 -625,0 -1161,-84 -1608,-250 -447,-167 -785,-386 -1012,-658 -228,-272 -384,-625 -468,-1059 -60,-297 -91,-724 -91,-1279l0 -2878c0,-680 -32,-1064 -97,-1152 -89,-125 -365,-195 -830,-211 -101,0 -186,-7 -254,-23z"/>
   <path class="fil0 str0" d="M33027 7401c261,109 504,163 729,163 458,0 832,-70 1121,-209 289,-139 500,-334 633,-584 133,-250 199,-563 199,-938 0,-387 -72,-698 -217,-932 -201,-323 -444,-539 -729,-650 -285,-111 -713,-166 -1284,-166 -253,0 -428,18 -525,55l0 744 -11 895 19 1391c4,65 26,141 64,230zm-77 -3851c161,24 351,36 569,36 605,0 1063,-112 1374,-336 311,-224 466,-610 466,-1159 0,-387 -147,-710 -441,-968 -294,-258 -737,-387 -1329,-387 -169,0 -395,22 -677,67 0,93 4,226 12,399 20,343 30,823 30,1441l-11 508c0,89 2,222 6,399zm-2814 4589l11 -486c97,-24 214,-47 351,-67 262,-36 476,-87 641,-154 56,-93 93,-181 109,-266 32,-226 48,-558 48,-997l-11 -2569c0,-266 -14,-961 -43,-2085 -8,-302 -28,-490 -60,-562 -12,-24 -32,-44 -60,-61 -65,-44 -185,-70 -362,-79 -76,-4 -274,-26 -591,-66l-21 -425 1354 -31 1977 -69 236 -6c48,-4 97,-6 145,-6 40,0 147,2 320,6l387 0c306,-4 639,42 998,139 125,32 290,100 496,202 206,103 384,234 535,393 151,159 263,337 336,535 72,197 109,407 109,628 0,246 -55,466 -164,662 -109,195 -275,376 -497,541 -113,81 -374,214 -782,399 609,137 1072,388 1391,752 318,364 478,770 478,1217 0,266 -50,544 -151,834 -72,218 -195,419 -368,604 -230,246 -472,431 -728,556 -256,125 -609,228 -1060,308 -226,40 -568,60 -1027,60l-1027 -21c-435,0 -953,21 -1553,62 -169,8 -641,27 -1414,55z"/>
   <path class="fil0 str0" d="M40642 4685c942,12 1497,18 1667,18l151 -6c-121,-358 -278,-776 -471,-1253 -194,-477 -351,-841 -471,-1090l-875 2331zm-2845 3401l11 -410c77,-24 212,-54 406,-90 311,-61 500,-116 566,-165 67,-49 148,-167 245,-356l1217 -3193 1428 -3754c136,0 265,0 388,0l278 0 54 109 1047 2491c237,528 449,1041 638,1538 189,498 351,904 488,1218 80,189 191,474 331,852 72,206 183,463 331,774 81,170 142,269 183,297 73,61 192,101 356,121 164,20 342,67 533,140 20,132 30,231 30,295 0,28 -2,72 -6,132 -298,0 -626,-14 -984,-43 -358,-28 -680,-43 -966,-43 -318,0 -548,4 -689,11l-1027 52 -296 11c0,-139 6,-272 18,-399l670 -145c201,-53 318,-93 350,-121 40,-40 60,-87 60,-139 0,-53 -10,-107 -30,-164l-240 -592 -474 -1184 -2311 -11c-86,194 -264,669 -534,1424 -76,214 -115,359 -115,436 0,105 28,180 85,224 93,77 270,131 532,163 36,8 179,30 429,67 4,142 6,240 6,295 0,43 -4,88 -12,136 -250,0 -847,-31 -1790,-94l-248 43c-298,49 -582,73 -852,73l-109 0z"/>
   <path class="fil0 str0" d="M47086 8096l0 -437c81,-24 215,-58 403,-103 265,-64 462,-131 593,-199 74,-125 110,-298 110,-520l-6 -714 11 -1378 -5 -326c21,-798 32,-1209 32,-1233l-5 -804 11 -326 -17 -689 -10 -260c-4,-40 -18,-105 -42,-193 -168,-76 -441,-125 -817,-145 -90,-5 -162,-12 -215,-21l-11 -532 1733 73c214,8 348,12 400,12 239,0 620,-16 1145,-49 295,-20 481,-32 558,-36 3,77 4,141 4,193 0,68 -3,157 -9,266 -162,57 -348,111 -557,162 -209,51 -381,103 -514,156 -25,105 -37,256 -37,453 0,173 6,314 18,423 -12,681 -18,1205 -18,1572l6 1596 -12 810 7 1209 0 230c0,32 6,79 18,139 248,53 475,89 679,109 36,4 161,20 374,48 16,121 24,222 24,302 0,44 -2,113 -6,206 -53,0 -93,2 -121,6 -130,8 -205,12 -225,12 -29,0 -81,-6 -158,-18 -57,-8 -326,-37 -808,-86l-1075 -12c-214,0 -526,21 -935,63 -267,25 -442,40 -522,44z"/>
  </g>
 </g>
</svg>
