<?xml version="1.0" encoding="UTF-8"?>
<!DOCTYPE svg PUBLIC "-//W3C//DTD SVG 1.1//EN" "http://www.w3.org/Graphics/SVG/1.1/DTD/svg11.dtd">
<!-- Creator: CorelDRAW 2017 -->
<svg xmlns="http://www.w3.org/2000/svg" xml:space="preserve" width="540mm" height="270mm" version="1.1" style="shape-rendering:geometricPrecision; text-rendering:geometricPrecision; image-rendering:optimizeQuality; fill-rule:evenodd; clip-rule:evenodd"
viewBox="0 0 54000 27000"
 xmlns:xlink="http://www.w3.org/1999/xlink">
 <defs>
  <style type="text/css">
   <![CDATA[
    .fil0 {fill:#5B5B5B}
    .fil1 {fill:#FEFEFE;fill-rule:nonzero}
   ]]>
  </style>
 </defs>
 <g id="Слой_x0020_1">
  <metadata id="CorelCorpID_0Corel-Layer"/>
  <g id="flacon_1200x600.cdr">
   <rect class="fil0" x="398" y="201" width="53225" height="26612"/>
   <path class="fil1" d="M42650 15934l0 1776 413 0 0 -671 389 0 716 671 592 0 -819 -671 241 0c79,0 220,-7 303,-79 48,-41 96,-120 96,-258l0 -423c0,-72 -7,-193 -107,-272 -83,-65 -210,-72 -293,-72l-1532 0zm1353 303c17,0 86,0 120,28 45,34 45,86 45,114l0 217c0,28 0,79 -45,114 -31,21 -86,28 -114,28l-947 0 0 -499 940 0z"/>
   <path class="fil1" d="M39590 17291c0,76 0,241 96,334 86,83 231,86 344,86l1308 0c114,0 258,-3 344,-86 96,-93 96,-258 96,-334l0 -936c0,-76 0,-241 -96,-334 -86,-83 -231,-86 -344,-86l-1308 0c-114,0 -258,3 -344,86 -96,93 -96,258 -96,334l0 936zm413 96l0 -1129 1363 0 0 1129 -1363 0z"/>
   <path class="fil1" d="M33869 11907c0,213 0,679 272,941 243,233 650,243 970,243l3687 0c320,0 728,-10 970,-243 272,-262 272,-728 272,-941l0 -2639c0,-213 0,-679 -272,-941 -243,-233 -650,-243 -970,-243l-3687 0c-320,0 -728,10 -970,243 -272,262 -272,728 -272,941l0 2639zm1164 272l0 -3183 3843 0 0 3183 -3843 0z"/>
   <path class="fil1" d="M20653 8084l-2833 5007 1174 0 573 -1087 3183 0 592 1087 1310 0 -2872 -5007 -1126 0zm-611 3008l1126 -2038 1087 2038 -2212 0z"/>
   <polygon class="fil1" points="47614,17766 48374,17766 48374,15879 47614,15879 47614,16124 48044,16124 48044,17511 47614,17511 "/>
   <polygon class="fil1" points="45414,15934 45414,17711 47249,17711 47249,17387 45827,17387 45827,16936 46646,16936 46646,16633 45827,16633 45827,16237 47231,16237 47231,15934 "/>
   <polygon class="fil1" points="38416,16258 39232,16258 39232,15934 37187,15934 37187,16258 38003,16258 38003,17711 38416,17711 "/>
   <path class="fil1" d="M36574 16258l0 203 365 -86 0 -52c0,-62 -3,-213 -90,-299 -83,-79 -241,-90 -327,-90l-1071 0c-72,0 -224,7 -306,83 -96,90 -96,262 -96,337l0 189c0,76 0,248 96,337 83,76 241,83 303,83l1150 0 0 423 -1256 0 0 -210 -365 76 0 38c0,76 0,241 96,334 86,83 241,86 317,86l1181 0c55,0 210,-7 296,-86 65,-62 96,-179 96,-286l0 -320c0,-117 -31,-231 -96,-293 -86,-83 -238,-86 -348,-86l-1105 0 0 -382 1160 0z"/>
   <polygon class="fil1" points="31635,15934 31635,17711 33470,17711 33470,17387 32048,17387 32048,16936 32867,16936 32867,16633 32048,16633 32048,16237 33452,16237 33452,15934 "/>
   <polygon class="fil1" points="30534,15934 29993,16537 29425,15934 28878,15934 29735,16798 28892,17711 29380,17711 29979,17022 30630,17711 31191,17711 30234,16750 31009,15934 "/>
   <path class="fil1" d="M26665 15934l-413 0 0 1356c0,76 0,241 96,334 86,83 231,86 344,86l1122 0c114,0 258,-3 344,-86 96,-93 96,-258 96,-334l0 -1356 -413 0 0 1453 -1177 0 0 -1453z"/>
   <polygon class="fil1" points="24496,15934 24083,15934 24083,17711 25828,17711 25828,17387 24496,17387 "/>
   <polygon class="fil1" points="21512,15659 21274,15659 21274,16568 20386,16568 20386,16802 21274,16802 21274,17711 21512,17711 21512,16802 22400,16802 22400,16568 21512,16568 "/>
   <polygon class="fil1" points="17013,15934 17013,17711 18847,17711 18847,17387 17426,17387 17426,16936 18245,16936 18245,16633 17426,16633 17426,16237 18830,16237 18830,15934 "/>
   <polygon class="fil1" points="13984,15934 13984,17711 14397,17711 14397,16946 15691,16946 15691,17711 16104,17711 16104,15934 15691,15934 15691,16623 14397,16623 14397,15934 "/>
   <path class="fil1" d="M12717 16258l0 337 413 -65 0 -176c0,-76 0,-241 -96,-334 -86,-83 -231,-86 -344,-86l-1060 0c-114,0 -258,3 -344,86 -96,93 -96,258 -96,334l0 936c0,76 0,241 96,334 86,83 231,86 344,86l1060 0c114,0 258,-3 344,-86 96,-93 96,-258 96,-334l0 -203 -413 -86 0 386 -1115 0 0 -1129 1115 0z"/>
   <polygon class="fil1" points="10318,15934 9905,15934 9905,17711 10318,17711 "/>
   <path class="fil1" d="M7192 15934l-282 0 0 1776 372 0 0 -960c0,-34 0,-48 -3,-93 0,-14 -3,-31 -3,-45 -3,-48 -7,-96 -10,-145 59,69 138,134 148,145l1305 1098 282 0 0 -1776 -372 0 0 933 17 306c-151,-162 -145,-145 -203,-193l-1250 -1046z"/>
   <polygon class="fil1" points="6404,17766 6404,17511 5974,17511 5974,16124 6404,16124 6404,15879 5643,15879 5643,17766 "/>
   <path class="fil1" d="M43282 8084l-796 0 0 5007 1048 0 0 -2707c0,-97 0,-136 -10,-262 0,-39 -10,-87 -10,-126 -10,-136 -19,-272 -29,-408 165,194 388,378 417,408l3678 3095 796 0 0 -5007 -1048 0 0 2630 49 864c-427,-456 -408,-408 -573,-543l-3522 -2950z"/>
   <path class="fil1" d="M30405 8996l0 951 1164 -184 0 -495c0,-213 0,-679 -272,-941 -243,-233 -650,-243 -970,-243l-2989 0c-320,0 -728,10 -970,243 -272,262 -272,728 -272,941l0 2639c0,213 0,679 272,941 243,233 650,243 970,243l2989 0c320,0 728,-10 970,-243 272,-262 272,-728 272,-941l0 -573 -1164 -243 0 1087 -3144 0 0 -3183 3144 0z"/>
   <polygon class="fil1" points="13318,8084 12153,8084 12153,13091 17073,13091 17073,12179 13318,12179 "/>
   <polygon class="fil1" points="5642,8084 5642,13091 6807,13091 6807,11228 8912,11228 8912,10316 6807,10316 6807,8996 10707,8996 10707,8084 "/>
  </g>
 </g>
</svg>
