<?xml version="1.0" encoding="UTF-8"?>
<!DOCTYPE svg PUBLIC "-//W3C//DTD SVG 1.1//EN" "http://www.w3.org/Graphics/SVG/1.1/DTD/svg11.dtd">
<!-- Creator: CorelDRAW 2017 -->
<svg xmlns="http://www.w3.org/2000/svg" xml:space="preserve" width="1720mm" height="480mm" version="1.1" style="shape-rendering:geometricPrecision; text-rendering:geometricPrecision; image-rendering:optimizeQuality; fill-rule:evenodd; clip-rule:evenodd"
viewBox="0 0 172000 48000"
 xmlns:xlink="http://www.w3.org/1999/xlink">
 <defs>
  <style type="text/css">
   <![CDATA[
    .str0 {stroke:black;stroke-width:8.22}
    .str1 {stroke:black;stroke-width:7.62}
    .fil2 {fill:none;fill-rule:nonzero}
    .fil1 {fill:#FEFEFE;fill-rule:nonzero}
    .fil3 {fill:#2B2A29;fill-rule:nonzero}
    .fil0 {fill:#2E2D2D;fill-rule:nonzero}
   ]]>
  </style>
 </defs>
 <g id="Слой_x0020_1">
  <metadata id="CorelCorpID_0Corel-Layer"/>
  <g id="_1359884713328">
   <polygon class="fil0" points="111,47857 172110,47857 172110,105 111,105 "/>
   <g>
    <polygon class="fil1" points="65384,16824 65384,30363 62260,30363 62260,24812 56128,24812 56128,30363 53004,30363 53004,16824 56128,16824 56128,22162 62260,22162 62260,16824 "/>
    <polygon class="fil2 str0" points="65384,16824 65384,30363 62260,30363 62260,24812 56128,24812 56128,30363 53004,30363 53004,16824 56128,16824 56128,22162 62260,22162 62260,16824 "/>
    <path class="fil1" d="M79190 25083l-2140 -5184 -2140 5184 4281 0zm983 2379l-6267 0 -1195 2901 -3201 0 6016 -13540 3085 0 6035 13540 -3278 0 -1195 -2901z"/>
    <path class="fil2 str0" d="M79190 25083l-2140 -5184 -2140 5184 4281 0zm983 2379l-6267 0 -1195 2901 -3201 0 6016 -13540 3085 0 6035 13540 -3278 0 -1195 -2901z"/>
    <polygon class="fil1" points="101036,30363 101017,22239 97045,28932 95637,28932 91684,22413 91684,30363 88754,30363 88754,16824 91337,16824 96389,25237 101364,16824 103929,16824 103967,30363 "/>
    <polygon class="fil2 str0" points="101036,30363 101017,22239 97045,28932 95637,28932 91684,22413 91684,30363 88754,30363 88754,16824 91337,16824 96389,25237 101364,16824 103929,16824 103967,30363 "/>
    <path class="fil1" d="M111207 30160c-996,-290 -1797,-667 -2401,-1132l1061 -2360c578,426 1266,767 2063,1025 797,258 1594,387 2391,387 887,0 1543,-132 1967,-397 424,-264 637,-616 637,-1054 0,-322 -126,-590 -377,-803 -251,-213 -572,-383 -964,-513 -392,-129 -923,-271 -1591,-426 -1029,-245 -1870,-490 -2526,-735 -656,-245 -1218,-638 -1687,-1180 -469,-542 -704,-1264 -704,-2166 0,-786 212,-1499 636,-2137 424,-638 1063,-1144 1919,-1518 855,-374 1899,-561 3133,-561 861,0 1704,103 2525,310 823,206 1543,503 2161,890l-965 2379c-1246,-709 -2494,-1064 -3740,-1064 -874,0 -1520,142 -1938,426 -418,284 -627,658 -627,1122 0,464 241,809 723,1035 482,226 1218,448 2208,667 1028,245 1870,490 2526,735 656,245 1219,632 1688,1161 469,529 704,1245 704,2147 0,774 -216,1480 -647,2118 -430,638 -1077,1145 -1937,1518 -861,374 -1909,561 -3143,561 -1067,0 -2099,-145 -3095,-435z"/>
    <path class="fil2 str0" d="M111207 30160c-996,-290 -1797,-667 -2401,-1132l1061 -2360c578,426 1266,767 2063,1025 797,258 1594,387 2391,387 887,0 1543,-132 1967,-397 424,-264 637,-616 637,-1054 0,-322 -126,-590 -377,-803 -251,-213 -572,-383 -964,-513 -392,-129 -923,-271 -1591,-426 -1029,-245 -1870,-490 -2526,-735 -656,-245 -1218,-638 -1687,-1180 -469,-542 -704,-1264 -704,-2166 0,-786 212,-1499 636,-2137 424,-638 1063,-1144 1919,-1518 855,-374 1899,-561 3133,-561 861,0 1704,103 2525,310 823,206 1543,503 2161,890l-965 2379c-1246,-709 -2494,-1064 -3740,-1064 -874,0 -1520,142 -1938,426 -418,284 -627,658 -627,1122 0,464 241,809 723,1035 482,226 1218,448 2208,667 1028,245 1870,490 2526,735 656,245 1219,632 1688,1161 469,529 704,1245 704,2147 0,774 -216,1480 -647,2118 -430,638 -1077,1145 -1937,1518 -861,374 -1909,561 -3143,561 -1067,0 -2099,-145 -3095,-435z"/>
    <polygon class="fil1" points="127472,19377 123152,19377 123152,16824 134915,16824 134915,19377 130595,19377 130595,30363 127472,30363 "/>
    <polygon class="fil2 str0" points="127472,19377 123152,19377 123152,16824 134915,16824 134915,19377 130595,19377 130595,30363 127472,30363 "/>
    <polygon class="fil1" points="149743,27849 149743,30363 139292,30363 139292,16824 149493,16824 149493,19338 142396,19338 142396,22278 148663,22278 148663,24715 142396,24715 142396,27849 "/>
    <polygon class="fil2 str0" points="149743,27849 149743,30363 139292,30363 139292,16824 149493,16824 149493,19338 142396,19338 142396,22278 148663,22278 148663,24715 142396,24715 142396,27849 "/>
    <path class="fil1" d="M162739 19986c-489,-406 -1202,-609 -2140,-609l-2546 0 0 4719 2546 0c938,0 1651,-206 2140,-619 488,-412 733,-993 733,-1741 0,-761 -245,-1344 -733,-1751zm790 10377l-2603 -3772 -2873 0 0 3772 -3123 0 0 -13540 5843 0c1196,0 2233,200 3114,600 880,400 1558,967 2034,1702 475,735 714,1605 714,2611 0,1006 -241,1873 -724,2601 -482,729 -1167,1286 -2053,1673l3027 4352 -3355 0z"/>
    <path class="fil2 str0" d="M162739 19986c-489,-406 -1202,-609 -2140,-609l-2546 0 0 4719 2546 0c938,0 1651,-206 2140,-619 488,-412 733,-993 733,-1741 0,-761 -245,-1344 -733,-1751zm790 10377l-2603 -3772 -2873 0 0 3772 -3123 0 0 -13540 5843 0c1196,0 2233,200 3114,600 880,400 1558,967 2034,1702 475,735 714,1605 714,2611 0,1006 -241,1873 -724,2601 -482,729 -1167,1286 -2053,1673l3027 4352 -3355 0z"/>
   </g>
   <path class="fil1" d="M48584 27783c-4,-2015 -1063,-3427 -2054,-4447 329,-743 882,-2450 183,-4479 -447,-1294 -978,-1798 -1792,-2267 -36,-22 -750,-453 -1730,-633 -249,-1408 -590,-2801 -1379,-3962 -103,-151 -208,-297 -313,-441 1363,-1907 1781,-5962 -464,-7816 -1479,-1207 -3026,-1682 -4594,-1409 -2328,403 -4074,2341 -4878,3408 -114,-115 -210,-224 -285,-329 -119,-165 -338,-224 -524,-146 -188,80 -294,280 -259,479 103,572 213,1047 323,1440 -847,-429 -2091,-779 -3836,-671 -214,13 -386,179 -408,393 -22,213 115,409 322,464 250,69 464,392 620,735l-3346 -791c-118,-170 -248,-341 -393,-512 -1185,-1393 -3628,-3024 -8532,-2868 -4799,151 -7102,3538 -7255,6829 -116,2484 967,5138 3228,6703 -3,7 -7,12 -12,18 -440,858 -1845,3148 -3053,3440 -179,42 -312,194 -332,377 -19,183 77,360 243,440 847,411 1567,534 2124,534 141,0 272,-9 393,-22 -584,1203 -1139,2332 -1912,2943 -1281,1015 -2040,3989 -2127,6403 -51,1454 84,4097 1581,5466 67,61 151,100 242,111 3033,367 9521,4723 9586,4767 114,77 256,96 384,51 130,-44 231,-146 274,-275l159 -476c1354,898 5381,3159 11620,3159 668,0 1363,-26 2081,-83 2618,-281 5322,-1663 7101,-3171 336,42 1034,192 1306,719 60,118 170,201 301,229 130,26 264,-7 365,-93 834,-692 951,-2063 868,-3229 38,90 76,185 114,285 51,132 163,231 301,268 137,33 284,0 392,-93 801,-687 911,-1848 852,-2734 381,259 872,527 1468,716 167,54 349,3 464,-130 114,-132 138,-320 61,-478 -405,-830 227,-2539 594,-3327 990,-997 2060,-2729 1928,-5496z"/>
   <path class="fil2 str1" d="M48584 27783c-4,-2015 -1063,-3427 -2054,-4447 329,-743 882,-2450 183,-4479 -447,-1294 -978,-1798 -1792,-2267 -36,-22 -750,-453 -1730,-633 -249,-1408 -590,-2801 -1379,-3962 -103,-151 -208,-297 -313,-441 1363,-1907 1781,-5962 -464,-7816 -1479,-1207 -3026,-1682 -4594,-1409 -2328,403 -4074,2341 -4878,3408 -114,-115 -210,-224 -285,-329 -119,-165 -338,-224 -524,-146 -188,80 -294,280 -259,479 103,572 213,1047 323,1440 -847,-429 -2091,-779 -3836,-671 -214,13 -386,179 -408,393 -22,213 115,409 322,464 250,69 464,392 620,735l-3346 -791c-118,-170 -248,-341 -393,-512 -1185,-1393 -3628,-3024 -8532,-2868 -4799,151 -7102,3538 -7255,6829 -116,2484 967,5138 3228,6703 -3,7 -7,12 -12,18 -440,858 -1845,3148 -3053,3440 -179,42 -312,194 -332,377 -19,183 77,360 243,440 847,411 1567,534 2124,534 141,0 272,-9 393,-22 -584,1203 -1139,2332 -1912,2943 -1281,1015 -2040,3989 -2127,6403 -51,1454 84,4097 1581,5466 67,61 151,100 242,111 3033,367 9521,4723 9586,4767 114,77 256,96 384,51 130,-44 231,-146 274,-275l159 -476c1354,898 5381,3159 11620,3159 668,0 1363,-26 2081,-83 2618,-281 5322,-1663 7101,-3171 336,42 1034,192 1306,719 60,118 170,201 301,229 130,26 264,-7 365,-93 834,-692 951,-2063 868,-3229 38,90 76,185 114,285 51,132 163,231 301,268 137,33 284,0 392,-93 801,-687 911,-1848 852,-2734 381,259 872,527 1468,716 167,54 349,3 464,-130 114,-132 138,-320 61,-478 -405,-830 227,-2539 594,-3327 990,-997 2060,-2729 1928,-5496z"/>
   <path class="fil3" d="M11964 17920c-207,399 -1287,2395 -2625,3368 1099,283 1725,-48 1733,-52 6,-3 10,-3 16,-6 508,-997 1105,-2011 1926,-2854 -370,-129 -721,-281 -1050,-456z"/>
   <path class="fil2 str1" d="M11964 17920c-207,399 -1287,2395 -2625,3368 1099,283 1725,-48 1733,-52 6,-3 10,-3 16,-6 508,-997 1105,-2011 1926,-2854 -370,-129 -721,-281 -1050,-456z"/>
   <path class="fil3" d="M15362 14185l328 157 -1962 687c-122,43 -219,138 -265,259 -45,121 -35,257 30,369l582 1022 -489 313c-203,130 -262,400 -133,603 83,130 224,201 368,201 81,0 162,-22 235,-69l839 -537c196,-125 259,-382 144,-584l-528 -927 2465 -864c167,-58 282,-211 292,-388 10,-176 -88,-341 -247,-418 0,0 -1541,-738 -1540,-738 0,0 -3,-3 -4,-4 -119,-112 -164,-281 -119,-438 45,-157 175,-275 336,-307 1580,-307 3205,507 4160,1123 -265,-575 -916,-1485 -2482,-2775 -143,-118 -196,-313 -133,-486 63,-173 227,-288 411,-288l3 0c1583,10 2763,347 3638,793l55 -165c-1641,-5937 -8102,-5137 -9867,-4799 -823,555 -1428,1273 -1849,2057 201,5237 3727,6124 5733,6201z"/>
   <path class="fil2 str1" d="M15362 14185l328 157 -1962 687c-122,43 -219,138 -265,259 -45,121 -35,257 30,369l582 1022 -489 313c-203,130 -262,400 -133,603 83,130 224,201 368,201 81,0 162,-22 235,-69l839 -537c196,-125 259,-382 144,-584l-528 -927 2465 -864c167,-58 282,-211 292,-388 10,-176 -88,-341 -247,-418 0,0 -1541,-738 -1540,-738 0,0 -3,-3 -4,-4 -119,-112 -164,-281 -119,-438 45,-157 175,-275 336,-307 1580,-307 3205,507 4160,1123 -265,-575 -916,-1485 -2482,-2775 -143,-118 -196,-313 -133,-486 63,-173 227,-288 411,-288l3 0c1583,10 2763,347 3638,793l55 -165c-1641,-5937 -8102,-5137 -9867,-4799 -823,555 -1428,1273 -1849,2057 201,5237 3727,6124 5733,6201z"/>
   <path class="fil3" d="M44951 21758c4,4 7,9 12,13 182,240 480,521 826,846 20,19 41,39 61,58 262,-728 552,-2038 38,-3531 -396,-1146 -817,-1457 -1414,-1803 -13,-7 -475,-282 -1127,-454 3,25 7,48 12,73 294,1827 572,3554 1593,4797z"/>
   <path class="fil2 str1" d="M44951 21758c4,4 7,9 12,13 182,240 480,521 826,846 20,19 41,39 61,58 262,-728 552,-2038 38,-3531 -396,-1146 -817,-1457 -1414,-1803 -13,-7 -475,-282 -1127,-454 3,25 7,48 12,73 294,1827 572,3554 1593,4797z"/>
   <path class="fil3" d="M36815 8303c-36,-167 29,-342 167,-444 138,-102 325,-114 473,-29 84,48 1765,1010 3403,2922l82 67c1022,-1692 1246,-4995 -460,-6405 -1271,-1037 -2578,-1449 -3886,-1223 -2049,352 -3653,2172 -4366,3124 1297,1008 3403,2165 4778,2867l-191 -879z"/>
   <path class="fil2 str1" d="M36815 8303c-36,-167 29,-342 167,-444 138,-102 325,-114 473,-29 84,48 1765,1010 3403,2922l82 67c1022,-1692 1246,-4995 -460,-6405 -1271,-1037 -2578,-1449 -3886,-1223 -2049,352 -3653,2172 -4366,3124 1297,1008 3403,2165 4778,2867l-191 -879z"/>
   <path class="fil3" d="M41368 32810l-10 0c-462,-7 -804,-520 -996,-901 365,-122 753,-278 1162,-478 163,-80 315,-166 456,-258 135,221 323,445 572,627 -256,433 -705,1009 -1184,1009zm5528 -1637c-99,-220 -358,-319 -578,-218 -1224,552 -2528,364 -2539,362 -18,-3 -36,-4 -54,-4 -626,-19 -930,-433 -1063,-703 1069,-1121 1124,-2662 890,-3794 925,-447 1453,-1727 1364,-2155 -100,-480 -957,-600 -2041,-542 -180,-189 -357,-361 -529,-530 -773,-754 -1440,-1407 -1984,-3180 -71,-230 -316,-360 -546,-288 -230,70 -360,315 -290,544 610,1986 1388,2746 2209,3548 9,9 16,16 25,25 -741,128 -1255,354 -1203,741 66,476 974,1832 2126,1979 208,965 307,2782 -1542,3688 -547,266 -1045,447 -1494,566 -3,0 -6,0 -9,1 -1,0 -1,2 -3,2 -1738,457 -2717,-20 -2765,-45 -213,-114 -478,-33 -591,180 -114,213 -32,478 181,591 44,23 661,341 1749,341 377,0 811,-39 1296,-141 253,556 839,1524 1839,1542l26 0c1005,0 1689,-986 1992,-1536 101,19 202,33 312,38 83,12 326,39 671,39 587,0 1466,-83 2334,-475 220,-99 317,-357 218,-577z"/>
   <path class="fil2 str1" d="M41368 32810l-10 0c-462,-7 -804,-520 -996,-901 365,-122 753,-278 1162,-478 163,-80 315,-166 456,-258 135,221 323,445 572,627 -256,433 -705,1009 -1184,1009zm5528 -1637c-99,-220 -358,-319 -578,-218 -1224,552 -2528,364 -2539,362 -18,-3 -36,-4 -54,-4 -626,-19 -930,-433 -1063,-703 1069,-1121 1124,-2662 890,-3794 925,-447 1453,-1727 1364,-2155 -100,-480 -957,-600 -2041,-542 -180,-189 -357,-361 -529,-530 -773,-754 -1440,-1407 -1984,-3180 -71,-230 -316,-360 -546,-288 -230,70 -360,315 -290,544 610,1986 1388,2746 2209,3548 9,9 16,16 25,25 -741,128 -1255,354 -1203,741 66,476 974,1832 2126,1979 208,965 307,2782 -1542,3688 -547,266 -1045,447 -1494,566 -3,0 -6,0 -9,1 -1,0 -1,2 -3,2 -1738,457 -2717,-20 -2765,-45 -213,-114 -478,-33 -591,180 -114,213 -32,478 181,591 44,23 661,341 1749,341 377,0 811,-39 1296,-141 253,556 839,1524 1839,1542l26 0c1005,0 1689,-986 1992,-1536 101,19 202,33 312,38 83,12 326,39 671,39 587,0 1466,-83 2334,-475 220,-99 317,-357 218,-577z"/>
   <path class="fil3" d="M25997 20040c12,-160 150,-280 310,-271 160,10 282,149 272,309 -4,77 -80,1785 1798,2015 160,20 274,166 255,325 -19,149 -144,256 -290,256 -12,0 -23,-1 -35,-3 -2434,-299 -2312,-2608 -2311,-2631zm3004 -1696c364,0 658,294 658,658 0,362 -294,658 -658,658 -364,0 -658,-296 -658,-658 0,-364 294,-658 658,-658zm1613 1140c195,0 352,157 352,352 0,195 -157,354 -352,354 -195,0 -354,-159 -354,-354 0,-195 159,-352 354,-352zm6332 18042c-239,-28 -456,143 -485,381 -15,112 -383,2758 -4085,3541 -3735,791 -5642,-1842 -5721,-1954 -121,-172 -348,-234 -540,-147 -192,87 -294,300 -242,504l297 1181c-1063,-542 -2889,-1411 -4318,-1769 -1181,-294 -2143,-1302 -2692,-2006 207,9 403,12 584,12 764,0 1278,-63 1341,-70 239,-31 408,-249 377,-489 -31,-239 -249,-408 -488,-377 -44,4 -4419,531 -6935,-1696 -1191,-1056 -1789,-2583 -1778,-4541 16,-2973 1313,-5240 3653,-6383 2359,-1152 5471,-992 7239,371 116,89 262,111 392,71 79,25 166,28 251,3 45,-13 4570,-1288 8258,1424 79,57 169,84 259,84 134,0 266,-61 352,-178 143,-194 100,-467 -93,-610 -890,-654 -1813,-1098 -2717,-1393 1719,-692 2424,-2675 2134,-3764 -345,-1296 -1066,-2765 -2707,-2909 -2899,-253 -4292,1383 -4292,3686 0,1115 300,1936 890,2475 -1246,57 -2126,287 -2303,338 -2028,-1478 -5457,-1648 -8047,-384 -2653,1296 -4125,3841 -4142,7163 -13,2222 686,3972 2076,5202 1334,1181 3072,1674 4551,1867 392,607 1727,2477 3625,2951 1993,499 4952,2132 4981,2148 153,84 341,71 479,-36 138,-105 200,-284 157,-453l-154 -611c843,644 2142,1315 3895,1315 485,0 1005,-51 1559,-169 4340,-919 4755,-4157 4771,-4295 28,-239 -144,-453 -383,-482z"/>
   <path class="fil2 str1" d="M25997 20040c12,-160 150,-280 310,-271 160,10 282,149 272,309 -4,77 -80,1785 1798,2015 160,20 274,166 255,325 -19,149 -144,256 -290,256 -12,0 -23,-1 -35,-3 -2434,-299 -2312,-2608 -2311,-2631zm3004 -1696c364,0 658,294 658,658 0,362 -294,658 -658,658 -364,0 -658,-296 -658,-658 0,-364 294,-658 658,-658zm1613 1140c195,0 352,157 352,352 0,195 -157,354 -352,354 -195,0 -354,-159 -354,-354 0,-195 159,-352 354,-352zm6332 18042c-239,-28 -456,143 -485,381 -15,112 -383,2758 -4085,3541 -3735,791 -5642,-1842 -5721,-1954 -121,-172 -348,-234 -540,-147 -192,87 -294,300 -242,504l297 1181c-1063,-542 -2889,-1411 -4318,-1769 -1181,-294 -2143,-1302 -2692,-2006 207,9 403,12 584,12 764,0 1278,-63 1341,-70 239,-31 408,-249 377,-489 -31,-239 -249,-408 -488,-377 -44,4 -4419,531 -6935,-1696 -1191,-1056 -1789,-2583 -1778,-4541 16,-2973 1313,-5240 3653,-6383 2359,-1152 5471,-992 7239,371 116,89 262,111 392,71 79,25 166,28 251,3 45,-13 4570,-1288 8258,1424 79,57 169,84 259,84 134,0 266,-61 352,-178 143,-194 100,-467 -93,-610 -890,-654 -1813,-1098 -2717,-1393 1719,-692 2424,-2675 2134,-3764 -345,-1296 -1066,-2765 -2707,-2909 -2899,-253 -4292,1383 -4292,3686 0,1115 300,1936 890,2475 -1246,57 -2126,287 -2303,338 -2028,-1478 -5457,-1648 -8047,-384 -2653,1296 -4125,3841 -4142,7163 -13,2222 686,3972 2076,5202 1334,1181 3072,1674 4551,1867 392,607 1727,2477 3625,2951 1993,499 4952,2132 4981,2148 153,84 341,71 479,-36 138,-105 200,-284 157,-453l-154 -611c843,644 2142,1315 3895,1315 485,0 1005,-51 1559,-169 4340,-919 4755,-4157 4771,-4295 28,-239 -144,-453 -383,-482z"/>
  </g>
 </g>
</svg>
