<?xml version="1.0" encoding="UTF-8"?>
<!DOCTYPE svg PUBLIC "-//W3C//DTD SVG 1.1//EN" "http://www.w3.org/Graphics/SVG/1.1/DTD/svg11.dtd">
<!-- Creator: CorelDRAW 2017 -->
<svg xmlns="http://www.w3.org/2000/svg" xml:space="preserve" width="500mm" height="410mm" version="1.1" style="shape-rendering:geometricPrecision; text-rendering:geometricPrecision; image-rendering:optimizeQuality; fill-rule:evenodd; clip-rule:evenodd"
viewBox="0 0 50000 41000"
 xmlns:xlink="http://www.w3.org/1999/xlink">
 <defs>
  <style type="text/css">
   <![CDATA[
    .str0 {stroke:#E31E24;stroke-width:20}
    .fil0 {fill:#E31E24}
    .fil1 {fill:#E31E24;fill-rule:nonzero}
   ]]>
  </style>
 </defs>
 <g id="Слой_x0020_1">
  <metadata id="CorelCorpID_0Corel-Layer"/>
  <path class="fil0 str0" d="M38653 8627c720,418 1217,1041 1580,1812 499,1061 639,2186 590,3354 -61,1452 -283,2880 -565,4297 -269,1350 -443,2705 -215,4083 122,740 370,1422 879,1965 683,728 1629,779 2284,28 514,-591 939,-1274 1377,-1937 557,-844 1047,-1742 1641,-2554 742,-1013 1668,-1186 2839,-600 -109,-15 -152,-16 -192,-27 -971,-245 -1670,-2 -2190,914 -467,823 -851,1704 -1231,2580 -418,964 -758,1969 -1191,2925 -492,1087 -1247,1927 -2325,2343 -1484,573 -2826,175 -4057,-793 -1149,-904 -1557,-2198 -1621,-3658 -58,-1328 186,-2614 500,-3890 452,-1832 1148,-3569 1774,-5333 360,-1016 634,-2058 667,-3157 25,-838 -76,-1642 -543,-2354z"/>
  <path class="fil0 str0" d="M201 33052c668,83 1328,27 1987,-135 1104,-271 2040,-905 2956,-1575 2131,-1561 4267,-3113 6516,-4475 1318,-799 2702,-1398 4209,-1613 1220,-174 2419,-79 3570,425 0,27 0,53 0,80 -275,0 -551,-26 -823,4 -1294,143 -2477,672 -3585,1356 -2026,1251 -4018,2567 -6022,3860 -1140,736 -2274,1485 -3551,1929 -1676,583 -3367,744 -5082,208 -59,-19 -117,-43 -175,-65z"/>
  <path class="fil0 str0" d="M36064 567c283,447 561,897 849,1339 1156,1773 1450,3757 1279,5868 -210,2582 -876,5047 -1625,7493 -430,1407 -783,2833 -904,4313 -70,862 -72,1726 137,2574 20,79 34,160 31,248 -412,-575 -710,-1210 -919,-1897 -523,-1717 -467,-3457 -183,-5207 297,-1829 814,-3596 1294,-5373 361,-1336 730,-2670 834,-4069 134,-1794 -55,-3526 -813,-5155 -15,-32 -24,-66 -35,-99l53 -35z"/>
  <path class="fil0 str0" d="M49175 19454c-667,50 -1139,458 -1535,990 -574,771 -884,1681 -1161,2606 -345,1152 -725,2288 -1284,3346 -909,1720 -2232,2814 -4068,3141 -1198,214 -2400,205 -3600,36 -1822,-258 -3568,-806 -5281,-1472 -29,-12 -351,-150 -3916,-1671 -30,-15 -62,-28 -95,-41 -2562,-1094 -4492,-1601 -5552,-1825 1,-2 2,-4 3,-6 -116,-21 -231,-42 -347,-62 -379,-72 -580,-94 -580,-94l0 0c-3214,-483 -6349,-286 -9305,1482 51,8 98,-8 143,-30 2676,-1342 5398,-1498 8148,-307 1297,562 2564,1204 3838,1824l1175 604c216,115 432,231 647,346 40,21 74,35 105,41l602 309c53,28 105,54 158,81l3 1c182,93 364,184 547,274 219,108 440,210 661,314 2277,1075 4594,2015 7078,2363 1905,267 3792,167 5645,-422 1683,-535 3024,-1569 3968,-3173 602,-1023 993,-2145 1293,-3304 294,-1136 527,-2294 1037,-3351 429,-888 939,-1694 1914,-1987 -82,-16 -161,-21 -238,-15z"/>
  <path class="fil1" d="M4237 39047l696 -94c19,441 102,743 251,907 149,162 356,244 619,244 194,0 361,-44 502,-131 140,-89 239,-208 292,-358 53,-150 79,-392 79,-722l0 -3971 777 0 0 3926c0,481 -59,854 -177,1120 -119,264 -306,465 -563,605 -256,138 -558,208 -903,208 -514,0 -907,-145 -1180,-436 -273,-291 -404,-723 -393,-1297z"/>
  <path id="1" class="fil1" d="M8079 40683l2248 -5762 852 0 2385 5762 -882 0 -678 -1746 -2467 0 -636 1746 -822 0zm1686 -2366l1997 0 -611 -1597c-184,-486 -323,-887 -420,-1203 -80,376 -188,744 -323,1109l-642 1691z"/>
  <path id="2" class="fil1" d="M14196 40683l0 -5762 2597 0c522,0 919,52 1191,156 271,103 488,286 651,547 162,262 243,551 243,868 0,409 -135,754 -404,1034 -269,280 -683,457 -1245,534 206,97 361,193 468,287 226,204 441,460 641,767l1013 1569 -968 0 -775 -1199c-225,-347 -412,-612 -558,-795 -147,-184 -278,-311 -394,-385 -115,-72 -233,-123 -353,-153 -87,-17 -230,-27 -431,-27l-897 0 0 2559 -777 0zm777 -3219l1664 0c355,0 630,-36 829,-109 199,-71 351,-186 453,-346 104,-158 155,-330 155,-516 0,-272 -100,-498 -300,-673 -200,-176 -517,-263 -949,-263l-1852 0 0 1907z"/>
  <path id="3" class="fil1" d="M22363 40683l0 -5762 2212 0c389,0 686,19 892,55 288,47 529,137 724,268 195,133 352,318 471,555 119,237 177,499 177,785 0,488 -158,903 -476,1241 -316,339 -891,508 -1720,508l-1503 0 0 2350 -777 0zm777 -3026l1514 0c502,0 856,-91 1068,-275 210,-184 315,-441 315,-775 0,-240 -61,-447 -185,-618 -124,-172 -288,-286 -490,-341 -131,-34 -372,-51 -723,-51l-1499 0 0 2060z"/>
  <polygon id="4" class="fil1" points="29310,40683 29310,35597 27379,35597 27379,34921 32019,34921 32019,35597 30087,35597 30087,40683 "/>
  <polygon id="5" class="fil1" points="32950,40683 32950,34921 33728,34921 33728,40683 "/>
  <path id="6" class="fil1" d="M34626 40683l0 -704 3001 -3694c215,-260 417,-490 610,-688l-3266 0 0 -676 4190 0 0 676 -3291 3997 -352 413 3741 0 0 676 -4632 0z"/>
  <path id="7" class="fil1" d="M39625 40683l0 -704 3001 -3694c215,-260 417,-490 610,-688l-3266 0 0 -676 4190 0 0 676 -3291 3997 -352 413 3741 0 0 676 -4632 0z"/>
  <path id="8" class="fil1" d="M44448 40683l2248 -5762 852 0 2385 5762 -882 0 -678 -1746 -2467 0 -636 1746 -822 0zm1686 -2366l1997 0 -611 -1597c-184,-486 -323,-887 -420,-1203 -80,376 -188,744 -323,1109l-642 1691z"/>
 </g>
</svg>
