<?xml version="1.0" encoding="UTF-8"?>
<!DOCTYPE svg PUBLIC "-//W3C//DTD SVG 1.1//EN" "http://www.w3.org/Graphics/SVG/1.1/DTD/svg11.dtd">
<!-- Creator: CorelDRAW 2017 -->
<svg xmlns="http://www.w3.org/2000/svg" xml:space="preserve" width="580mm" height="160mm" version="1.1" style="shape-rendering:geometricPrecision; text-rendering:geometricPrecision; image-rendering:optimizeQuality; fill-rule:evenodd; clip-rule:evenodd"
viewBox="0 0 58000 16000"
 xmlns:xlink="http://www.w3.org/1999/xlink">
 <defs>
  <style type="text/css">
   <![CDATA[
    .fil3 {fill:#FEFEFE;fill-rule:nonzero}
    .fil0 {fill:#5B5B5B;fill-rule:nonzero}
    .fil1 {fill:#2B2A29;fill-rule:nonzero}
    .fil2 {fill:#E31E24;fill-rule:nonzero}
   ]]>
  </style>
 </defs>
 <g id="Слой_x0020_1">
  <metadata id="CorelCorpID_0Corel-Layer"/>
  <g>
   <polygon class="fil0" points="387,15505 57673,15505 57673,540 387,540 "/>
   <path id="1" class="fil1" d="M57673 15509l-57286 0 0 -9 57286 0 3 4 -3 4zm3 -4l0 4 -3 0 3 -4zm0 -14965l0 14965 -6 0 0 -14965 3 -4 3 4zm-3 -4l3 0 0 4 -3 -4zm-57286 0l57286 0 0 9 -57286 0 -3 -4 3 -4zm-3 4l0 -4 3 0 -3 4zm0 14965l0 -14965 6 0 0 14965 -3 4 -3 -4zm3 4l-3 0 0 -4 3 4z"/>
  </g>
  <path class="fil2" d="M12385 12256c-2338,0 -4234,-1895 -4234,-4234 0,-2338 1895,-4234 4234,-4234 2338,0 4234,1896 4234,4234 0,2338 -1895,4234 -4234,4234zm0 -9261c-2776,0 -5027,2251 -5027,5027 0,2776 2251,5027 5027,5027 2776,0 5027,-2251 5027,-5027 0,-2776 -2251,-5027 -5027,-5027z"/>
  <path class="fil3" d="M13055 6601c353,358 731,858 731,1413 0,571 -396,1085 -763,1445l-3489 -1465 3521 -1393zm1350 1413c0,-669 -284,-1265 -729,-1659l1721 -681 -790 -726 -6027 2470 0 1122 5988 2556 830 -642 -1768 -742c472,-393 777,-1007 777,-1699z"/>
  <path class="fil3" d="M13170 8035c0,-352 -265,-636 -591,-636 -326,0 -591,285 -591,636 0,351 265,636 591,636 326,0 591,-285 591,-636z"/>
  <path class="fil3" d="M55703 4414l145 0c72,0 135,-13 135,-99 0,-81 -64,-94 -128,-94l-152 0 0 193zm195 -314c129,0 236,58 236,198 0,82 -41,145 -111,172 78,16 97,94 103,163 4,44 6,140 33,166l-159 0c-17,-35 -17,-105 -22,-143 -10,-96 -39,-131 -139,-131l-137 0 0 274 -152 0 0 -700 348 0z"/>
  <path class="fil3" d="M55838 5104c-361,0 -655,-293 -655,-654 0,-361 293,-654 655,-654 361,0 654,293 654,654 0,361 -293,654 -654,654zm0 -1381c-402,0 -727,325 -727,727 0,401 325,727 727,727 402,0 727,-325 727,-727 0,-401 -325,-727 -727,-727z"/>
  <polygon class="fil3" points="2408,7648 5491,4565 6674,4565 4028,7131 6744,10925 5631,10925 3406,7736 2408,8691 2408,10925 1549,10925 1549,4565 2408,4565 "/>
  <path class="fil3" d="M19556 7552l1989 0c631,0 1296,-166 1296,-1104 0,-981 -710,-1060 -1139,-1060l-2146 0 0 2164zm0 3460l-858 0 0 -6360 2935 0c1043,0 2094,368 2094,1708 0,937 -482,1288 -885,1524 289,193 788,298 788,1191l0 1156c0,350 79,482 342,631l0 149 -1051 0c-123,-394 -149,-1358 -149,-1594 0,-526 -105,-1130 -1139,-1130l-2076 0 0 2725z"/>
  <path class="fil3" d="M26187 4652l1805 5379 17 0 1813 -5379 1218 0 0 6360 -832 0 0 -3758c0,-184 26,-999 26,-1586l-9 0 -1796 5344 -850 0 -1787 -5344 -26 0c0,578 26,1402 26,1586l0 3758 -832 0 0 -6360 1226 0z"/>
  <path class="fil3" d="M35175 5248c-1384,0 -2207,1069 -2207,2567 0,1498 823,2602 2207,2602 1384,0 2207,-1086 2207,-2584 0,-1498 -823,-2584 -2207,-2584zm0 5931c-2374,0 -3092,-1971 -3092,-3346 0,-1375 718,-3346 3092,-3346 2374,0 3092,1971 3092,3346 0,1375 -718,3346 -3092,3346z"/>
  <polygon class="fil3" points="40169,10250 43383,10250 43383,11012 39310,11012 39310,4652 40169,4652 "/>
  <polygon class="fil3" points="44198,11012 45057,11012 45057,4652 44198,4652 "/>
  <polygon class="fil3" points="50567,4652 51399,4652 51399,11012 50435,11012 47203,5879 47185,5879 47185,11012 46353,11012 46353,4652 47369,4652 50549,9786 50567,9786 "/>
  <path class="fil3" d="M52549 10699c-2,29 -5,63 -5,92 0,100 47,140 153,140l160 0 0 -234 182 0 0 234 1120 0 0 234 -1120 0 0 190 -182 0 0 -190 -222 0c-202,0 -288,-132 -288,-361 0,-34 5,-79 12,-105l190 0z"/>
  <path class="fil3" d="M53495 9635c27,37 47,95 81,384 15,116 45,300 209,300 143,0 229,-82 229,-255 0,-219 -131,-429 -305,-429l-214 0zm-241 856c-313,0 -434,-229 -434,-574 0,-111 29,-516 365,-516l744 0c54,0 81,-29 81,-76 0,-21 -5,-50 -10,-76l160 0c10,39 24,74 24,126 0,208 -101,237 -199,248 91,92 212,232 212,503 0,256 -150,434 -377,434 -155,0 -384,-42 -418,-532 -27,-366 -54,-392 -189,-392 -143,0 -209,103 -209,324 0,266 152,303 251,316l0 216z"/>
  <path class="fil3" d="M52857 8787l184 0 0 -5c-69,-50 -221,-171 -221,-421 0,-248 143,-332 212,-369 -121,-119 -212,-211 -212,-424 0,-150 74,-434 439,-434l901 0 0 234 -842 0c-177,0 -300,60 -300,261 0,197 175,324 347,324l795 0 0 234 -901 0c-109,0 -242,48 -242,221 0,132 74,363 428,363l714 0 0 234 -1303 0 0 -219z"/>
  <path class="fil3" d="M54160 6556l0 234 -1303 0 0 -234 1303 0zm-1539 234l-249 0 0 -234 249 0 0 234z"/>
  <polygon class="fil3" points="52372,6213 54160,6213 54160,5979 52372,5979 "/>
  <path class="fil3" d="M52857 5513l1061 -371 0 -5 -1061 -371 0 -258c426,163 1120,421 1539,614 224,103 295,163 295,432 0,34 -10,63 -20,100l-200 0c10,-29 22,-79 22,-142 0,-119 -32,-134 -300,-248l-1337 516 0 -266z"/>
 </g>
</svg>
