<?xml version="1.0" encoding="UTF-8"?>
<!DOCTYPE svg PUBLIC "-//W3C//DTD SVG 1.1//EN" "http://www.w3.org/Graphics/SVG/1.1/DTD/svg11.dtd">
<!-- Creator: CorelDRAW 2017 -->
<svg xmlns="http://www.w3.org/2000/svg" xml:space="preserve" width="530mm" height="510mm" version="1.1" style="shape-rendering:geometricPrecision; text-rendering:geometricPrecision; image-rendering:optimizeQuality; fill-rule:evenodd; clip-rule:evenodd"
viewBox="0 0 53000 51000"
 xmlns:xlink="http://www.w3.org/1999/xlink">
 <defs>
  <style type="text/css">
   <![CDATA[
    .fil0 {fill:#0F3076}
   ]]>
  </style>
 </defs>
 <g id="Слой_x0020_1">
  <metadata id="CorelCorpID_0Corel-Layer"/>
  <g id="kid_store_606x606_curve.cdr">
   <path class="fil0" d="M45082 36223l1586 -1358 -750 -863 695 -594 1902 -124 1831 -1568 -2228 176c640,-838 779,-1465 416,-1883 -245,-282 -609,-363 -1093,-242 -586,146 -1295,577 -2129,1290l-2705 2316 2476 2850 0 0zm298 -2839l-594 -684 1037 -889c272,-234 509,-386 708,-458 199,-71 347,-51 444,60 94,109 93,258 -4,447 -97,189 -278,398 -545,627l-1046 896z"/>
   <path class="fil0" d="M43044 37315c-341,794 -950,1566 -1827,2318 -877,751 -1733,1235 -2567,1450 -834,215 -1432,115 -1793,-300 -358,-412 -367,-1016 -26,-1810 341,-794 950,-1566 1828,-2318 877,-751 1733,-1234 2567,-1450 834,-215 1432,-116 1792,300 359,412 367,1016 26,1810l0 0zm-2430 1591c430,-369 716,-743 856,-1123 140,-380 117,-677 -69,-892 -184,-212 -480,-274 -889,-186 -409,87 -826,313 -1251,677 -425,364 -707,736 -848,1116 -140,380 -117,678 69,892 184,212 479,275 885,190 406,-85 821,-309 1246,-673l0 0z"/>
   <path class="fil0" d="M6613 31436c1260,1526 2812,3155 4152,4684 1145,1308 2307,2526 3441,3775 2142,2358 2674,3179 5196,5069 872,653 854,956 1307,1804 705,1319 1695,2640 2932,3490 621,427 1221,582 1807,696 1605,17 -124,-986 -317,-1578 -374,-1149 -587,-2760 -1819,-3727 -299,-235 -572,-360 -884,-484 -363,-144 -585,-174 -872,-604 -1178,-1764 -1470,-2140 -2861,-3801 -493,-589 -991,-1241 -1511,-1878 -1663,-2032 -3219,-3633 -4963,-5518 -494,-533 -1114,-1203 -1683,-1813 -1147,-1231 -2199,-2260 -3370,-3450 -893,-909 -4921,-5220 -6087,-5569 -411,-123 -1395,229 -559,1328 242,317 473,650 719,961 520,658 1006,1289 1495,1934 1209,1595 2620,3160 3877,4681zm17107 17501c32,-84 29,-97 -31,-208 -34,-63 -82,-126 -123,-184 -338,-479 -1633,-2531 -1990,-2483 -24,298 1826,2768 2143,2875zm-1197 -3023c-10,53 -14,22 4,89 4,13 33,70 45,89 344,550 1492,2222 1774,2552 235,-560 -1092,-2660 -1823,-2730zm-3021 -1387c349,280 665,514 1004,774 421,323 851,-141 638,-513 -448,-785 -954,-1428 -1577,-2179 -1056,-1275 -577,-944 -1473,-242 -138,109 -448,233 -518,357 136,287 1585,1530 1925,1803z"/>
   <path class="fil0" d="M26198 76c-346,130 -440,177 93,1177 709,1111 636,1402 999,2076 1294,2396 964,2067 2710,4052l14985 16699c506,573 5069,5768 5450,5954 922,450 2556,-701 2444,-1823 -150,-586 -700,-1127 -1281,-1752 -1262,-1357 -2503,-2830 -3739,-4228 -2476,-2802 -4973,-5587 -7429,-8393 -2473,-2824 -4963,-5580 -7435,-8388 -1982,-2252 -1418,-1738 -3751,-3447 -327,-240 -1097,-609 -1711,-1146 -585,-510 -1044,-770 -1334,-781zm4113 4460c27,-10 56,-20 87,-30 47,-212 108,-122 172,-391 -187,-220 -2319,-1912 -2631,-2097 -44,-16 -82,-24 -114,-25 -231,-222 -408,-372 -457,-361 -90,19 66,250 326,562 15,101 65,235 147,395l1461 2475 454 28c121,-186 207,-310 298,-397 315,319 624,616 672,594l73 -123c43,-49 -198,-328 -489,-631zm17911 19862c-2970,-3260 -5903,-6673 -8823,-9959l-6389 -7206 -1790 -2008c-379,-412 -269,-602 -97,-1043 163,120 94,123 318,351l17006 19502 -225 363 0 0zm-18804 -18774c993,1421 811,1053 2259,2674 4165,4662 10784,11943 14903,16657 327,374 398,396 703,225l-16580 -18803c-473,-531 -789,-1081 -1284,-753l0 0zm19307 18633c-888,1236 -838,870 -1419,1350l2214 2489c611,-192 1148,-692 1463,-1312l-2259 -2527 0 0zm3499 3909c-246,698 -733,1215 -1432,1366l-983 -1116c673,-445 962,-614 1437,-1405l978 1156 0 0z"/>
   <path class="fil0" d="M30685 28448c2,-675 117,-1264 313,-1831 514,-1483 2390,-1629 3984,-4581 350,-649 2296,-4776 169,-2573l-2672 2209c-1526,946 -1975,1188 -3779,1865 -2651,994 -6641,1055 -9467,177 -1679,-521 -2497,-1255 -3351,-1328 645,955 1674,1917 2587,2666 1022,839 1842,1288 3081,1792l1303 452c1574,686 836,4264 524,5909 -537,2832 -1421,4459 -1638,5602 2047,-528 3044,-1417 3737,-2169 645,-694 1208,-2093 2271,-2370l1462 2389c773,1015 1168,1321 2626,1728 -129,-472 -377,-1663 -434,-2101 -466,-3573 -727,-3967 -716,-7836z"/>
   <path class="fil0" d="M21698 21659c3672,2912 9784,733 9796,-3701 4,-1584 -476,-2827 -1819,-3815 -977,-719 -2401,-1244 -3627,-1249 -1534,-7 -3267,519 -4150,1297 -892,785 -1196,1157 -1701,2192 -681,2041 -234,3901 1501,5277zm3158 -1195c447,1691 4214,1880 4493,-1348 -1178,557 -2917,1222 -4493,1348z"/>
   <path class="fil0" d="M17350 8081c-240,143 -383,192 -428,142 -45,-50 16,-155 182,-317 467,-454 1303,-1201 2505,-2240l291 -252c1272,-1099 2374,-1853 3309,-2260 935,-406 1580,-413 1937,-21 357,392 280,1022 -234,1890 -514,868 -1371,1822 -2576,2863l-431 373 -144 121 -297 254c-96,81 -190,161 -282,240l-1237 1046c-409,353 -657,554 -746,602 -89,49 -155,50 -197,4 -25,-27 46,-154 217,-385 168,-230 249,-400 245,-512 -3,-113 -173,-351 -506,-717l-223 -226 -237 -290 -36 -51c-25,-35 -52,-68 -80,-99l-114 -147c-151,-166 -292,-247 -426,-240 -88,3 -250,77 -492,222zm6075 -3283l-114 -125c-118,-130 -285,-211 -504,-242 -465,-67 -1047,118 -1747,559 -320,203 -645,447 -977,734l-75 68c-415,358 -619,592 -615,699 3,21 164,209 484,561l641 704 19 32c16,18 34,37 50,55l159 207c16,18 33,37 50,55l70 88 27 29c94,102 193,139 299,104 107,-33 318,-186 631,-457l329 -284c306,-265 576,-545 806,-837 230,-293 394,-550 492,-765 97,-216 149,-434 153,-653 6,-221 -54,-397 -178,-532l0 0z"/>
   <path class="fil0" d="M14502 14600c84,-73 167,-143 248,-211l244 -204 496 -423 374 -318 258 -223 127 -106 383 -331c291,-252 415,-402 370,-451 -38,-41 -196,1 -476,130 -280,129 -466,184 -556,163 -91,-20 -363,-282 -819,-783 -457,-501 -694,-810 -710,-930 -17,-118 29,-261 138,-427 202,-306 291,-476 262,-508 -48,-52 -121,-45 -221,21 -99,67 -356,280 -772,640l-125 108 -129 108 -372 322 -367 327c-919,794 -1358,1213 -1318,1256l23 26c41,45 260,-37 664,-246 222,-115 404,-157 549,-126 64,11 319,263 765,752 446,489 673,794 683,911 11,118 -80,311 -272,578 -191,266 -263,426 -218,475 46,50 302,-126 768,-530l0 0z"/>
   <path class="fil0" d="M2473 20636l-42 -46c-35,-39 528,-560 1691,-1566l232 -200c444,-384 734,-604 872,-662l128 -32c38,41 2,156 -106,342 -108,186 -156,349 -144,491 11,140 105,309 282,504 177,194 308,254 392,181 174,-150 549,-745 1123,-1782 352,-636 501,-986 445,-1047 -20,-22 -84,-30 -188,-24 -105,6 -169,-3 -190,-26 -42,-46 19,-155 184,-326 99,-103 384,-358 853,-764 469,-405 807,-683 1011,-832 206,-152 326,-206 362,-167l-792 1245c-115,181 -434,743 -955,1688 -184,333 -247,536 -186,602 8,9 508,-139 1497,-441 989,-303 1594,-500 1816,-593 741,-308 1114,-462 1118,-459 43,48 -48,182 -274,403 -226,221 -591,549 -1093,983l-241 209c-274,237 -555,402 -839,496 -100,34 -333,67 -700,100 -367,34 -778,118 -1227,247 -450,133 -804,309 -1060,529 -127,110 -208,230 -245,358 -36,129 0,254 110,374 110,121 399,174 868,157 119,-5 194,12 228,48l-34 69c-137,194 -674,697 -1615,1511 -329,284 -565,478 -709,584 -229,167 -361,226 -403,180 -6,-7 49,-129 167,-366 120,-239 166,-411 142,-518 -26,-105 -254,-396 -687,-872 -433,-475 -701,-725 -807,-751 -103,-25 -292,-2 -567,71 -272,72 -411,106 -414,103l0 0z"/>
   <polygon class="fil0" points="34540,45252 36125,43894 34251,41737 35967,40267 35366,39575 30348,43872 30949,44564 32665,43095 34540,45252 "/>
   <path class="fil0" d="M30267 48996c-1079,924 -2109,1532 -3091,1824l426 -1281c770,-262 1488,-678 2152,-1247 436,-373 595,-628 477,-764 -52,-60 -160,-53 -325,19 -165,73 -457,251 -876,534 -384,258 -706,464 -967,618 -260,154 -527,290 -800,408 -273,118 -506,169 -699,155 -193,-14 -352,-94 -477,-237 -233,-269 -224,-659 30,-1172 253,-513 717,-1058 1393,-1637 937,-803 1831,-1348 2682,-1637l-308 1237c-697,270 -1312,634 -1846,1091 -185,159 -312,298 -379,417 -67,119 -76,207 -27,264 57,65 168,59 335,-17 166,-76 465,-261 895,-553 788,-537 1414,-890 1880,-1060 466,-169 809,-126 1031,129 250,288 237,694 -39,1219 -276,525 -765,1088 -1468,1690l0 0z"/>
  </g>
 </g>
</svg>
