<?xml version="1.0" encoding="UTF-8"?>
<!DOCTYPE svg PUBLIC "-//W3C//DTD SVG 1.1//EN" "http://www.w3.org/Graphics/SVG/1.1/DTD/svg11.dtd">
<!-- Creator: CorelDRAW 2017 -->
<svg xmlns="http://www.w3.org/2000/svg" xml:space="preserve" width="900mm" height="412mm" version="1.1" style="shape-rendering:geometricPrecision; text-rendering:geometricPrecision; image-rendering:optimizeQuality; fill-rule:evenodd; clip-rule:evenodd"
viewBox="0 0 90000 41200"
 xmlns:xlink="http://www.w3.org/1999/xlink">
 <defs>
  <style type="text/css">
   <![CDATA[
    .str0 {stroke:#252422;stroke-width:7.62}
    .fil0 {fill:#2B2A29}
   ]]>
  </style>
 </defs>
 <g id="Слой_x0020_1">
  <metadata id="CorelCorpID_0Corel-Layer"/>
  <path id="Круасаны_x0020_плот.cdr" class="fil0 str0" d="M27631 19954c-774,2244 -1549,4500 -2609,6628 -136,-358 -230,-732 -320,-1105 -161,-663 -319,-1320 -595,-1946 -588,-1333 -1447,-2582 -2420,-3661 -339,-376 -891,180 -554,553 938,1040 1710,2233 2298,3502 554,1195 519,2595 1249,3722 153,237 531,271 676,0 1275,-2379 2154,-4941 3031,-7485 165,-479 -592,-683 -755,-208zm-10195 541c-402,1159 -501,2404 -708,3606 -167,967 -378,2029 -948,2854l0 0c-462,-947 -752,-1969 -1079,-2970 -398,-1220 -879,-2404 -1688,-3414 -133,-167 -415,-139 -554,0 -163,163 -133,387 0,553 1560,1947 1679,4609 2911,6732 126,217 438,259 615,79 892,-910 1232,-2189 1459,-3407 237,-1273 321,-2594 747,-3824 166,-478 -591,-682 -755,-208zm33842 -2539c808,0 808,-1253 0,-1253 -805,0 -805,1253 0,1253zm-331 2381c0,-229 186,-415 414,-415l0 0c229,0 414,186 414,415l0 0c0,2470 0,4941 0,7411l0 0c0,229 -185,415 -414,415l0 0c-229,0 -414,-185 -414,-415 0,-2470 0,-4940 0,-7411zm28213 7057c-4,-41 -6,-84 -6,-125l0 0c0,-42 1,-70 1,-95l0 0c0,0 0,-10 0,-10l0 0c0,-160 128,-290 288,-291l0 0c160,-1 291,128 291,287l0 0c0,0 0,13 0,13l0 0c0,42 -1,70 -1,95l0 0c0,16 2,33 2,56l0 0c58,398 231,660 471,842l0 0c242,183 565,277 908,277l0 0c370,0 757,-112 1066,-321l0 0c309,-210 540,-505 633,-892l0 0c51,-206 76,-426 76,-644l0 0c0,-539 -159,-1066 -393,-1350l0 0c-329,-391 -784,-653 -1282,-910l0 0c-497,-259 -1033,-509 -1481,-922l0 0c-297,-275 -550,-627 -701,-1081l0 0c-87,-257 -127,-519 -127,-777l0 0c0,-715 300,-1395 753,-1905l0 0c453,-508 1073,-859 1745,-861l0 0c510,-2 1035,216 1469,681l0 0 11 12 10 13c82,110 145,202 196,296l0 0c51,93 88,187 112,283l0 0 0 1 0 2c40,165 43,308 43,431l0 0c0,0 0,33 0,33l0 0c0,160 -129,290 -289,290l0 0c-160,0 -290,-129 -290,-289l0 0c0,0 0,-35 0,-35l0 0c0,-116 -3,-196 -26,-293l0 0c-14,-53 -29,-91 -59,-147l0 0c-28,-53 -73,-121 -142,-213l0 0c-342,-355 -690,-485 -1036,-487l0 0c-460,-2 -944,253 -1312,667l0 0c-368,412 -607,971 -607,1521l0 0c0,199 31,397 96,592l0 0c122,360 308,620 547,842l0 0c238,222 532,401 855,574l0 0c641,347 1401,653 1961,1315l0 0 2 3 2 2c348,438 520,1067 520,1713l0 0c0,262 -30,527 -93,781l0 0c-128,538 -460,959 -872,1235l0 0c-413,277 -905,418 -1389,419l0 0c-447,0 -894,-122 -1255,-393 -398,-296 -634,-748 -699,-1235zm-1508 -9207c-514,14 -1023,68 -1363,78 0,0 -9,1 -9,1 0,0 -7,-1 -7,-1 -421,-19 -763,-48 -1318,-78 -230,-13 -427,164 -439,394 -12,230 164,427 394,439l0 0c404,22 696,43 1000,61l0 8666c0,229 185,414 414,414 229,0 414,-185 414,-414l0 -8673c298,-20 621,-46 937,-54 230,-6 412,-198 406,-428 -6,-230 -198,-412 -428,-406zm-4497 3214c0,-351 8,-699 29,-1041 12,-204 -143,-380 -347,-393 -204,-13 -380,143 -392,347 -22,362 -30,724 -30,1087 0,1023 63,2044 63,3036 0,830 -44,1639 -199,2413 -15,-17 -27,-37 -37,-59 -567,-1952 -1476,-3741 -2224,-5575 -55,-145 -128,-275 -235,-384 -107,-109 -267,-203 -459,-203 -104,-1 -203,29 -289,76 -164,30 -302,155 -336,329 -186,919 -233,1844 -233,2762 0,987 53,1968 53,2925 0,338 -6,674 -24,1005 -12,231 165,428 396,441 0,0 22,1 22,1 221,0 406,-173 418,-397l0 0c19,-350 25,-700 25,-1049 0,-987 -54,-1968 -54,-2925 0,-703 30,-1393 125,-2065 745,1790 1589,3493 2105,5285l4 15 6 15c76,198 206,351 353,454 148,103 312,165 494,167 90,-1 188,-17 286,-67 97,-49 189,-138 239,-247l17 -36 9 -39c220,-935 275,-1890 275,-2840 0,-1023 -64,-2044 -64,-3036zm-6291 4118c-7,-27 -19,-52 -33,-75 -194,-1656 -492,-3496 -1289,-5028l-230 -440 -320 380c-565,674 -887,1538 -1106,2428 -218,891 -330,1814 -444,2611 0,26 -1,51 -1,75 -259,869 -354,1642 -656,2358 -64,153 8,328 161,392 38,16 77,23 115,23 118,0 229,-69 277,-184 299,-718 407,-1418 594,-2123 23,7 46,12 70,15 456,51 863,81 1277,81 352,0 709,-24 1099,-72 215,749 467,1454 486,2187 5,159 135,284 293,284l9 0c161,-5 288,-140 284,-301 -30,-965 -377,-1801 -586,-2611zm-1584 -318c-356,0 -715,-26 -1129,-70 99,-711 205,-1472 382,-2190 154,-634 364,-1229 657,-1718 514,1195 769,2594 937,3929 -299,33 -574,48 -846,48zm-6814 3446c-274,-259 -451,-478 -568,-712l0 0c-118,-235 -164,-462 -210,-716l0 0c-31,-168 81,-329 249,-360l0 0c168,-31 329,81 360,249l0 0c45,248 82,403 155,550l0 0c71,142 186,296 418,518l0 0c331,203 640,284 925,285l0 0c489,0 935,-245 1270,-641l0 0c334,-394 540,-934 540,-1463l0 0c0,-501 -174,-986 -592,-1384l0 0c-359,-237 -797,-411 -1244,-604l0 0c-454,-198 -921,-419 -1305,-791l0 0 -11 -11 -10 -11c-522,-616 -745,-1367 -745,-2110l0 0c0,-517 106,-1034 290,-1518l0 0 7 -19 10 -18c125,-231 256,-413 414,-562l0 0c157,-147 334,-254 533,-350l0 0c303,-154 646,-223 990,-223l0 0c493,1 993,141 1393,426l0 0c399,281 692,740 692,1304l0 0c0,96 -8,194 -25,294l0 0c-28,168 -187,283 -356,254l0 0c-169,-28 -283,-187 -255,-356l0 0c12,-68 17,-132 17,-192l0 0c0,-349 -162,-600 -434,-801l0 0c-272,-196 -659,-311 -1033,-310l0 0c-260,0 -511,54 -710,156l0 0 -5 2 -1 1c-172,83 -286,155 -384,247l0 0c-95,89 -182,204 -284,388l0 0c-156,415 -242,853 -242,1278l0 0c0,620 179,1208 589,1700l0 0c283,273 673,467 1109,655l0 0c440,192 922,377 1363,672l0 0 21 14 18 17c562,520 806,1199 806,1854l0 0c0,687 -258,1354 -686,1862l0 0c-426,506 -1040,861 -1743,861l0 0c0,0 -3,0 -3,0l0 0c-415,0 -852,-126 -1277,-396l-48 -37zm-4948 19c-437,-268 -802,-693 -899,-1256 -29,-167 83,-326 250,-355l0 0c167,-29 325,83 354,250l0 0c62,355 287,633 617,839l0 0c327,203 753,315 1131,314l0 0c405,3 734,-129 868,-306l0 0 13 -16 15 -14c180,-173 277,-311 444,-627l0 0c117,-243 200,-445 200,-655l0 0c0,-99 -17,-204 -64,-329l0 0c-313,-425 -941,-1073 -1600,-1793l0 0c-677,-741 -1391,-1565 -1869,-2376l0 0c-317,-542 -539,-1080 -539,-1616l0 0c-5,-460 189,-916 594,-1247l0 0c403,-333 989,-563 1804,-706l0 0c79,-14 164,-22 254,-22l0 0c251,-1 543,66 828,248l0 0 30 19 25 25c413,422 852,949 956,1640l0 0c25,168 -91,323 -259,348l0 0c-167,24 -323,-92 -348,-259l0 0c-63,-456 -384,-888 -760,-1271l0 0c-175,-104 -332,-135 -472,-136l0 0c-52,0 -102,5 -148,13l0 0c-755,130 -1241,342 -1517,574l0 0c-274,234 -367,468 -373,775l0 0c0,267 90,591 261,944l0 0c170,353 415,732 702,1116l0 0c574,768 1313,1551 1935,2222l0 0c415,449 778,845 1017,1176l0 0 21 30 14 34c84,206 121,406 121,593l0 0c0,375 -143,675 -263,926l0 0 -2 4 -3 5c-173,332 -327,561 -554,778l0 0c-321,376 -822,515 -1331,518l0 0c-493,-1 -1013,-135 -1453,-405l0 0zm-3623 -7635c-88,-435 -201,-832 -352,-1177 -151,-343 -338,-639 -597,-855l-9 -8 -9 -6c-333,-243 -721,-364 -1108,-363 -373,0 -744,109 -1081,308l-30 18 -26 23c-506,447 -811,1082 -997,1800 -185,720 -253,1534 -253,2378 0,1690 274,3502 495,4845 0,15 5,30 9,45 0,0 0,1 0,1 0,0 1,2 1,2 0,0 3,12 3,12 131,427 451,725 805,898 358,176 761,249 1150,250 292,0 576,-42 833,-125 256,-85 489,-208 664,-413 82,-97 136,-200 187,-318 175,-413 304,-1042 404,-1819 98,-774 156,-1682 156,-2600 0,-1009 -70,-2028 -245,-2896zm-678 5713c-58,397 -128,741 -201,999 -36,129 -73,236 -107,314 -33,78 -66,127 -72,132l-1 1 -3 3c-42,54 -161,134 -331,188 -170,56 -385,89 -606,89 -295,1 -599,-60 -825,-173 -221,-112 -360,-253 -425,-441 -219,-1330 -483,-3103 -483,-4708 0,-804 67,-1564 230,-2195 159,-617 408,-1102 746,-1411 229,-128 462,-190 682,-190 236,1 459,68 669,217 129,109 266,305 384,577 183,417 322,999 409,1657 88,658 126,1392 126,2123 0,1013 -75,2022 -193,2816zm-5252 -2687c556,-681 810,-1518 810,-2326 0,-810 -250,-1600 -729,-2208 -476,-608 -1208,-1023 -2088,-1020 -370,0 -762,71 -1170,220l-228 83 -23 242c-77,797 -113,1615 -113,2436 0,820 38,1640 109,2442 -4,15 -13,29 -13,44 -96,528 -119,1052 -119,1566 0,559 28,1108 28,1639 0,187 -3,372 -12,555 -11,229 166,423 394,435 0,0 20,0 20,0 220,0 403,-173 414,-395l0 0c10,-199 13,-398 13,-594 0,-559 -28,-1108 -28,-1639 0,-369 13,-730 55,-1080l2051 0c238,285 396,615 500,988 122,439 164,933 164,1444 0,277 -12,559 -29,840 -12,204 143,379 347,391 0,0 23,1 23,1 194,0 357,-151 369,-348 17,-289 30,-586 30,-884 0,-550 -43,-1108 -191,-1641 -116,-421 -303,-828 -584,-1188zm-649 -426l-2037 0c-57,-708 -87,-1429 -87,-2149 0,-711 28,-1420 87,-2111 245,-69 471,-99 679,-99 641,3 1125,279 1485,728 357,449 563,1081 563,1731 0,677 -222,1362 -690,1901zm-7067 5217c-484,-481 -796,-1204 -1008,-2046l0 0c-209,-843 -308,-1810 -308,-2780l0 0c0,-998 105,-1998 313,-2868l0 0c211,-870 513,-1611 970,-2101l0 0 11 -11 12 -11c151,-132 329,-211 514,-262l0 0c186,-50 382,-72 578,-72l0 0c387,2 773,80 1084,252l0 0 7 4 6 4c278,175 521,417 722,675l0 0c200,260 356,534 441,797l0 0c57,177 -40,367 -218,424l0 0c-177,57 -367,-40 -424,-218l0 0c-50,-158 -173,-384 -334,-591l0 0c-159,-206 -356,-397 -541,-513l0 0c-162,-91 -463,-162 -745,-160l0 0c-145,0 -286,17 -400,48l0 0c-107,29 -188,70 -236,109l0 0c-317,340 -604,988 -792,1783l0 0c-193,805 -295,1761 -295,2711l0 0c0,924 96,1844 288,2618l0 0c186,758 473,1371 804,1706l0 0c136,87 352,144 601,143l0 0c254,0 536,-58 789,-169l0 0c251,-111 471,-273 621,-470l0 0c83,-123 127,-211 159,-309l0 0c32,-99 53,-219 65,-401l0 0c12,-186 173,-326 359,-314l0 0c186,12 327,173 314,359l0 0c-14,210 -40,390 -96,563l0 0c-56,173 -140,329 -248,487l0 0 -5 7 -5 7c-234,311 -551,537 -892,688l0 0c-341,150 -708,227 -1061,227l0 0c-364,-1 -717,-80 -1007,-278l-45 -37zm-16780 -11090c808,0 808,-1253 0,-1253 -808,0 -808,1253 0,1253l0 0zm-7446 10624c-1538,-279 -3091,-152 -4643,-123 0,-3220 0,-6440 0,-9659 0,-260 -210,-470 -470,-470 -259,0 -470,210 -470,470 0,3347 0,6693 0,10040 0,0 1,11 1,11 -41,260 108,555 447,554 1622,-4 3276,-208 4884,83 252,46 505,-65 578,-328 63,-230 -76,-532 -328,-578zm-7559 4265c-229,0 -414,-186 -414,-414l0 0c0,-229 185,-414 414,-414l0 0c27044,0 54087,0 81131,0l0 0c229,0 414,185 414,414l0 0c0,228 -185,414 -414,414l0 0c-27044,0 -54087,0 -81131,0zm-44 -17161c-228,5 -419,-179 -423,-407l0 0c-5,-229 178,-419 407,-423l0 0c1041,-20 2084,-28 3126,-28l0 0c2955,0 5911,60 8854,60l0 0c2618,0 5225,-48 7812,-226l0 0c229,-16 427,157 443,385l0 0c16,229 -157,427 -385,443l0 0c-2615,181 -5242,228 -7870,228l0 0c-3988,0 -7976,-111 -11964,-33zm53670 -197l0 0c-228,-11 -404,-206 -393,-434l0 0c11,-228 205,-404 434,-393l0 0c3602,179 7230,227 10869,227l0 0c4071,0 8155,-60 12234,-60l0 0c1439,0 2878,8 4315,28l0 0c229,3 409,191 409,420l0 0c-3,229 -191,411 -420,408l0 0c-1432,-20 -2867,-27 -4303,-27l0 0c-4071,0 -8155,59 -12234,59l0 0c-3646,0 -7287,-47 -10910,-227l0 0zm3086 -9448c-927,-1060 -1043,-1990 -1763,-2573 -585,-473 -1877,-1064 -3238,-1437 -1455,-399 -2756,-859 -3787,-1062 -1513,-299 -3411,-477 -4686,-709 -56,-10 -118,-8 -174,-11 -1687,-79 -5100,187 -6174,631 -669,277 -1195,1299 -1662,1329 -2047,349 -3426,1545 -5056,2343 -2429,1188 -4176,1667 -5348,4170 -326,696 -331,1594 -680,2417 -711,1676 -3871,4192 -1988,6435 1046,993 3327,448 4389,-130 1759,817 3357,-510 4952,-709 582,-73 1283,159 1920,122 1905,-111 4505,-1126 7111,-1597 2648,-478 5556,-227 7757,-735 904,-209 1700,-891 2522,-1069 872,-190 1561,94 2282,-59 571,-122 1332,-751 2347,-1080 2001,-649 3801,-539 4009,-2410 231,-2073 -1900,-2914 -2732,-3865zm-12493 -4693c-307,1101 -946,1275 -1365,2168 -838,1785 -853,4500 -1290,6479 -288,1307 -1831,2797 -3298,2250 -2203,-821 -1493,-7117 -2005,-9765 1845,-1455 5049,-1096 7958,-1132zm-21663 15431c-502,-1668 777,-2805 1308,-4017 593,1234 439,3236 1498,3991 -608,558 -2355,873 -2806,26zm3866 -163c-3325,-2943 -1007,-9899 2436,-10712 528,360 -362,1370 -479,2020 -359,1983 -163,4319 494,5978 405,1020 1045,1569 1427,2346 -1195,253 -2258,682 -3879,368zm24676 -4986c-1056,2520 -5424,2028 -9096,2495 -1811,230 -3339,552 -4790,924 -1830,470 -4512,1525 -6335,416 -1768,-1076 -2503,-5388 -1586,-8098 934,-2759 3850,-3523 6234,-4318 572,3456 -203,9040 2341,9992 1705,637 3480,-349 4144,-1786 974,-2110 482,-5027 1517,-7285 454,-991 1159,-1642 1902,-2339 2047,259 4008,221 5144,1764 1094,1484 1480,5956 525,8235zm646 861c-288,-122 -220,-375 65,-1021 954,-2696 584,-6828 -687,-8451 2413,139 5181,1760 5110,5042 -57,2673 -1590,4514 -4488,4429zm6815 -2436c-272,1021 -1354,891 -2360,1285 478,-1062 784,-2351 784,-4051 788,658 1891,1579 1576,2766zm-43900 10249c0,2184 -136,4449 512,6565 177,577 1084,331 906,-250 -623,-2035 -479,-4214 -479,-6315 0,-604 -939,-604 -939,0zm34813 18334c-220,-167 -530,-266 -916,-266 -199,0 -418,27 -658,84 0,-29 5,-59 5,-87 0,-219 -50,-410 -149,-566 -150,-235 -396,-369 -671,-443 -277,-75 -596,-96 -938,-96 -624,0 -1328,74 -1959,74 -835,0 -1629,0 -2404,0l-4633 0c-573,0 -1280,-59 -1928,-59 -490,1 -945,31 -1306,161 -180,66 -340,159 -457,297 -118,138 -183,321 -183,524 0,62 7,125 17,191 -160,-14 -314,-23 -454,-23 -525,0 -915,89 -1190,242 -273,150 -437,386 -437,643 0,266 168,503 421,666 256,164 610,265 1040,265 221,0 464,-29 723,-88 -4,112 -13,257 -13,402 0,112 5,225 24,331 20,105 49,209 133,300 65,65 136,93 215,119 233,69 573,84 978,85 806,0 1845,-78 2417,-78l7037 0c667,0 1430,94 2089,95 420,-1 800,-36 1104,-183 152,-74 285,-180 376,-326 91,-145 137,-322 137,-523 0,-51 -5,-104 -11,-158 184,29 355,43 514,43 447,0 796,-107 1041,-284 245,-176 381,-430 381,-689 0,-247 -124,-486 -344,-652zm-16112 1160c-253,61 -484,90 -688,90 -375,0 -663,-89 -847,-208 -186,-121 -258,-260 -258,-366 0,-100 56,-217 254,-331 197,-111 531,-197 1015,-196 161,0 338,10 532,30 24,166 42,334 42,501 0,166 -16,328 -51,482zm14128 234c0,0 0,0 0,0 0,0 1,4 1,4 0,0 1,2 1,2 0,0 0,2 0,2 31,131 44,243 44,339 0,149 -32,253 -82,334 -75,119 -206,205 -411,262 -202,57 -468,79 -766,79 -626,1 -1391,-94 -2089,-95l-7037 0c-596,0 -1630,78 -2417,78 -261,0 -494,-9 -668,-30 -86,-10 -158,-25 -206,-40 -24,-7 -42,-15 -53,-20 0,0 -10,-6 -10,-6 0,0 0,0 0,0 -6,-9 -27,-50 -37,-113 -13,-72 -18,-168 -18,-269 0,-178 16,-366 16,-505 0,-49 -1,-90 -10,-137 -5,-21 -11,-45 -28,-75 36,-173 50,-349 50,-524 0,-237 -27,-471 -65,-691 0,0 -3,-8 -3,-8 0,0 -3,-16 -3,-16 0,0 -1,-5 -1,-5 -46,-134 -65,-246 -65,-336 0,-132 36,-218 98,-293 93,-113 282,-204 546,-259 262,-55 592,-74 946,-74 627,0 1333,59 1928,59l7037 0c657,0 1363,-74 1959,-74 435,-1 810,42 1047,157 119,57 203,127 261,218 57,90 93,207 93,374 0,85 -10,183 -32,293 -74,221 -104,452 -104,681 0,237 31,471 77,689zm1737 -341c-167,122 -441,216 -831,216 -170,0 -364,-19 -578,-60 -30,-165 -48,-336 -48,-504 0,-174 21,-342 65,-500 277,-79 520,-114 724,-114 326,0 557,84 700,193 143,110 203,240 203,368 0,134 -66,277 -234,400zm-12477 -1140l-753 4c0,0 -25,2 -25,2 0,0 -25,-3 -40,-3 -66,1 -102,32 -102,93l-36 1467c0,72 29,109 94,110l17 0c0,0 24,2 24,2l759 -4c102,-1 150,-34 150,-101 0,-83 -54,-125 -156,-124l-672 3 15 -609 610 -3c102,-1 150,-35 150,-101 0,-83 -54,-125 -156,-124l-600 3 10 -388c239,-2 478,-3 717,-5 102,0 150,-33 150,-100 0,-84 -55,-125 -156,-125zm834 677c82,-3 144,16 185,56 84,81 146,105 188,71 33,-27 47,-62 40,-105 -10,-66 -67,-124 -170,-175 -79,-39 -172,-54 -278,-44 -94,9 -177,39 -248,91 -61,44 -107,107 -138,190 -29,75 -35,149 -17,221 22,92 108,150 256,171 143,19 235,51 275,95 61,65 77,120 48,166 -36,53 -135,74 -297,63 -66,-4 -132,-28 -195,-72 -52,-36 -98,-40 -139,-13 -33,22 -46,56 -46,104 0,44 30,80 80,109 56,32 104,54 143,65 64,18 146,27 247,26 120,-1 216,-25 288,-74 90,-60 140,-137 152,-230 11,-91 -20,-181 -93,-269 -31,-38 -86,-75 -166,-112 -59,-28 -122,-45 -191,-52 -87,-9 -138,-34 -151,-73 -14,-45 -4,-88 31,-129 42,-49 107,-76 194,-80zm1354 -179l-220 1c5,-152 10,-321 10,-505 0,-72 -37,-107 -111,-107 -65,0 -100,33 -100,101l-12 513c-84,1 -167,1 -251,1 -69,0 -103,36 -103,109 0,71 31,106 93,106l255 0 -20 844c0,77 30,117 95,118 78,1 118,-37 118,-116l18 -846 232 0c85,0 127,-37 127,-111 0,-73 -44,-109 -133,-109zm551 984c-21,-12 -44,-19 -69,-19l-4 0c-25,0 -47,7 -67,20 -19,13 -34,30 -47,51 -12,20 -17,42 -17,65 0,25 6,47 19,68 12,20 28,36 48,48 19,11 39,18 62,18l7 0c22,1 42,-4 61,-13 17,-8 33,-21 48,-40 16,-21 27,-45 27,-70l0 -11c0,-22 -5,-43 -15,-63 -11,-23 -29,-41 -51,-54zm1936 1c-229,-1 -459,-2 -688,-2 5,-70 49,-165 131,-285 87,-127 213,-227 377,-303 181,-83 274,-236 279,-462 4,-168 -65,-296 -206,-384 -66,-41 -154,-61 -264,-61 -118,0 -215,23 -292,68 -59,35 -131,103 -214,205 -40,49 -36,94 15,134 55,46 112,36 172,-33 81,-94 147,-150 200,-167 87,-28 172,-22 254,20 84,42 122,109 122,199 -3,158 -68,267 -192,327 -191,93 -335,209 -433,348 -103,152 -157,301 -162,447 -4,100 32,151 106,151l795 0c75,1 114,-34 114,-103 0,-66 -38,-99 -115,-99zm975 -1495c-421,0 -631,279 -631,837 0,575 200,862 602,862 408,0 612,-293 612,-878 0,-547 -194,-821 -582,-821zm-29 1497c-258,0 -387,-221 -387,-664 0,-419 140,-629 420,-629 239,0 358,204 358,613 0,453 -130,680 -390,680zm1452 1l-118 0 7 -1379c0,-65 -19,-102 -59,-111 -49,-12 -103,10 -162,65l-216 203c-51,48 -58,98 -21,149 47,64 105,63 174,-3l80 -76 -2 1151 -162 0c-72,0 -108,36 -108,109 0,61 32,91 98,91l492 0c72,0 109,-33 109,-98 0,-67 -37,-101 -112,-101zm965 -990c-120,0 -237,45 -351,134l43 -420 662 0c75,0 111,-36 111,-108 0,-67 -40,-100 -117,-100l-765 4c-51,0 -81,21 -91,63l-66 746c-8,91 18,137 78,140 56,2 131,-43 224,-133 70,-75 161,-113 273,-114 226,-2 330,107 313,325 -24,309 -177,463 -458,462 -99,0 -186,-49 -259,-145 -44,-57 -99,-57 -164,-1 -36,31 -35,77 2,139 81,132 207,202 380,210 466,22 702,-201 710,-668 6,-355 -169,-533 -524,-534zm22461 -4954l0 737c0,279 -4,452 -18,702l11 0c105,-210 166,-333 282,-535l546 -904 372 0 0 1750 -303 0 0 -741c0,-286 7,-434 21,-716l-11 0c-112,224 -188,365 -289,542 -166,271 -358,607 -546,915l-365 0 0 -1750 300 0zm-3493 0l0 705 831 0 0 -705 315 0 0 1750 -315 0 0 -792 -831 0 0 792 -315 0 0 -1750 315 0zm-2353 1330l0 -654c0,-351 -130,-716 -665,-716 -221,0 -430,61 -575,155l72 210c123,-80 293,-130 455,-130 358,0 398,260 398,405l0 36c-676,-4 -1052,228 -1052,651 0,253 181,502 535,502 249,0 437,-123 535,-260l11 0 25 220 289 0c-22,-119 -29,-268 -29,-419zm-307 -170c0,32 -7,69 -18,101 -50,148 -195,293 -423,293 -163,0 -300,-98 -300,-304 0,-340 394,-401 741,-394l0 304zm-3594 524c-83,44 -268,105 -503,105 -528,0 -871,-362 -871,-897 0,-539 369,-929 940,-929 188,0 354,47 441,90l-72 246c-76,-43 -195,-83 -369,-83 -401,0 -618,296 -618,662 0,405 260,654 607,654 181,0 300,-47 390,-87l54 239zm-3294 -354l0 -654c0,-351 -130,-716 -665,-716 -221,0 -430,61 -575,155l72 210c123,-80 293,-130 456,-130 358,0 398,260 398,405l0 36c-676,-4 -1052,228 -1052,651 0,253 181,502 535,502 249,0 437,-123 535,-260l11 0 25 220 289 0c-22,-119 -29,-268 -29,-419zm-307 -170c0,32 -7,69 -18,101 -51,148 -195,293 -423,293 -163,0 -300,-98 -300,-304 0,-340 394,-401 741,-394l0 304zm-4042 -1161l383 1034c40,116 83,253 112,358l7 0c33,-105 69,-239 112,-365l347 -1027 336 0 -477 1247c-228,600 -383,907 -600,1095 -156,138 -311,192 -391,206l-79 -268c79,-26 185,-76 278,-156 87,-69 195,-191 268,-354 14,-33 25,-58 25,-76 0,-18 -7,-44 -22,-83l-647 -1613 347 0zm-2791 -40c-286,0 -492,126 -622,340l-7 0 -15 -300 -286 0c7,166 15,347 15,571l0 1894 315 0 0 -951 7 0c105,174 307,275 539,275 412,0 795,-311 795,-940 0,-531 -318,-889 -741,-889zm-109 1580c-228,0 -419,-152 -477,-372 -7,-40 -14,-83 -14,-130l0 -300c0,-43 11,-90 21,-130 62,-238 264,-394 481,-394 336,0 520,300 520,651 0,401 -195,676 -531,676zm-3756 -1540l0 759 76 0 658 -759 387 0 -763 792c282,29 452,217 589,531 47,116 108,285 188,427l-333 0c-47,-76 -109,-213 -163,-358 -119,-282 -282,-412 -578,-412l-61 0 0 770 -315 0 0 -1750 315 0zm-4638 -492c4,108 -76,195 -203,195 -112,0 -192,-87 -192,-195 0,-112 83,-199 199,-199 119,0 195,87 195,199zm-354 2241l0 -1750 318 0 0 1750 -318 0zm-2950 -1750l0 759 76 0 658 -759 387 0 -763 792c282,29 452,217 589,531 47,116 108,285 188,427l-333 0c-47,-76 -109,-213 -162,-358 -120,-282 -282,-412 -579,-412l-61 0 0 770 -314 0 0 -1750 314 0zm-3051 575c-94,0 -213,4 -289,18l0 -593 -314 0 0 1743c130,15 292,25 470,25 256,0 567,-40 759,-203 112,-94 184,-220 184,-401 0,-466 -416,-589 -810,-589zm-54 969c-105,0 -174,-7 -235,-14l0 -709c72,-11 145,-18 228,-18 235,0 553,65 553,369 0,293 -307,372 -546,372zm-2448 141c-83,44 -268,105 -502,105 -528,0 -871,-362 -871,-897 0,-539 369,-929 940,-929 188,0 354,47 441,90l-72 246c-76,-43 -195,-83 -369,-83 -401,0 -618,296 -618,662 0,405 260,654 607,654 181,0 300,-47 390,-87l54 239zm-3626 -864l0 -7c199,-43 365,-177 365,-394 0,-390 -484,-437 -777,-437 -206,0 -434,18 -557,40l0 1728c94,7 297,22 492,22 343,0 922,-58 922,-517 0,-253 -188,-398 -445,-434zm-665 -604c76,-7 141,-15 246,-15 318,0 470,83 470,257 0,206 -242,275 -477,275l-239 0 0 -517zm253 1338c-101,0 -166,-4 -257,-15l0 -596 231 0c304,0 557,54 557,307 0,253 -318,304 -531,304zm-2574 -2046c4,108 -76,195 -203,195 -112,0 -191,-87 -191,-195 0,-112 83,-199 199,-199 119,0 195,87 195,199zm-354 2241l0 -1750 318 0 0 1750 -318 0zm-2379 -929l0 -7c199,-43 365,-177 365,-394 0,-390 -485,-437 -777,-437 -206,0 -434,18 -557,40l0 1728c94,7 297,22 492,22 343,0 922,-58 922,-517 0,-253 -188,-398 -445,-434zm-665 -604c76,-7 141,-15 246,-15 318,0 470,83 470,257 0,206 -242,275 -477,275l-239 0 0 -517zm253 1338c-101,0 -166,-4 -257,-15l0 -596 232 0c303,0 557,54 557,307 0,253 -318,304 -531,304zm-3286 -980c-94,0 -213,4 -289,18l0 -593 -315 0 0 1743c130,15 293,25 470,25 257,0 568,-40 759,-203 112,-94 184,-220 184,-401 0,-466 -416,-589 -810,-589zm-54 969c-105,0 -174,-7 -235,-14l0 -709c72,-11 144,-18 228,-18 235,0 553,65 553,369 0,293 -307,372 -546,372zm-2596 -1544l0 1750 -314 0 0 -1497 -600 0 0 445c0,492 -47,817 -275,965 -87,72 -184,112 -347,112l-32 -253c61,-7 130,-36 174,-72 163,-115 181,-362 181,-752l0 -698 1215 0zm-18475 -31328l1000 0 0 1000 -1000 0 0 -1000zm0 36280l1000 0 0 1000 -1000 0 0 -1000zm89000 -36280l1000 0 0 1000 -1000 0 0 -1000zm0 36280l1000 0 0 1000 -1000 0 0 -1000z"/>
 </g>
</svg>
