<?xml version="1.0" encoding="UTF-8"?>
<!DOCTYPE svg PUBLIC "-//W3C//DTD SVG 1.1//EN" "http://www.w3.org/Graphics/SVG/1.1/DTD/svg11.dtd">
<!-- Creator: CorelDRAW 2017 -->
<svg xmlns="http://www.w3.org/2000/svg" xml:space="preserve" width="916mm" height="331mm" version="1.1" style="shape-rendering:geometricPrecision; text-rendering:geometricPrecision; image-rendering:optimizeQuality; fill-rule:evenodd; clip-rule:evenodd"
viewBox="0 0 91600 33100"
 xmlns:xlink="http://www.w3.org/1999/xlink">
 <defs>
  <style type="text/css">
   <![CDATA[
    .str0 {stroke:#2B2A29;stroke-width:20}
    .fil0 {fill:#2B2A29}
    .fil1 {fill:#CE5D3B;fill-rule:nonzero}
   ]]>
  </style>
 </defs>
 <g id="Слой_x0020_1">
  <metadata id="CorelCorpID_0Corel-Layer"/>
  <g id="_1359884736528">
   <rect class="fil0 str0" x="198" y="407" width="91543" height="33048"/>
   <path class="fil1" d="M20491 17685l0 -10851c0,-338 -108,-622 -325,-850 -216,-229 -484,-343 -804,-343 -320,0 -588,114 -804,343 -216,229 -325,512 -325,850l-3 10851c-105,3583 -3127,6456 -6840,6456 -3713,0 -6734,-2873 -6840,-6456l-3 -10851c0,-338 -108,-622 -325,-850 -216,-229 -484,-343 -804,-343 -320,0 -588,114 -804,343 -216,229 -325,512 -325,850l0 10851c0,4790 3917,8844 9100,8844 5183,0 9100,-4054 9100,-8844z"/>
   <path class="fil1" d="M73009 26232c-320,0 -588,-114 -804,-343 -216,-229 -325,-512 -325,-850l0 -18501c0,-338 108,-622 325,-850 216,-229 484,-343 804,-343l15664 0c320,0 588,114 804,343 216,229 325,512 325,850 0,338 -108,622 -325,850 -216,229 -484,343 -804,343l-14535 0 0 9423 14535 0c320,0 588,114 804,343 216,229 325,512 325,850 0,338 -108,622 -325,850 -216,229 -484,343 -804,343l-14535 0 0 4304 14535 0c320,0 588,114 804,343 216,229 325,512 325,850 0,338 -108,622 -325,850 -216,229 -484,343 -804,343l-15664 0z"/>
   <path class="fil1" d="M25714 6925c-147,-301 -79,-627 59,-925 137,-298 363,-497 678,-597 314,-99 619,-80 913,60 295,139 438,387 589,686l7925 15666 5550 -10970 2295 -4696c252,-516 570,-806 1120,-806l0 0c152,-10 306,10 463,60 314,99 540,298 678,597 2317,5028 4794,9999 7231,14983l0 -14446c0,-338 108,-622 325,-850 216,-229 484,-343 804,-343l9959 0c959,0 1858,194 2695,582 837,388 1566,910 2187,1567 621,656 1115,1427 1482,2313 367,885 550,1835 550,2850 0,1015 -183,1965 -550,2850 -367,885 -861,1656 -1482,2313 -621,657 -1350,1179 -2187,1567 -837,388 -1736,582 -2695,582l-8830 0 0 5073c0,338 -108,622 -325,850 -504,533 -1637,419 -2221,88l-12659 -7170 -973 1924 -2296 4696c-252,516 -570,806 -1120,806l0 0c-152,10 -306,-10 -463,-60 -314,-99 -540,-298 -678,-597 -2884,-6259 -5991,-12448 -9024,-18650zm25458 15346l-6329 -12510 -3442 6804 9771 5706zm13130 -4693c640,0 1242,-129 1806,-388 564,-259 1058,-612 1482,-1059 423,-448 757,-970 1002,-1567 245,-597 367,-1233 367,-1910 0,-676 -122,-1313 -367,-1910 -245,-597 -579,-1119 -1002,-1567 -423,-448 -917,-801 -1482,-1059 -564,-259 -1166,-388 -1806,-388l-8830 0 0 9847 8830 0z"/>
  </g>
 </g>
</svg>
