<?xml version="1.0" encoding="UTF-8"?>
<!DOCTYPE svg PUBLIC "-//W3C//DTD SVG 1.1//EN" "http://www.w3.org/Graphics/SVG/1.1/DTD/svg11.dtd">
<!-- Creator: CorelDRAW 2017 -->
<svg xmlns="http://www.w3.org/2000/svg" xml:space="preserve" width="753mm" height="162mm" version="1.1" style="shape-rendering:geometricPrecision; text-rendering:geometricPrecision; image-rendering:optimizeQuality; fill-rule:evenodd; clip-rule:evenodd"
viewBox="0 0 75300 16200"
 xmlns:xlink="http://www.w3.org/1999/xlink">
 <defs>
  <style type="text/css">
   <![CDATA[
    .fil0 {fill:black;fill-rule:nonzero}
    .fil1 {fill:#E3000F;fill-rule:nonzero}
   ]]>
  </style>
 </defs>
 <g id="Слой_x0020_1">
  <metadata id="CorelCorpID_0Corel-Layer"/>
  <g id="_1359887510944">
   <path class="fil0" d="M59119 5410l0 8103 2865 0 0 -8103 2660 0 0 -2256 -8185 0 0 2256 2660 0zm16164 8103l0 -10359 -2745 0 0 3707 -3479 0 0 -3707 -2865 0 0 10359 2865 0 0 -4307 3479 0 0 4307 2745 0zm-52066 -3502l-1447 -6857 -2850 0 2631 10359 3025 0 1769 -6755 1769 6755 3026 0 2631 -10359 -2851 0 -1447 6857 -1798 -6857 -2661 0 -1797 6857zm18051 -4909l2865 0 0 -1949 -2865 0 0 1949zm-3376 -1948l-2865 0 0 1949 2865 0 0 -1949zm3376 2916l0 3311c0,1495 -731,2021 -1681,2021 -950,0 -1695,-527 -1695,-2008l0 -3325 -2865 0 0 3457c0,2725 1506,4221 4560,4221 3070,0 4547,-1496 4547,-4206l0 -3472 -2866 0zm11327 483c0,733 -497,1261 -1535,1261l-1958 0 0 -2521 1958 0c1039,0 1535,527 1535,1260zm-117 6960l3231 0 -2325 -4000c1288,-542 2018,-1583 2018,-2961 0,-2052 -1343,-3398 -4004,-3398l-5101 0 0 10359 2806 0 0 -3589 1418 0 1958 3589z"/>
   <polygon class="fil1" points="14607,-3 8473,-3 8473,2484 6003,2484 6003,-3 1,-3 1,6322 14607,6322 "/>
   <path class="fil1" d="M8473 13669l0 2477c3528,-663 6134,-3740 6134,-7194l0 -130 -14605 0 0 1475c572,2881 2940,5274 6001,5850l0 -2477 2470 0z"/>
  </g>
 </g>
</svg>
