<?xml version="1.0" encoding="UTF-8"?>
<!DOCTYPE svg PUBLIC "-//W3C//DTD SVG 1.1//EN" "http://www.w3.org/Graphics/SVG/1.1/DTD/svg11.dtd">
<!-- Creator: CorelDRAW 2017 -->
<svg xmlns="http://www.w3.org/2000/svg" xml:space="preserve" width="830mm" height="490mm" version="1.1" style="shape-rendering:geometricPrecision; text-rendering:geometricPrecision; image-rendering:optimizeQuality; fill-rule:evenodd; clip-rule:evenodd"
viewBox="0 0 83000 49000"
 xmlns:xlink="http://www.w3.org/1999/xlink">
 <defs>
  <style type="text/css">
   <![CDATA[
    .str0 {stroke:black;stroke-width:7.62}
    .fil0 {fill:#304291}
    .fil2 {fill:#EC6935;fill-rule:nonzero}
    .fil1 {fill:white;fill-rule:nonzero}
   ]]>
  </style>
 </defs>
 <g id="Слой_x0020_1">
  <metadata id="CorelCorpID_0Corel-Layer"/>
  <g id="_1719982144896">
   <rect class="fil0 str0" x="186" y="359" width="82973" height="48260"/>
   <path class="fil1" d="M49629 39219c1711,0 2712,-563 2712,-1516 0,-953 -1157,-1195 -2916,-1721 -2547,-709 -5833,-1624 -5833,-4860 0,-2800 2352,-4511 6056,-4511 2092,-49 4142,595 5833,1828l-1838 2557c-1148,-934 -2584,-1442 -4063,-1439 -1556,0 -2547,564 -2547,1400 0,837 1157,1313 3189,1867 2508,680 5619,1555 5619,4666 0,2916 -2304,4666 -6251,4666 -2378,71 -4701,-720 -6542,-2226l1876 -2557c1273,1197 2958,1859 4705,1847z"/>
   <path class="fil1" d="M37186 26865l0 8923c100,1850 -1319,3430 -3168,3529 -1849,98 -3430,-1319 -3529,-3169 -7,-120 -7,-241 0,-361l0 -8933 -3461 0 0 9051c0,3829 2557,6298 6805,6298 4248,0 6804,-2479 6804,-6308l0 -9040 -3451 10z"/>
   <polygon class="fil1" points="68001,26846 68001,34526 61789,34526 61789,26846 58348,26855 58348,41999 61789,41999 61789,37820 68001,37820 68001,41991 71433,41991 71433,26846 "/>
   <polygon class="fil1" points="74756,41981 78188,41981 78188,26836 74756,26836 "/>
   <path class="fil2" d="M14547 34613c622,-4259 -4384,-7281 -4384,-7281 367,623 488,1361 340,2070l1876 2606 -2109 -1643c-86,260 -190,513 -311,759l2168 3013 -2595 -2022c-81,222 -146,449 -194,680l2255 3140 -2323 -1807c291,1670 1295,3133 2751,4004 -1490,-819 -3263,-953 -4860,-369l2741 1108 -3888 -369c-175,159 -340,328 -496,505l3052 1225 -3684 -349c-151,224 -317,440 -496,641l2479 974 -3198 -312c-534,481 -1226,748 -1944,749 0,0 5132,2799 8486,127 563,-450 1096,-936 1595,-1458 1053,-1095 1824,-2429 2245,-3888 214,-687 380,-1389 496,-2100z"/>
   <path class="fil1" d="M19398 32882c-2041,-554 -3198,-973 -3198,-1866 0,-895 972,-1400 2556,-1400 794,0 1581,144 2323,428 1149,426 2442,28 3149,-974l437 -613c-1695,-1223 -3742,-1864 -5832,-1826 -2624,0 -4569,865 -5482,2352 1460,1525 2171,3618 1944,5716l0 194c1045,491 2136,879 3256,1157 1798,515 2916,759 2916,1720 0,962 -972,1517 -2712,1517 -1546,16 -3051,-496 -4267,-1449 -386,986 -921,1907 -1585,2732 1722,1101 3731,1669 5774,1632 3956,0 6270,-1720 6260,-4675 88,-3092 -3023,-3966 -5541,-4646z"/>
   <path class="fil1" d="M58737 15395l-2546 0 0 -6202 2528 0c1713,0 3100,1389 3100,3101 0,1712 -1387,3101 -3100,3101l19 0zm204 -9119l-6095 0 0 14980 3344 0 0 -2917 2731 0c3324,0 6018,-2694 6018,-6017 0,-3323 -2694,-6017 -6018,-6017l20 -30z"/>
   <path class="fil1" d="M76963 14529c105,2027 -1454,3754 -3480,3858 -2027,106 -3754,-1453 -3859,-3480 -7,-126 -7,-252 0,-378l0 -1418c105,-2027 1832,-3585 3859,-3482 1880,97 3382,1600 3480,3482l0 1418zm-3675 -8360c-3739,0 -6778,3017 -6805,6757l0 1798c27,3739 3066,6756 6805,6756 3651,80 6674,-2813 6755,-6464 1,-43 1,-85 1,-128l0 -1945c-16,-3726 -3029,-6748 -6756,-6775z"/>
   <path class="fil1" d="M44827 15395l-2527 0 0 -6202 2527 0c1713,0 3101,1389 3101,3101 0,1712 -1388,3101 -3101,3101zm204 -9119l-6095 0 0 14980 3354 0 0 -2917 2731 0c3323,0 6017,-2694 6017,-6017 0,-3323 -2694,-6017 -6017,-6017l10 -30z"/>
   <path class="fil1" d="M27320 15414l2226 -4725 2226 4725 -4452 0zm9721 2916l-5833 -12073 -3363 0 -5832 12073 0 2916 2469 0 1390 -2916 7213 0 1390 2916 2479 0 88 -2916z"/>
   <polygon class="fil1" points="24413,6257 20554,6267 17006,13780 13468,6267 9609,6257 15305,18144 15305,21285 18707,21285 18707,18155 "/>
  </g>
 </g>
</svg>
