<?xml version="1.0" encoding="UTF-8"?>
<!DOCTYPE svg PUBLIC "-//W3C//DTD SVG 1.1//EN" "http://www.w3.org/Graphics/SVG/1.1/DTD/svg11.dtd">
<!-- Creator: CorelDRAW 2017 -->
<svg xmlns="http://www.w3.org/2000/svg" xml:space="preserve" width="2511mm" height="800mm" version="1.1" style="shape-rendering:geometricPrecision; text-rendering:geometricPrecision; image-rendering:optimizeQuality; fill-rule:evenodd; clip-rule:evenodd"
viewBox="0 0 251100 80000"
 xmlns:xlink="http://www.w3.org/1999/xlink">
 <defs>
  <style type="text/css">
   <![CDATA[
    .fil0 {fill:#2F4172;fill-rule:nonzero}
   ]]>
  </style>
 </defs>
 <g id="Слой_x0020_1">
  <metadata id="CorelCorpID_0Corel-Layer"/>
  <g id="_1359846572768">
   <path class="fil0" d="M134525 16116c-158,5383 -403,10569 -2876,15372l11275 0 0 -15372 -8399 0zm14383 -1272c-2876,1597 -2876,1597 -2876,5002l0 9890c70,579 211,1148 416,1696 590,-254 1180,-495 1769,-777 252,-151 488,-326 705,-523l1554 1413 -431 0c-374,2486 -734,4987 -1122,7615l-2244 0 0 -4945c-647,0 -1107,-99 -1582,-99l-15418 0c-1280,0 -1683,382 -1683,1597 -40,1139 -145,2276 -316,3405 -2273,438 -2373,367 -2373,-1639l0 -5764c4013,113 4818,-2826 5365,-5496 504,-3003 836,-6031 992,-9071 158,-1653 -1438,-1215 -2230,-1682 -489,-283 -1251,-579 -1338,-989 -230,-1186 431,-1681 1668,-1497 5811,925 11736,925 17547,0 1827,-325 1122,1186 1597,1865z"/>
   <path class="fil0" d="M175399 12952l834 1752c-129,170 -201,367 -316,410 -2560,777 -3006,2571 -2876,4987 215,3194 0,6401 0,9608 73,595 203,1182 388,1752 590,-240 1194,-466 1784,-735 264,-163 509,-352 734,-565l1597 1413 -489 0c-360,2444 -734,4889 -1108,7488l-2302 0 0 -5044 -1812 0 -11247 0c-2013,0 -4027,325 -6040,537 -805,99 -1438,212 -1640,-862 -201,-1073 158,-1413 1007,-1525 1725,-226 1999,-1230 1956,-2826 -115,-3579 -115,-7153 0,-10723 0,-1554 -273,-2642 -1855,-3179 -458,-211 -888,-477 -1280,-791l1007 -2190c2617,2148 5264,1554 7997,0l892 2176c-201,184 -302,339 -431,367 -3164,607 -3725,2642 -3524,5496 259,3547 0,7065 0,10837l11506 0 0 -5171 0 -7884c0,-1286 -245,-2105 -1611,-2459 -834,-281 -1642,-631 -2416,-1045l820 -2120c1297,617 2677,1050 4099,1286 1486,-114 2945,-448 4329,-989z"/>
   <path class="fil0" d="M209989 22022l7306 0c1589,0 2877,-1265 2877,-2826 230,-1978 -532,-3603 -2302,-3759 -2400,-111 -4806,-21 -7191,268 -288,0 -748,594 -762,933 58,1766 101,3490 101,5426l-29 -42zm0 2628l0 6344c0,283 273,777 504,820 2864,913 5936,992 8845,226 1625,-599 2611,-2224 2373,-3914 72,-1730 -1227,-3221 -2977,-3420 -2804,-170 -5681,-14 -8716,-14l-29 -42zm-5350 10413l-647 -2585c3625,0 3179,-2303 3136,-4535 0,-3363 -101,-6740 0,-10102 0,-1413 -417,-2148 -1798,-2402 -892,-170 -1438,-480 -1093,-1596 345,-1116 906,-1088 1798,-820 1703,431 3489,431 5192,0 2042,-378 4126,-497 6198,-353 3178,-27 5775,2481 5803,5603 16,1829 -871,3553 -2379,4627 273,184 460,353 676,466 2078,1019 3294,3199 3049,5468 -61,2332 -1524,4408 -3725,5284 -2282,894 -4773,1144 -7192,721 -2963,-212 -5868,-1187 -9018,226z"/>
   <path class="fil0" d="M70724 25879c-63,1110 -208,2215 -431,3306 -489,1865 -144,3307 1769,4027 -820,2091 -805,2063 -2762,1328 -586,-249 -1217,-379 -1855,-381 -5077,155 -10068,339 -15202,608 -1769,99 -1208,-1159 -1525,-1936 144,-127 201,-225 302,-254 2747,-1003 2747,-1003 2747,-3858 0,-3574 -86,-7149 0,-10723 0,-1611 -432,-2473 -2071,-2642 -298,-78 -587,-188 -863,-325 0,-2218 0,-2133 2201,-1907 5753,608 11506,1003 17259,-480 820,947 1208,1809 -374,2642 -447,374 -705,921 -705,1498 22,1210 113,2418 273,3617l-2301 325c-244,-1130 -532,-2232 -690,-3348 -158,-1116 -532,-1413 -1640,-1413 -2675,71 -5336,0 -8140,0l0 6019 8097 0 0 2458 -8068 0 0 7065 10456 0 1151 -5963 2373 339z"/>
   <path class="fil0" d="M180390 34427c0,-141 -201,-523 -302,-933 -29,-329 -29,-660 0,-989 3337,141 3006,-2119 2963,-4323 -77,-3579 -77,-7153 0,-10723 176,-913 -433,-1793 -1362,-1965 -25,-5 -50,-9 -76,-13 -1884,-509 -1870,-565 -1108,-2274 4185,113 8270,325 12369,297 1942,0 3869,-537 5753,-706 547,12 1066,241 1438,636 547,565 374,1186 -388,1497 -1237,509 -1439,1413 -1137,2558 139,964 216,1937 230,2910l-2272 339c-244,-1201 -503,-2317 -705,-3433 -173,-876 -489,-1413 -1568,-1328 -2704,85 -5422,0 -8255,0l0 6019 8155 0 0 2458 -8184 0 0 7065 10485 0c258,-1314 532,-2685 805,-4041 431,-2176 431,-2176 2733,-1413 -173,1413 -302,2826 -561,4239 -324,877 96,1851 964,2232 748,367 1121,834 561,1738 -561,904 -1079,692 -1870,438 -1047,-361 -2142,-566 -3250,-608 -5020,85 -10097,226 -15418,325z"/>
   <path class="fil0" d="M102049 34738l-431 -1879c187,-170 259,-269 345,-297 2704,-974 2704,-974 2704,-3899l0 -11204c0,-1060 -259,-1766 -1438,-1922 -1726,-212 -2028,-1060 -1194,-2557 218,-69 448,-93 676,-71 4761,1145 9608,495 14383,608 796,-44 1579,-221 2315,-523 1913,-608 1913,-622 2532,1497 -3438,1032 -1280,3801 -1784,5920l-2128 325c-273,-1258 -475,-2444 -805,-3589 -115,-424 -547,-1074 -863,-1074 -2876,-85 -5854,0 -8874,0l0 6005 8097 0 0 2458 -7910 0 0 7065 9794 0c302,0 734,-537 834,-904 273,-1060 374,-2176 590,-3249 431,-2105 446,-2105 2747,-1413 -173,1300 -259,2670 -532,3984 -273,1314 -201,2049 1007,2628 734,353 977,834 475,1639 -503,805 -849,820 -1683,565 -1247,-418 -2552,-647 -3869,-678 -4761,113 -9507,396 -14253,608l-734 -42z"/>
   <path class="fil0" d="M243773 25569c-1280,-3179 -2402,-6104 -3624,-8986 -437,-651 -1329,-832 -1992,-402 -163,105 -303,242 -410,402 -1251,2924 -2416,5878 -3653,8944l1438 0c2646,56 5250,42 8212,42l29 0zm-8629 -9509l-3394 -1088 532 -2034 1108 0c2287,198 4559,509 6846,565 952,-89 1831,507 2085,1413 1841,4535 3668,9085 5753,13535 964,1733 2075,3383 3322,4931l-1294 1569c-2560,-3108 -5163,-579 -7868,-170l-863 -1894 4416 -1879c-489,-2897 -619,-3010 -3409,-3010l-6745 0c-2776,0 -2776,0 -3639,2939l3883 1879c-489,2134 -518,2204 -2330,1413 -2100,-848 -4113,-1554 -5925,664l-1438 -2007c4487,-2924 4832,-8053 7033,-12151 691,-1385 1223,-2995 1928,-4677z"/>
   <path class="fil0" d="M84646 16046c-244,3179 -345,6118 -705,9028 -237,1876 -670,3722 -1295,5510 -1323,3843 -4818,5327 -8931,3829l417 -2021c230,-85 388,-198 518,-170 3164,523 4962,-269 5753,-4126 676,-3377 849,-6852 1323,-10285 187,-1413 -403,-1894 -1668,-2105 -705,-158 -1397,-365 -2071,-622 302,-2331 288,-2204 2359,-1963 5514,759 11112,710 16611,-141l1021 -113c167,321 315,651 446,988 98,272 175,551 230,834 -101,170 -158,325 -216,325 -2876,367 -3049,2162 -2876,4493 187,3208 129,6415 0,9622 -295,1236 453,2481 1697,2826 577,238 1131,527 1654,862l-906 1992c-275,-6 -548,-59 -805,-155 -1859,-1191 -4226,-1310 -6198,-311 -1956,820 -2100,636 -2517,-1653 1101,-360 2177,-789 3221,-1285 535,-301 909,-818 1021,-1413 86,-4239 0,-8477 0,-12617 0,-424 -489,-1173 -777,-1173 -2373,-198 -4804,-155 -7306,-155z"/>
   <path class="fil0" d="M11914 32548c4584,249 8506,-3200 8759,-7704 17,-300 17,-601 0,-901 320,-4546 -3172,-8486 -7800,-8800 -276,-19 -553,-24 -829,-16 -4895,236 -8668,4327 -8427,9135 222,4429 3793,7988 8298,8271l0 14zm0 2515c-6036,313 -11188,-4241 -11506,-10171 -20,-377 -20,-755 0,-1132 71,-6187 5234,-11147 11532,-11078 25,0 50,1 75,1 6095,-255 11246,4392 11506,10379 14,308 14,617 0,924 -29,6149 -5128,11109 -11387,11080 -73,0 -146,-1 -219,-3z"/>
   <path class="fil0" d="M45742 30613l1136 1823c-331,294 -687,558 -1064,791 -3905,2255 -8678,2518 -12815,707 -4163,-1913 -6618,-6223 -6098,-10709 374,-4889 3193,-8816 7594,-9890 2241,-423 4526,-570 6803,-438 1928,0 3840,283 5753,452l216 -424 662 2204c-4488,664 -3093,4620 -4315,7291l-2301 -155c230,-1851 388,-3603 647,-5341 158,-1003 -201,-1413 -1208,-1569 -4833,-946 -9075,1244 -10399,5468 -1438,4648 489,9452 4602,11035 3116,1117 6570,860 9478,-706l992 -495c0,0 43,-14 317,-42z"/>
   <path class="fil0" d="M52550 51621c336,-42 675,-76 1013,-52 316,23 499,-13 575,-295 176,-660 368,-1315 572,-2026 40,-139 -72,-279 -219,-273 -439,20 -838,42 -1238,42 -305,0 -460,112 -539,409 -156,588 -345,1169 -530,1750 -98,309 -84,500 365,445z"/>
   <path class="fil0" d="M60382 62890c-429,382 -893,859 -1516,666 -639,-197 -668,-870 -794,-1421 -43,-184 -50,-377 -73,-553 42,-2192 721,-4129 2320,-5679 1415,-1373 2489,-1130 3301,645 362,793 386,1474 -119,2246 -942,1441 -1809,2929 -3118,4095zm-16664 -2905c-1829,475 -3379,382 -4157,-135 -216,-145 -790,-527 -76,-1650l-9 -5c226,-389 447,-722 641,-956 424,-512 909,-962 1535,-1233 878,-381 1371,-207 1765,651 498,1086 517,2205 301,3329zm-4729 4013c-768,-398 -1113,-1880 -651,-3282 123,123 254,236 396,331 679,452 1654,693 2804,693 535,0 1109,-57 1707,-164 -492,825 -2381,3394 -4256,2423zm1412 -13721c531,-1577 923,-2901 1494,-4474 171,-470 560,-1167 1059,-996 405,139 415,755 339,1132 -439,2179 -1839,4183 -3390,5948 165,-536 318,-1077 498,-1610zm18491 24286c-555,1639 -1376,2384 -1905,2384l-4 0c-340,-2 -669,-368 -858,-955 -719,-2228 1729,-5150 4652,-7661 -816,2777 -1576,5320 -1886,6232zm-4638 2012c462,1432 1477,2292 2715,2301l19 0c1572,0 2980,-1383 3766,-3703 419,-1238 1609,-5268 2680,-8938 1604,-1172 3114,-2129 4109,-2696l-985 -1667c-305,173 -1100,638 -2143,1313 237,-693 475,-1393 709,-2165 656,-2164 1317,-4706 1971,-6871 52,-172 310,-441 -109,-535 -900,-202 -1506,96 -1963,915 -67,119 -134,238 -201,357 -213,-151 -262,-552 -330,-665 -667,-1096 -1782,-1208 -3032,-876 -587,155 -1128,412 -1619,763 -1603,1143 -2661,2628 -3261,4390 -962,1424 -2035,2767 -3282,3975 -429,415 -872,820 -1427,1076 -429,198 -664,53 -692,-401 -14,-231 -4,-466 23,-695 124,-1051 363,-2081 653,-3097 470,-1646 947,-3008 1426,-4651 57,-197 354,-761 -161,-807 -1336,-120 -1599,-40 -1933,996 -1631,2091 -3569,3500 -5420,4352 122,-1409 -114,-2768 -843,-4036 -670,-1166 -1801,-1562 -3091,-1167 -1100,336 -1868,1100 -2557,1954 -320,398 -915,1229 -915,1229 0,0 110,-750 422,-1713 144,-442 343,-777 698,-1089 2496,-2181 4556,-4565 5397,-7789 247,-948 365,-2156 -159,-3078 -547,-963 -1549,-1230 -2523,-682 -418,236 -745,569 -1026,949 -845,1143 -1365,2441 -1804,3768 -1339,4048 -3221,10933 -3424,12361 -244,1712 -67,4470 1837,5489 2881,1543 6627,-1042 7683,-4366 9,-40 3265,-1691 4796,-3054 -247,983 -1021,4199 -1094,4845 -107,943 -135,1941 755,2538 949,636 1863,145 2688,-401 1242,-821 2258,-1887 3228,-2995 68,-77 140,-160 215,-245 31,668 166,1330 443,1981 719,1687 2310,2145 3835,1111 626,-425 1142,-963 1605,-1548 174,-220 339,-446 507,-669 -215,742 -451,1554 -696,2396 -4007,2971 -8788,7510 -7488,11542z"/>
   <path class="fil0" d="M170418 51288c-353,3781 -1833,4959 -2352,5427 -583,526 -1323,906 -2114,965 -328,21 -672,-12 -961,-171 -387,-209 -630,-606 -753,-1024 -166,-543 -145,-1128 -47,-1688 12,-62 26,-125 38,-188 1310,-1090 2791,-2452 3046,-3246 268,-844 132,-1475 -123,-1935 234,-288 489,-543 800,-739 604,-385 1344,0 1786,417 277,259 455,531 553,890 114,422 166,861 127,1291zm-29619 4086c-5,12 -9,21 -13,34 -166,476 -310,789 -476,1103 -307,635 -591,936 -966,1546 -621,744 -1374,1295 -2450,1404 -1127,117 -1795,-405 -1965,-1504 -110,-752 -9,-1463 247,-2168 1093,-1346 2314,-3042 2314,-3651 0,-276 -132,-435 -319,-523 515,-748 1251,-1353 2178,-1291 778,55 1420,635 1680,1551 81,288 119,589 170,840 22,940 -106,1813 -400,2662zm-38380 1867c-5,13 -9,21 -13,34 -166,476 -311,789 -476,1103 -213,439 -417,814 -643,1186 -238,393 -532,752 -880,1049 -591,502 -1055,631 -1884,714 -957,100 -1824,-559 -1969,-1495 -157,-1016 81,-1956 562,-2917 511,-1366 1119,-2440 1314,-2824 502,-986 1365,-1985 2539,-1901 69,5 128,17 192,29 -158,1069 -315,3480 1331,4784 -26,79 -43,159 -72,238zm-19590 -15810c183,-338 404,-877 842,-735 438,142 280,714 238,1091 -242,2072 -1187,3877 -2360,5578 -421,614 -868,1220 -1472,1721 766,-2603 1451,-5239 2752,-7654zm134268 6347c-332,-200 -527,-200 -749,163 -617,1007 -1259,2001 -1926,2983 -932,1366 -1863,2741 -3101,3869 -222,200 -472,497 -804,338 -357,-172 -272,-556 -272,-873 0,-100 17,-200 26,-301 136,-1296 455,-2553 795,-3806 358,-1271 732,-2532 1085,-3802 39,-137 260,-430 -166,-409 -540,21 -1323,8 -1607,125 -285,117 -413,1120 -906,2348 -166,426 -863,1742 -995,1951 -876,1325 -1663,2712 -2709,3924 -328,376 -668,726 -1093,990 -787,493 -1242,351 -1587,-493 -166,-418 -247,-857 -268,-1467 9,-584 77,-1166 196,-1734 736,-3226 1629,-4642 1710,-5068 140,-769 -604,-606 -1208,-497 -294,55 -863,1496 -1625,2975 -119,230 -1123,2156 -1595,2791 -1012,1366 -1429,1930 -2586,2917 -1008,861 -1544,898 -2526,-13 -557,-514 -995,-1128 -1455,-1721 -123,-155 -182,-272 -174,-372 -128,-175 -251,-351 -375,-527l4474 -5352c281,-343 251,-840 -72,-1141 -324,-305 -830,-314 -1161,-21 -149,130 -2250,1985 -4296,4395 0,-17 -9,-34 -9,-50 -47,80 -98,155 -144,234 -217,259 -434,526 -647,798 340,-1525 723,-3029 1093,-4542 17,-71 38,-134 63,-197 -42,-150 -76,-304 -123,-455 -5,-5 -5,-8 -5,-13 -484,-247 -1450,38 -1727,409 -447,1730 -944,3414 -2067,4889 -898,1187 -1939,2123 -3304,2720 -141,62 -268,205 -455,71 238,-601 506,-1190 702,-1800 434,-1354 804,-2712 396,-4149 -426,-1500 -1603,-2281 -3096,-2001 -646,121 -1161,501 -1642,915 -1233,1066 -2126,2395 -2985,3752 -175,279 -289,606 -596,844 -85,-238 13,-401 56,-568 340,-1304 676,-2607 1042,-3903 106,-380 97,-534 -383,-501 -1293,87 -1293,67 -1616,1308 -59,234 -131,468 -192,698 -144,581 -450,1504 -705,2043 -196,414 -417,815 -672,1195 -966,990 -2922,2687 -4185,3572 719,-965 1365,-3455 1285,-4554 -13,-175 -30,-351 -56,-522 -178,-1333 -927,-2536 -2220,-3075 -51,-21 -110,-38 -166,-50 -2467,-568 -3228,217 -3679,1433 -149,-146 -323,-255 -506,-292 -421,-75 -706,372 -855,694 -140,309 -1055,2294 -1370,2983 -902,1529 -2591,3639 -3564,4826 -47,55 -94,113 -141,163 -221,242 -464,464 -710,672 -161,138 -336,380 -574,235 -188,-113 -111,-368 -81,-565 56,-317 115,-635 183,-948 442,-1989 1084,-3928 1433,-5938 107,-618 204,-1228 -30,-1850 -89,-235 -281,-418 -515,-522 -1229,-556 -1506,-213 -1837,67 22,50 30,104 47,154l-59 -29c-1480,2883 -3543,6434 -5321,8690 158,-727 370,-1446 613,-2152 8,-13 17,-21 21,-33 243,-1095 553,-2152 851,-3213 200,-719 366,-1450 229,-2206 -16,-75 -63,-147 -128,-192 -2301,-1634 -2658,-660 -2445,247 -1008,1972 -2510,4896 -4164,7027 -1276,1638 -2110,2377 -2527,2632 -25,-200 -59,-1893 -59,-1893l-446 0c-647,5 -1604,205 -2679,707 982,-1041 1199,-2206 1293,-2616 238,-1061 323,-2110 175,-3183 -324,-2277 -1973,-3623 -4121,-3255 -1867,322 -3148,1396 -3803,3155 -110,305 -166,635 -328,906 -1046,1780 -2173,3506 -3492,5097l0 42c-140,167 -285,335 -443,514 -306,351 -655,665 -999,982 -132,117 -285,288 -481,192 -175,-87 -154,-267 -128,-422 39,-251 73,-501 124,-748 85,-405 183,-811 280,-1216 438,-1583 1323,-5206 1740,-6735 336,-1236 331,-1216 -957,-1166 -518,21 -774,176 -863,694 -47,259 -132,647 -243,1120 -2386,4667 -5014,5307 -6214,5323 -51,-62 -60,-75 -110,-142 497,-1805 1004,-3610 1497,-5418 340,-1237 332,-1216 -957,-1166 -518,21 -774,179 -863,693 -336,1976 -1297,3673 -2462,5277 -894,1237 -2076,2073 -3535,2649 -42,-267 81,-413 153,-572 387,-890 710,-1801 919,-2749 234,-1065 285,-2118 -153,-3150 -693,-1621 -2408,-2135 -3913,-1174 -787,497 -1459,1220 -2041,1926 -825,999 -1484,2105 -2173,3196 -51,-21 -102,-37 -153,-58 47,-188 94,-376 145,-560 140,-535 280,-1070 421,-1604 110,-360 187,-677 238,-924 120,-460 243,-915 362,-1375 34,-133 196,-385 -38,-397 -506,-25 -1029,-8 -1523,100 -306,71 -226,477 -311,732 -46,137 -119,388 -204,706 0,0 -128,480 -311,1195 -553,1120 -1480,2352 -2888,2457 -183,17 -374,-8 -557,-50 30,-230 51,-460 64,-689 0,-5 4,-8 4,-13 659,-2565 -574,-3960 -897,-4153 -336,-200 -660,-225 -889,-209 -668,-401 -1489,-556 -2399,-397 -1620,280 -2692,1166 -3471,2511 -4,4 -9,8 -9,17 -4,4 -9,8 -9,12 -3661,6547 -6201,9417 -7273,9531 -183,17 -426,8 -740,-155 -604,-317 -757,-1086 -689,-1755 73,-719 277,-1788 617,-3129 404,-1296 1906,-6071 2543,-7796 766,-2089 3382,-8235 3382,-8235l-2221 37c-1012,1935 -2097,3790 -3228,5516 -1165,1771 -2229,3296 -3169,4529 -744,982 -1421,1784 -2007,2377 -592,602 -1123,1078 -1587,1425 -484,360 -906,594 -1284,710 -966,297 -1744,225 -2258,-267 -234,-222 -383,-514 -455,-874 -17,-267 9,-551 102,-852 4,-8 4,-17 9,-25 17,-58 38,-117 59,-175 17,-42 17,-83 12,-121 85,-342 175,-689 256,-1032 89,-376 263,-644 561,-894 2207,-1834 3973,-4016 5193,-6602 583,-1236 990,-2524 1004,-3898 9,-1141 -566,-2060 -1467,-2377 -927,-330 -1808,-21 -2594,903 -583,685 -1029,1458 -1412,2264 -1314,2770 -2092,5716 -2858,8666 -93,359 -259,597 -583,785 -1608,944 -3318,1584 -5180,1806 -242,25 -429,62 -480,351 -107,614 -243,1220 -375,1884 1999,-134 3820,-727 5665,-1651 -76,414 -119,811 -115,1187 39,2072 1046,3021 3177,2983 706,-12 1463,-205 2246,-581 812,-385 1603,-874 2356,-1450 757,-577 1471,-1241 2126,-1964 655,-731 1212,-1433 1646,-2093l1472 -2235c-196,531 -400,1087 -613,1671 -2811,7771 -2947,10350 -2241,11532 711,1186 1927,1563 2995,1563 119,0 238,12 353,-21 1943,-514 3177,-1880 4899,-4726 30,924 370,1826 1059,2457 940,856 2254,1107 3700,597 2862,-1011 4160,-3902 4623,-5260 230,25 481,42 766,42 102,0 213,-5 328,-13 698,-50 1293,-238 1807,-510 -344,1333 -625,2432 -634,2465 -1212,4705 -2437,9414 -3653,14122 -200,773 301,1362 1114,1316 481,-25 681,-188 778,-714 477,-2453 966,-4902 1744,-7274 681,-2056 885,-4300 1693,-6313 1076,-2691 2769,-5156 4815,-7257 480,-493 987,-970 1633,-1254 510,-226 957,-37 1110,485 77,267 102,560 94,840 -35,1433 -507,2762 -1021,4086 -187,476 -484,660 -990,735 -1370,205 -2684,602 -3841,1383 -1068,723 -1012,1926 97,2599 281,172 592,275 919,338 1400,267 2450,-360 3339,-1308 396,-418 906,-719 1463,-882 1344,-393 2599,-994 3705,-1859 324,-255 630,-527 1063,-890 -289,1065 -540,1972 -787,2883 -370,1362 -370,1341 1059,1283 510,-21 749,79 855,-414 34,-143 68,-288 102,-435l34 8 949 -3062c1110,50 3160,-217 5291,-2327 -175,635 -336,1199 -464,1642 -9,5 -17,8 -21,13 -47,167 -90,334 -132,501 -192,761 -383,1529 -306,2328 128,1308 999,1805 2199,1240 693,-326 1280,-802 1820,-1324 21,-21 46,-50 68,-71 42,-42 85,-84 128,-125l0 -8c502,-539 1157,-1304 1625,-1793 63,175 110,301 148,430 706,2235 2655,3339 4862,2486 1041,-401 1289,-430 2079,-923 847,-363 2344,-1466 2910,-1454 25,757 226,1609 999,1913 166,63 345,109 553,105 783,-12 1948,-685 4070,-3418 1106,-1425 2135,-3154 3003,-4751 -549,2077 -1102,4145 -1638,6221 -357,1375 -345,1358 1123,1287 362,-17 603,-125 791,-363 1769,-1512 4036,-4988 5945,-8410 -532,1935 -1114,3856 -1459,5837 -110,640 -196,1279 47,1914 297,773 859,1048 1654,798 783,-251 1395,-752 2003,-1274l128 -125c413,-460 1582,-1671 1986,-2148 93,263 140,389 183,523 693,2206 2581,3196 4814,2477 1097,-355 1672,-568 2484,-1258 608,-514 4334,-3238 5448,-4053 162,217 -383,1596 -446,1838 -200,777 -404,1554 -604,2332 -668,3201 -1650,6380 -2479,9543 -128,485 -73,673 472,577 294,-55 600,-88 902,-63 459,38 608,-175 706,-572 736,-3038 829,-3539 1586,-6572 392,-1563 634,-3188 1238,-4672 1076,-2657 2679,-5034 4691,-7123 481,-502 987,-978 1616,-1295 612,-309 1093,-75 1238,589 97,439 93,882 29,1324 -170,1187 -540,2315 -974,3426 -192,497 -502,694 -1034,777 -1365,205 -2684,602 -3832,1387 -1042,714 -991,1888 85,2569 277,176 583,285 910,351 1068,217 2067,-30 2778,-786 893,-944 1977,-1441 3181,-1797 175,-50 336,-146 506,-222 1149,-493 2135,-1224 3152,-2165 -239,1020 -434,1881 -634,2741 -340,1433 -344,1429 1174,1241 251,-30 382,-100 467,-368 81,-247 175,-484 277,-723 60,-71 115,-155 149,-247 59,-167 128,-334 204,-501 362,-698 778,-1371 1161,-2060 25,-42 55,-84 85,-126 243,130 311,351 430,527 633,940 1301,1847 2190,2574 991,807 2356,869 3449,200 830,-505 1425,-1149 1830,-1600 421,-472 1216,-1325 1216,-1325 0,0 251,1379 523,2010 744,1683 2403,2156 3922,1098 1165,-798 1948,-1930 2747,-3041 123,-172 174,-422 484,-472 -55,644 -136,1266 -72,1897 166,1705 1327,2332 2884,1529 987,-514 1735,-1304 2445,-2140 1429,-1696 2625,-3547 3781,-5423 540,-877 528,-873 -379,-1425z"/>
  </g>
 </g>
</svg>
