<?xml version="1.0" encoding="UTF-8"?>
<!DOCTYPE svg PUBLIC "-//W3C//DTD SVG 1.1//EN" "http://www.w3.org/Graphics/SVG/1.1/DTD/svg11.dtd">
<!-- Creator: CorelDRAW 2017 -->
<svg xmlns="http://www.w3.org/2000/svg" xml:space="preserve" width="615mm" height="230mm" version="1.1" style="shape-rendering:geometricPrecision; text-rendering:geometricPrecision; image-rendering:optimizeQuality; fill-rule:evenodd; clip-rule:evenodd"
viewBox="0 0 61500 23000"
 xmlns:xlink="http://www.w3.org/1999/xlink">
 <defs>
  <style type="text/css">
   <![CDATA[
    .str0 {stroke:#2B2A29;stroke-width:20}
    .fil0 {fill:#2E2D61}
    .fil1 {fill:#FEFEFE;fill-rule:nonzero}
   ]]>
  </style>
 </defs>
 <g id="Слой_x0020_1">
  <metadata id="CorelCorpID_0Corel-Layer"/>
  <g id="_1720041043296">
   <polygon class="fil0 str0" points="144,810 61274,810 61274,22841 144,22841 "/>
   <path class="fil1" d="M8910 8877c0,0 -4763,2756 -3915,6396 991,4253 12983,5436 12983,5436 0,0 -8762,-2143 -10041,-6428 -991,-3198 973,-5404 973,-5404zm-5837 -6752c0,0 5628,1631 7275,4477 1231,1855 -624,4029 -624,4029 0,0 3837,-2015 3134,-4253 -704,-2238 -6683,-3901 -9785,-4253zm7227 18094c-4659,0 -8450,-3791 -8450,-8450 0,-3461 2092,-6441 5077,-7746 -125,-68 -249,-134 -374,-198 -2975,1409 -5038,4440 -5038,7944 0,4845 3941,8786 8786,8786 927,0 1820,-144 2659,-411 -220,-52 -441,-106 -664,-164 -640,156 -1308,239 -1995,239zm0 -16900c4659,0 8450,3791 8450,8450 0,3187 -1774,5965 -4385,7405 132,56 263,110 392,163 2588,-1530 4328,-4349 4328,-7568 0,-4845 -3941,-8786 -8786,-8786 -591,0 -1168,60 -1727,172 214,76 426,155 634,236 358,-46 722,-72 1092,-72zm17318 -331l0 6916 -576 0 0 -6412 -2201 0 -83 2631c-42,1409 -173,2391 -393,2947 -220,556 -622,834 -1208,834l-181 0 0 -494 156 0c374,0 634,-225 778,-675 145,-450 237,-1320 276,-2612l102 -3135 3328 0zm5427 4432c0,852 -188,1495 -564,1931 -376,435 -899,653 -1569,653 -657,0 -1169,-219 -1535,-655 -366,-437 -549,-1080 -549,-1928l0 -1938c0,-849 183,-1493 549,-1933 366,-440 878,-660 1535,-660 667,0 1189,221 1567,663 377,442 566,1085 566,1931l0 1938zm-576 -1952l0 0c0,-694 -133,-1210 -398,-1551 -265,-340 -651,-511 -1159,-511 -491,0 -865,170 -1120,511 -255,340 -383,857 -383,1551l0 1952c0,700 128,1221 383,1563 255,342 629,513 1120,513 508,0 894,-170 1159,-511 265,-340 398,-862 398,-1565l0 -1952zm2508 -2479l1854 6075 20 0 1854 -6075 742 0 0 6916 -571 0 0 -3035 59 -2836 -15 -5 -1889 5875 -381 0 -1884 -5875 -15 5 59 2836 0 3035 -566 0 0 -6916 732 0zm9138 503l-2796 0 0 2498 1381 0c602,0 1061,173 1376,520 316,347 473,823 473,1427 0,608 -159,1088 -476,1439 -317,351 -775,527 -1374,527l-1962 0 0 -6916 3377 0 0 503zm-2796 2997l0 0 0 2921 1381 0c436,0 757,-137 964,-411 207,-274 310,-631 310,-1071 0,-421 -104,-766 -312,-1035 -208,-269 -529,-404 -961,-404l-1381 0zm7388 1472l-2416 0 -576 1943 -595 0 2133 -6916 517 0 2103 6916 -595 0 -571 -1943zm-2264 -499l0 0 2118 0 -1049 -3553 -15 0 -1054 3553zm4924 -423l0 2864 -576 0 0 -6916 2001 0c599,0 1057,182 1374,546 317,364 476,857 476,1477 0,627 -159,1122 -476,1484 -317,363 -775,544 -1374,544l-1425 0zm0 -499l0 0 1425 0c433,0 753,-142 961,-427 208,-285 312,-649 312,-1092 0,-450 -103,-817 -310,-1102 -207,-285 -528,-428 -964,-428l-1425 0 0 3049zm8611 3973l-576 0 0 -610 -4133 0 0 610 -576 0 0 -1104 415 0c202,-250 398,-684 588,-1301 190,-617 302,-1490 334,-2617l107 -2503 3182 0 0 6422 659 0 0 1104zm-3367 -5022l0 0c-36,922 -135,1712 -298,2373 -163,660 -364,1176 -605,1546l3031 0 0 -5918 -2045 0 -83 2000zm-28693 14355l-1411 0 0 -5833 -2121 0 0 5833 -1416 0 0 -6916 4948 0 0 6916zm6834 -1477l-1827 0 -360 1477 -1426 0 1974 -6916 1467 0 1964 6916 -1421 0 -370 -1477zm-1563 -1078l0 0 1299 0 -644 -2603 -15 0 -639 2603zm7984 76l0 2479 -1416 0 0 -6916 2466 0c714,0 1273,201 1677,603 404,402 607,940 607,1615 0,678 -202,1217 -607,1617 -404,401 -963,601 -1677,601l-1050 0zm0 -1083l0 0 1050 0c288,0 504,-105 650,-313 145,-209 218,-480 218,-812 0,-339 -73,-614 -218,-826 -145,-212 -362,-318 -650,-318l-1050 0 0 2270zm8773 -214l10 33 15 0 974 -3173 1482 0 -1949 5571c-196,472 -412,830 -647,1076 -235,245 -578,368 -1028,368 -68,0 -145,-2 -231,-7 -86,-5 -158,-9 -216,-12l-15 -1078c27,10 74,15 140,17 66,2 123,2 170,2 213,0 367,-55 462,-164 95,-109 172,-284 233,-525l66 -233 -10 0 -2050 -5016 1512 0 1081 3139zm10035 1624c-3,757 -205,1321 -604,1693 -399,372 -978,558 -1736,558 -741,0 -1310,-213 -1708,-639 -398,-426 -596,-1054 -596,-1883l0 -2066c0,-820 204,-1446 612,-1878 408,-432 972,-648 1692,-648 772,0 1349,188 1733,563 384,375 588,951 612,1726l-1416 0c17,-437 -43,-747 -180,-931 -137,-184 -387,-276 -749,-276 -308,0 -534,115 -678,344 -144,230 -216,593 -216,1090l0 2076c0,513 68,882 203,1107 135,225 365,337 690,337 338,0 581,-88 728,-264 147,-176 212,-479 195,-910l1416 0z"/>
  </g>
 </g>
</svg>
