<?xml version="1.0" encoding="UTF-8"?>
<!DOCTYPE svg PUBLIC "-//W3C//DTD SVG 1.1//EN" "http://www.w3.org/Graphics/SVG/1.1/DTD/svg11.dtd">
<!-- Creator: CorelDRAW 2017 -->
<svg xmlns="http://www.w3.org/2000/svg" xml:space="preserve" width="461mm" height="621mm" version="1.1" style="shape-rendering:geometricPrecision; text-rendering:geometricPrecision; image-rendering:optimizeQuality; fill-rule:evenodd; clip-rule:evenodd"
viewBox="0 0 46100 62100"
 xmlns:xlink="http://www.w3.org/1999/xlink">
 <defs>
  <style type="text/css">
   <![CDATA[
    .str0 {stroke:#2B2A29;stroke-width:7.62}
    .fil0 {fill:#E31E24}
   ]]>
  </style>
 </defs>
 <g id="Слой_x0020_1">
  <metadata id="CorelCorpID_0Corel-Layer"/>
  <path class="fil0 str0" d="M34866 2576c2311,-1311 3464,-1313 4440,-1370 976,-57 1588,69 1738,444 150,375 26,2076 -800,3727 -825,1651 -2601,6303 -2601,6303 0,0 -278,1157 -378,2257 -100,1100 -173,2220 -524,3721 -350,1501 -3777,6203 -3777,6203 0,0 -2551,2951 -3076,3302 -525,350 -1175,699 -575,1775 600,1076 800,2201 1226,2726 425,525 750,1301 2651,1701 1901,400 3977,200 4652,300 675,100 2814,615 2013,1841 -800,1226 -2501,900 -2501,900 0,0 -1407,-56 -1882,-256 -475,-200 -1303,-582 -1739,-682 -435,-100 -744,-251 -469,49 275,300 800,400 1126,675 325,275 1051,925 750,1251 -300,325 -1421,532 -2046,432 -625,-100 -1706,-882 -2156,-907 -450,-25 -850,-25 -1376,200 -525,225 -643,457 -1744,457 -1101,0 -1401,-200 -1651,-375 -250,-175 -779,-664 -429,-1089 350,-425 1141,-913 1741,-963 600,-50 1851,-100 2001,-200 150,-100 607,-31 182,-481 -425,-450 -1551,-2201 -1726,-2576 -175,-375 -900,-1976 -975,-2126 -75,-150 -150,-500 -975,50 -825,550 -1726,1276 -3026,1551 -1301,275 -1776,225 -1776,225 0,0 -336,-75 -443,450 -107,526 -107,1776 -107,1776 0,0 133,1352 625,1501 493,148 1266,258 2178,721 912,462 2137,1187 2399,1562 262,375 618,1183 -744,1345 -1362,162 -2905,-605 -2905,-605l-925 -475c0,0 -399,-168 -337,194 62,362 -582,1017 -582,1017 0,0 -500,850 -1137,1150 -637,300 -1237,-62 -1312,-237 -75,-175 -500,-894 -125,-1606 375,-712 487,-981 299,-893 -187,87 -439,593 -2349,931 -1804,319 -1333,-1646 -313,-2156 800,-400 1088,-688 1969,-876 881,-187 1137,-337 1175,-650 37,-312 56,-723 -732,-2185 -787,-1462 -1620,-1942 -1620,-1942 0,0 -850,-645 -1400,-720 -550,-75 -2847,-9 -3685,-197 -837,-187 -2561,-1130 -3573,-1830 -1012,-700 -1712,-1112 -1762,-1237 -50,-125 -195,-530 -58,-817 137,-287 362,-425 487,-425 125,0 187,-312 37,-337 -150,-25 -425,50 -1312,-100 -887,-150 -1925,-287 -2400,-587 -475,-300 -950,-1037 -950,-1625 0,-587 -12,-1375 1025,-3062 1037,-1687 2592,-3216 4067,-4291 1476,-1076 5127,-3377 5127,-3377 0,0 370,-98 378,-280 8,-183 32,26 -300,-250 -332,-276 -512,-300 -762,-1137 -250,-837 -223,-1562 -192,-1693 31,-131 201,-316 201,-316 0,0 473,-249 1191,-1440 718,-1191 875,-1750 1125,-1950 250,-200 949,-138 1162,-250 212,-112 670,-349 827,-560 157,-211 878,-1625 1076,-1839 198,-214 448,-213 573,-113 125,100 275,325 562,287 287,-37 278,-66 1064,-689 786,-623 1161,-1136 1611,-1148 450,-13 862,287 1125,262 262,-25 1575,-637 1912,-750 337,-112 466,-284 1575,162 1109,446 1544,208 1799,162 255,-46 1813,-537 2763,100 950,637 1145,1039 1869,1889 725,850 758,903 983,890 830,-49 1727,-367 2521,-817zm-22670 7137c37,-75 178,-1476 888,-2468 710,-991 936,-1182 1161,-1394 225,-212 287,-50 825,-250 537,-200 347,-273 713,-637 366,-364 1513,-1192 2749,-1675 1236,-483 3162,-1212 4324,-1425 1162,-212 2212,-550 4024,-412 1812,137 2466,611 2766,786 300,175 950,625 887,850 -62,225 -200,162 -425,187 -225,25 -104,26 -192,-24 -87,-50 -150,-337 -712,-600 -562,-262 -1450,-737 -2250,-750 -800,-13 -2250,-237 -3637,187 -1387,425 -1900,512 -2062,687 -162,175 -562,1062 -375,1450 187,387 587,1125 1687,1087 1100,-37 1925,-575 2112,-787 187,-212 725,-675 512,-1350 -212,-675 -550,-650 -550,-650 0,0 -412,-75 -575,112 -162,187 -200,387 -137,537 62,150 475,25 362,225 -112,200 -150,337 -612,362 -462,25 -550,-150 -625,-437 -75,-287 50,-825 425,-937 375,-112 837,-300 1375,-212 537,87 1050,13 1125,525 75,512 175,875 -237,1362 -412,487 -475,412 -325,462 150,50 575,-225 1175,-275 778,-65 2916,-437 3649,-12 237,137 275,212 150,400 -125,187 -587,75 -837,137 -250,62 -650,62 -1800,800 -1150,737 -2288,1403 -3081,3414 -793,2010 -726,2415 -514,3816 213,1401 1132,2702 2351,3502 1219,800 1829,981 3877,725 2048,-256 3506,-1814 4215,-2639 708,-825 1476,-2289 1688,-3389 213,-1100 350,950 250,1126 -100,175 -350,1276 -925,2126 -575,850 -2126,2326 -2776,2626 -650,300 -1186,566 -2198,679 -1012,112 -2000,75 -3087,-250 -1087,-325 -2087,-975 -2437,-1337 -350,-362 -1212,-1325 -1412,-2025 -200,-700 -550,-1587 -437,-3162 112,-1575 1225,-2924 1225,-2924 0,0 956,-1266 1481,-1640 524,-374 1273,-1111 1741,-1273 468,-162 56,-125 56,-125 0,0 -924,12 -1785,262 -861,250 -2122,636 -2883,1098 -761,462 -2734,1603 -3822,2552 -1087,950 -1825,1750 -1825,1750l-1087 13c0,0 550,-750 1162,-1300 612,-550 1000,-862 1837,-1475 837,-612 1825,-1350 2400,-1625 575,-275 800,-350 800,-350 0,0 137,-200 -13,-150 -150,50 -737,87 -987,50 -250,-37 -962,-400 -1000,-462 -37,-62 -450,-325 -487,-850 -37,-525 13,-850 62,-1025 50,-175 -50,-175 -137,-137 -87,37 -1125,612 -1300,812 -175,200 -850,1012 -887,1512 -37,500 25,1112 400,1287 375,175 1050,325 1337,-100 287,-425 250,-987 237,-1150 -12,-162 825,13 825,13 0,0 62,687 -200,1000 -262,312 -762,725 -1312,775 -550,50 -1200,137 -1475,-62 -275,-200 -625,-512 -675,-787 -50,-275 -175,-712 -37,-1087 137,-375 662,-850 625,-950 -38,-100 25,-162 -162,-87 -187,75 -775,475 -925,700 -150,225 -612,737 -725,1400 -112,662 87,1325 225,1612 137,287 250,562 750,325 500,-237 787,-275 1050,-312 262,-37 512,-62 500,50 -13,112 -162,337 -312,375 -150,37 -550,-37 -825,100 -275,137 -525,387 -950,412 -425,25 -912,-275 -975,-562 -62,-287 -325,-825 -325,-1312 0,-487 150,-1125 150,-1125l-150 87c0,0 -1025,962 -1212,1300 -187,337 -700,1087 -625,1775 75,687 88,1262 600,1362 512,100 1012,-300 1162,-450 150,-150 387,-275 687,-200 194,49 621,237 212,412 -262,112 -387,162 -500,137 -112,-25 -125,150 -450,275 -546,210 -1926,555 -2275,-162 -212,-437 -275,-837 -275,-837zm6286 662c850,-1062 1762,-1587 2512,-1887 750,-300 2130,-556 2566,-481 -118,197 -123,230 -242,488 -275,0 -1736,55 -1961,455 -225,400 -300,1012 275,1650 575,637 1000,612 1062,612 62,0 38,462 38,462 0,0 -756,49 -1137,-262 -1313,-1073 -1025,-2050 -1112,-2062 -87,-13 -87,13 -275,87 -270,108 -1126,976 -1150,1312 -13,175 44,438 0,600 -44,162 -531,216 -690,62 -159,-154 -110,-525 -73,-675 37,-150 187,-362 187,-362zm11748 3487c0,0 1000,-462 1637,-2337 637,-1875 375,-1662 375,-1662 0,0 62,-237 225,-287 162,-50 575,-150 575,-50 0,100 12,350 -137,987 -150,637 -675,2075 -1225,2687 -550,612 -1500,1237 -2000,1362 -500,125 -1656,50 -2150,-125 -494,-175 -1212,-737 -1337,-1300 -125,-562 -200,-1500 225,-2512 425,-1012 1275,-1625 1687,-1837 412,-212 1325,-487 1725,-262 400,225 1000,687 962,1250 -37,562 -50,987 -575,1587 -525,600 -1025,662 -1250,750 -225,87 -737,13 -937,-187 -200,-200 -312,-737 -150,-1075 162,-337 325,-675 700,-825 375,-150 612,-312 775,-262 162,50 250,150 162,187 -87,37 -175,25 -462,237 -287,212 -537,587 -512,875 25,287 150,725 300,725 150,0 337,87 750,-537 412,-625 650,-1100 362,-1612 -287,-512 -437,-737 -600,-775 -162,-37 -612,-87 -887,125 -275,212 -1437,1187 -1487,2125 -50,937 -137,1612 112,2100 250,487 975,862 1312,912 337,50 887,137 1225,25 337,-112 600,-287 600,-287zm2404 -8396c0,0 2374,-1962 3249,-2437 875,-475 1512,-787 2312,-912 800,-125 1387,-50 1500,75 112,125 169,161 19,1185 -150,1025 -862,3237 -1125,3874 -262,637 -1412,3324 -1412,3324 0,0 -187,200 -225,100 -37,-100 -74,-1025 -74,-1025 0,0 -100,37 250,-600 350,-637 1125,-2737 1325,-3562 200,-825 606,-2518 225,-2737 -381,-219 -762,-162 -1750,162 -987,325 -2037,1225 -2262,1450 -225,225 -1462,1450 -1462,1450 0,0 -162,262 -375,162 -212,-100 -258,-86 -258,-86 0,0 -150,-275 -112,-287 38,-12 175,-137 175,-137zm1332 211c722,-922 1829,-1934 3037,-2125 712,-112 925,150 1012,262 87,112 375,825 -325,2562 -700,1737 -1487,3187 -1487,3187l-245 423c0,0 -69,187 -181,94 -112,-94 -187,-125 -206,-250 -19,-125 150,-505 256,-730 106,-225 876,-1974 876,-1974 135,-318 1364,-3133 400,-3187 -1148,-64 -2284,1488 -2912,2250l-311 378c0,0 -106,81 -206,12 -100,-69 -187,-125 -187,-125 0,0 -81,-112 19,-237 100,-125 480,-565 461,-541zm-23155 17880l41 476c0,0 -1052,491 -1840,641 -787,150 -3362,87 -3799,-87 -437,-175 -1039,-400 -1152,-1163 -300,-2032 504,-3573 1725,-5164 412,-537 2000,-2150 2962,-2824 962,-675 2362,-1750 3499,-2275 1137,-525 2611,-1338 3286,-1513 675,-175 900,-300 962,-275 62,25 162,38 100,100 -62,62 -2000,2640 -2400,3490 -400,850 -1287,2974 -1462,4099 -175,1125 -212,2162 -212,2162 0,0 4087,-2937 4999,-3599 912,-662 1312,-1012 1575,-1050 262,-37 512,-100 562,13 50,112 83,270 -35,351 -119,81 -671,561 -971,774 -300,212 -2443,1875 -2843,2137 -400,262 -2906,2026 -3046,2092 -140,65 -277,131 -277,131l-14 740c0,0 1937,-950 2474,-1362 537,-412 3474,-2137 4349,-2912 875,-775 1962,-2162 2112,-2524 150,-362 662,-1375 412,-1937 -250,-562 -775,-662 -1137,-762 -362,-100 -1400,-87 -1875,-62 -475,25 -1245,100 -1725,243 -480,144 -1179,431 -1179,431 0,0 -225,137 -187,-44 37,-181 200,-487 237,-505 37,-19 418,-212 599,-256 181,-44 930,-349 1710,-399 780,-50 1704,-125 2646,-50 942,75 1360,387 1610,593 250,206 718,880 537,1591 -181,711 -1123,2072 -1454,2484 -331,412 -1441,1541 -3083,2696 -1641,1154 -3984,2553 -4509,2778 -525,225 -1500,750 -1500,750 0,0 75,1012 325,1612 250,600 687,1275 1012,1687 325,412 1408,1254 1682,1391 275,137 1005,730 1304,792 300,62 599,94 599,94 0,0 -124,-965 139,-2440 262,-1475 687,-3087 1162,-4087 1027,-2161 2871,-4584 4552,-6390 280,-301 505,-499 505,-499l418 412c0,0 -939,1004 -1377,1566 -437,562 -1706,2059 -2068,2752 -362,693 -844,1522 -1157,2272 -312,750 -725,1912 -925,2899 -200,987 -350,2574 -362,3012 -12,437 25,700 25,700 0,0 712,87 1425,100 712,12 1537,-137 1725,-175 187,-37 237,-75 237,-75 0,0 -387,-1300 -350,-2325 37,-1025 187,-2212 525,-3374 337,-1162 1587,-3524 1975,-4087 387,-562 1650,-2137 1687,-2200 37,-62 482,292 482,292 0,0 -245,258 -570,721 -325,462 -1250,2062 -1750,3099 -500,1037 -1197,2867 -1312,3649 -115,782 -291,1687 -62,2837 228,1150 237,1162 237,1162 0,0 887,-187 1200,-312 312,-125 725,-300 900,-512 175,-212 326,-370 76,-738 -250,-368 -649,-499 -836,-555 -187,-56 -374,-75 -449,-94 -75,-19 -324,-206 -81,-268 243,-62 168,6 512,-94 343,-100 449,-281 281,-456 -168,-175 -443,-225 -649,-256 -206,-31 -580,-50 -580,-50 0,0 -568,-81 -193,-287 374,-206 287,-175 643,-287 356,-112 693,-175 1011,-162 318,12 1005,37 1198,106 193,69 587,56 356,-162 -231,-218 -643,-480 -805,-524 -162,-44 -555,-206 -661,-137 -106,69 -50,187 -275,256 -225,69 -431,106 -655,-44 -225,-150 -306,-668 -287,-936 19,-268 19,-736 530,-1036 512,-300 530,-468 911,-487 381,-19 356,-37 437,-168 81,-131 225,-356 593,-356 368,0 861,56 1048,112 187,56 948,268 1223,549 275,281 649,587 724,842 75,256 75,443 168,424 94,-19 162,-25 187,-312 25,-287 181,-1186 -50,-1466 -231,-281 -362,-643 -849,-793 -487,-150 -836,-262 -924,-200 -87,62 -81,112 -31,187 50,75 144,331 0,437 -144,106 -892,150 -1223,-6 -331,-156 -480,-349 -487,-680 -6,-331 175,-1111 649,-1597 474,-487 874,-805 1404,-861 530,-56 998,-69 1285,125 287,193 724,424 811,424 87,0 175,-44 275,-225 100,-181 368,-499 711,-530 343,-31 705,-62 936,6 231,69 524,268 636,512 112,243 168,518 225,537 56,19 200,87 218,25 19,-62 243,-356 543,-462 300,-106 381,-218 406,-406 25,-187 -12,-655 275,-755 287,-100 549,-144 580,-87 31,56 56,162 12,306 -44,144 -312,880 -474,998 -162,119 -568,200 -836,612 -268,412 -499,768 -587,824 -87,56 -633,34 -633,34 0,0 34,-465 -184,-908 -218,-443 -356,-718 -524,-786 -168,-69 -331,-144 -487,-69 -156,75 -231,443 -206,768 25,324 93,702 56,842 -37,140 -234,212 -365,181 -131,-31 -318,22 -396,-143 -78,-165 -695,-961 -1036,-1145 -341,-184 -774,-343 -1323,-181 -549,162 -942,739 -1060,1076 -119,337 -103,686 -87,801 16,115 25,140 84,115 59,-25 234,-377 632,-408 398,-31 840,-65 1179,34 339,100 906,356 1224,718 318,362 568,967 493,1504 -75,537 -125,930 -580,1448 -456,518 -368,387 -643,399 -275,12 -393,-31 -418,-119 -25,-87 106,-449 -337,-1036 -443,-587 -474,-630 -730,-799 -256,-168 -543,-324 -711,-331 -168,-6 -368,-75 -474,-19 -106,56 -56,137 25,193 81,56 243,94 505,337 262,243 624,387 562,537 -62,150 -200,300 -356,331 -156,31 -443,-100 -568,-168 -125,-69 -374,-306 -505,-399 -131,-94 -225,-300 -412,-337 -187,-37 -456,-125 -630,-56 -175,69 -418,243 -449,356 -31,112 -162,437 -112,693 50,256 25,437 75,443 50,6 324,50 468,-6 144,-56 424,-81 755,31 331,112 661,187 1061,543 399,356 612,624 655,998 44,374 0,899 -206,1011 -206,112 -281,150 -412,150 -131,0 -262,-125 -300,-275 -37,-150 50,-237 -100,-424 -150,-187 -456,-349 -518,-362 -62,-12 -406,-181 -618,-200 -212,-19 -324,-69 -418,-25 -94,44 -50,156 25,175 75,19 331,75 399,212 69,137 193,331 112,499 -81,168 -243,256 -256,331 -12,75 0,200 181,275 181,75 406,218 480,368 75,150 187,424 181,530 -6,106 119,156 156,94 37,-62 587,-312 1448,-967 861,-655 3164,-2518 4014,-3531 850,-1012 2762,-3899 2999,-4362 237,-462 912,-2749 1025,-2762 112,-13 723,-991 723,-991 0,0 155,-138 146,-16 -9,121 -339,1490 -551,2108 -212,618 -1105,3111 -2892,5223 -1787,2112 -2499,2912 -4737,4674 -2237,1762 -5474,2487 -5849,2599 -375,112 -3159,258 -4039,177 -880,-81 -2003,-331 -3045,-967 -1042,-636 -1729,-1485 -1891,-1722 -162,-237 -1173,-1512 -1436,-2774 -262,-1262 -225,-2125 -225,-2587 0,-462 25,-2637 425,-3699 400,-1062 1125,-3074 1125,-3074 -1109,111 -3257,1799 -3962,2574 -500,550 -925,1337 -1187,2050 -252,683 -636,2193 312,2599 175,75 1187,112 1575,50 387,-62 754,-119 754,-119l50 462c0,0 -341,182 -804,207 -462,25 -1785,180 -2100,37 -1452,-656 -1404,-2570 -1012,-3237 1523,-2594 3583,-4186 6347,-5338 150,-62 462,-250 462,-250l1223 -1722c0,0 -874,374 -1254,549 -381,175 -1891,949 -2591,1462 -2259,1654 -5971,4365 -5824,7548 37,812 109,1367 471,1629 362,262 792,574 1685,649 892,75 1947,-119 2253,-225 306,-106 1292,-470 1292,-470zm148 1603l125 350c0,0 -891,570 -1371,713 -480,144 -1123,306 -1123,306 0,0 -6,87 212,144 218,56 2332,712 2832,612 500,-100 325,137 325,137 0,0 -311,582 -417,676 -106,93 -84,140 -19,177 65,37 373,213 810,269 437,56 730,56 768,56 37,0 393,324 393,324 0,0 -37,31 -437,87 -399,56 -1766,-75 -2016,-131 -250,-56 -680,-187 -780,-324 -100,-137 -162,-293 -19,-368 144,-75 331,-87 368,-225 37,-137 -19,-168 -150,-206 -131,-37 -961,-106 -1410,-256 -449,-150 -924,-256 -1186,-393 -262,-137 -349,-156 -593,-318 -243,-162 -218,-187 -281,-275 -62,-87 0,-256 94,-256 94,0 406,0 830,-31 424,-31 1080,-125 1441,-262 362,-137 905,-368 1061,-493 156,-125 541,-314 541,-314zm5880 11241c0,0 1141,-518 1528,-543 387,-25 375,-80 419,-42 44,37 113,233 -18,345 -131,112 -1289,973 -1389,1054 -100,81 -774,325 -1023,337 -250,12 -574,201 -705,88 -131,-112 -216,-222 28,-497 243,-275 1161,-743 1161,-743zm4693 194c0,0 980,251 1580,388 600,137 1318,550 1443,713 125,162 382,387 319,525 -143,315 -1556,-165 -1711,-233 -712,-312 -1037,-512 -1350,-712 -312,-200 -485,-315 -554,-346 -68,-31 -281,5 -281,5l-12 -336 565 -3zm-1947 -613c105,-394 -101,-1304 -269,-1740 -168,-437 -379,-1442 -573,-1754 -193,-312 -217,-538 -413,-759 -197,-221 -220,-224 -231,-287 -11,-63 -62,-212 -19,-243 44,-31 131,-25 162,-31 31,-6 1079,281 1410,256 331,-25 274,-10 274,-10 0,0 19,100 -6,165 -25,65 -51,232 -57,394 -6,162 -9,186 -18,1001 -10,815 127,1323 171,1491 44,168 180,718 311,1273 131,555 242,1111 93,1691 -150,580 -508,1080 -764,1405 -256,324 -361,493 -613,660 -252,166 -402,63 -477,-99 -75,-162 -119,-618 44,-936 162,-318 428,-897 480,-1006 303,-637 392,-1078 497,-1471zm8215 -87c1045,-50 1506,-161 1674,-186 168,-25 618,-50 696,-50 78,0 146,-28 187,50 40,78 -6,177 -93,261 -87,84 -175,249 -612,454 -437,206 -1129,360 -1328,391 -200,31 -655,81 -955,44 -300,-37 -549,-144 -636,-231 -161,-161 739,-718 1069,-734zm4487 766c0,0 571,467 1058,429 487,-37 661,-58 804,-174 144,-116 169,-293 57,-480 -112,-187 -624,-412 -780,-505 -156,-94 -961,-468 -1067,-661 -106,-193 -468,-349 -537,-474 -69,-125 -268,-419 -287,-468 -19,-50 -60,-92 64,-120 124,-28 541,-10 697,59 156,69 946,268 1289,380 343,112 1183,302 1482,433 300,131 1204,424 1573,462 368,37 1329,112 1460,50 131,-62 368,64 368,-180 0,-243 19,-204 -130,-329 -150,-125 -400,-272 -650,-328 -250,-56 -755,-106 -1055,-125 -300,-19 -1978,-144 -2390,-193 -412,-50 -1791,-349 -2140,-518 -349,-168 -1448,-792 -1741,-1098 -293,-306 -925,-1294 -1075,-1649 -150,-356 -324,-911 -505,-1348 -181,-437 -321,-964 -458,-1176 -137,-212 -137,-431 -362,-449 -225,-19 -346,105 -346,105l-412 405c0,0 -165,215 -9,383 156,168 453,552 722,964 268,412 510,1073 816,1622 306,549 1167,1922 1329,2128 162,206 599,736 824,998 225,262 449,505 555,686 151,257 531,963 845,1173z"/>
  <path class="fil0 str0" d="M1200 43195l1351 -4677c0,0 272,-1086 885,-1211 612,-125 800,-37 1037,150 237,187 1462,1462 1462,1462 0,0 487,391 212,1437 -275,1047 -1287,2000 -2037,3687 -750,1687 -1862,4587 -1637,6199 225,1612 512,2100 912,2212 400,112 1012,37 1775,-1275 762,-1312 2262,-4712 2549,-5374 287,-662 737,-1750 1275,-2424 537,-675 1162,-1062 1387,-1150 225,-87 575,-137 800,0 225,137 462,475 387,1487 -75,1012 -150,4062 -75,5274 75,1212 537,3337 1000,4449 462,1112 1050,2524 1287,3937 237,1412 62,2999 -287,3574 -350,575 -962,987 -1550,1062 -587,75 -1850,62 -2087,-50 -237,-112 -1200,-475 -1650,-962 -450,-487 -850,-1112 -900,-1700 -50,-587 -187,-2325 0,-2662 187,-337 275,-565 512,-709 237,-144 555,-181 686,-56 131,125 468,318 580,568 112,250 206,593 125,886 -81,293 -349,587 -518,1067 -168,480 -275,736 -250,1086 25,349 243,724 406,811 162,87 748,381 1379,125 631,-256 1441,-811 1460,-1872 19,-1061 31,-2168 -119,-3218 -150,-1050 -250,-1850 -700,-2974 -450,-1125 -525,-1562 -725,-2487 -200,-925 -41,-1816 -41,-1854 0,-37 131,-674 -94,-786 -225,-112 -368,50 -468,312 -100,262 -247,1778 -547,2840 -300,1062 -1337,3099 -1887,3712 -550,612 -1812,1250 -2774,1187 -962,-62 -2125,-750 -2562,-1175 -437,-425 -1187,-1212 -1425,-2699 -237,-1487 -400,-2887 -312,-4074 87,-1187 375,-1787 550,-2325 175,-537 627,-1810 627,-1810z"/>
  <path class="fil0 str0" d="M13270 44193c25,-350 50,-825 412,-1062 362,-237 375,-287 862,-325 487,-38 1300,0 1562,75 262,75 512,137 562,300 50,162 175,500 100,1100 -75,600 -425,1775 -525,2574 -100,800 -275,2612 -200,3099 75,487 262,862 500,937 237,75 737,100 900,50 162,-50 950,-950 1237,-1587 707,-1569 1657,-3853 1500,-5636 -37,-425 -67,-366 -30,-522 37,-156 100,-181 231,-181 131,0 967,56 1491,861 524,805 693,1367 793,1797 100,431 190,2444 389,4144 200,1700 662,5674 662,5811 0,137 -41,279 -203,310 -162,31 -874,-44 -1254,-418 -381,-374 -880,-1055 -1067,-1516 -187,-462 -324,-1466 -412,-2240 -87,-774 -56,-1629 -56,-1629 0,0 62,-456 -87,-605 -150,-150 -256,-100 -324,-31 -69,69 -487,880 -736,1248 -250,368 -649,1073 -1129,1710 -480,636 -998,1055 -1529,1348 -530,293 -1261,206 -1435,168 -175,-37 -811,-212 -1360,-1498 -549,-1285 -574,-1604 -630,-1934 -56,-331 -186,-1811 -223,-2473 -66,-1171 -81,-2742 0,-3874z"/>
  <path class="fil0 str0" d="M24268 48230c0,0 -325,-3262 -350,-3937 -25,-675 -23,-785 9,-979 31,-193 69,-268 218,-306 150,-37 418,-31 699,212 281,243 456,817 518,1067 62,250 175,636 324,574 150,-62 568,-293 686,-649 119,-356 780,-1242 1523,-1660 743,-418 1198,-859 2521,-1005 1323,-145 2187,170 2700,495 512,325 1025,837 1387,1725 362,887 437,3574 325,4774 -112,1200 -187,2862 -450,4099 -262,1237 -837,2087 -1000,2424 -162,337 -504,448 -759,485 -256,37 -699,-187 -849,-381 -150,-193 -449,-930 -449,-1523 0,-593 62,-2402 81,-2889 19,-487 2,-3504 -61,-4291 -62,-787 -100,-1250 -275,-1512 -175,-262 -475,-331 -819,-349 -343,-19 -992,212 -1273,312 -281,100 -524,343 -992,468 -468,125 -805,150 -980,168 -175,19 -200,37 -243,94 -44,56 -75,1211 -62,1535 12,324 108,2509 158,3009 50,500 475,1075 512,1362 37,287 204,852 166,1464 -37,612 -137,849 -306,1173 -168,324 -468,830 -655,955 -187,125 -668,175 -780,87 -112,-87 -312,-206 -568,-761 -256,-555 -505,-1473 -562,-1878 -56,-406 -108,-1414 -170,-2239 -62,-825 -132,-1423 -151,-1619 -19,-196 -74,-506 -74,-506z"/>
  <path class="fil0 str0" d="M36403 51317c0,0 862,-1062 1650,-1362 787,-300 1625,-337 2112,-300 487,37 1053,100 1128,81 75,-19 150,-106 131,-212 -19,-106 -722,-3043 -909,-3643 -187,-600 -662,-2549 -937,-2999 -275,-450 -612,-875 -1025,-812 -412,62 -762,287 -800,512 -38,225 40,827 -148,1027 -187,200 -318,293 -580,312 -262,19 -786,-112 -874,-262 -87,-150 -474,-493 -424,-1217 75,-1093 341,-2063 1417,-2608 456,-231 1242,-306 1560,-200 318,106 974,361 1374,786 400,425 1175,1962 1512,2724 1418,3204 2538,6595 4062,9723 237,487 441,1006 441,1362 0,356 -62,780 -287,1086 -225,306 -456,537 -624,618 -168,81 -512,119 -711,37 -200,-81 -480,-268 -593,-399 -112,-131 -243,-337 -306,-449 -62,-112 -268,-162 -293,-125 -25,37 -321,47 -372,146 -51,99 -71,834 -471,1708 -399,874 -821,1779 -1908,2291 -1087,512 -2737,-75 -2737,-75 0,0 -912,-325 -1500,-1212 -587,-887 -837,-1200 -912,-2237 -126,-1747 95,-2845 1025,-4299zm1950 1950c0,0 225,-925 725,-1450 500,-525 825,-750 1500,-950 675,-200 950,-175 1350,-112 400,62 600,437 712,712 112,275 112,1487 -175,2250 -287,762 -875,2075 -1375,2524 -500,450 -912,775 -1437,775 -525,0 -950,-187 -1150,-487 -610,-916 -381,-2275 -150,-3262z"/>
 </g>
</svg>
