<svg xmlns="http://www.w3.org/2000/svg" aria-hidden="true" style="position:absolute;width:0;height:0;overflow:hidden">
    <defs>
        <symbol id="arrowLeft" viewBox="0 0 32 32">
            <path fill="none" stroke="#fff" stroke-linecap="round" stroke-linejoin="round" stroke-width="1.73"
                d="M26.666 16H5.333m.001 0 8-8m-8 8 8 8" style="stroke:var(--color1, #fff)" />
        </symbol>
        <symbol id="arrowRight" viewBox="0 0 41 32">
            <path fill="none" stroke="#fff" stroke-linecap="round" stroke-linejoin="round" stroke-width="3.048"
                d="M1.778 16h37.586m.001 0L25.27 30.095M39.365 16 25.27 1.905" style="stroke:var(--color1, #fff)" />
        </symbol>
        <symbol id="building" viewBox="0 0 32 32">
            <path fill="none" stroke="#fff" stroke-linecap="round" stroke-linejoin="round" stroke-width="2.667"
                d="M2.667 26.667h26.667M9.333 13.333h5.333M25.333 12H20c-.736 0-1.333.597-1.333 1.333v13.333h8V13.333c0-.736-.597-1.333-1.333-1.333v0zm-16-2.667h5.333M17.333 4H6.666c-.736 0-1.333.597-1.333 1.333v21.333h13.333V5.333c0-.736-.597-1.333-1.333-1.333v0z"
                style="stroke:var(--color1, #fff)" />
        </symbol>
        <symbol id="check" viewBox="0 0 32 32">
            <path fill="none" stroke="#f8f8f8" stroke-linecap="round" stroke-linejoin="round" stroke-width="1.6"
                d="m9.334 17.334 4 4L22.667 12" style="stroke:var(--color2, #f8f8f8)" />
        </symbol>
        <symbol id="chevronDown" viewBox="0 0 31 32">
            <path stroke-linecap="round" stroke-linejoin="round" stroke-width="2.56"
                d="m24.32 12.16-8.055 8.055a1.276 1.276 0 0 1-1.81 0L6.4 12.16" />
        </symbol>
        <symbol id="factory" viewBox="0 0 32 32">
            <path fill="#f8f8f8"
                d="M26.234 9.246a.653.653 0 0 0-.664.042l.002-.002-6.264 4.194V9.835a.662.662 0 0 0-1.086-.508l.001-.001-5.213 4.306h-2.302V7.411a.66.66 0 0 0-.511-.644l-.004-.001-2.646-.596a.662.662 0 0 0-.808.646v.025-.001 6.793h-.662a.661.661 0 0 0-.661.662v10.584c0 .365.296.661.661.662h19.845a.662.662 0 0 0 .662-.662V9.832c0-.251-.14-.47-.347-.582l-.003-.002zM8.062 7.678l1.323.291v5.662H8.062V7.678zm17.2 16.538H6.74v-9.262h6.502a.67.67 0 0 0 .424-.152l4.319-3.572v3.493a.663.663 0 0 0 1.034.548l-.002.001 6.245-4.194v13.137z"
                style="fill:var(--color2, #f8f8f8)" />
            <path fill="#f8f8f8"
                d="M8.062 16.271h5.292v1.322H8.062v-1.322zm0 2.646h5.292v1.323H8.062v-1.323zm0 2.646h5.292v1.322H8.062v-1.322zm8.6-4.63h1.322v1.984h-1.323v-1.984zm0 3.968h1.322v1.985h-1.323v-1.984zm2.646-3.968h1.322v1.984h-1.322v-1.984zm0 3.968h1.322v1.985h-1.322v-1.984zm2.646-3.968h1.323v1.984h-1.323v-1.984zm0 3.968h1.323v1.985h-1.323v-1.984z"
                style="fill:var(--color2, #f8f8f8)" />
        </symbol>
        <symbol id="globe" viewBox="0 0 31 32">
            <path fill="none" stroke="none" stroke-linecap="round" stroke-linejoin="round" stroke-miterlimit="10"
                stroke-width="2.462"
                d="M15.385 27.538c6.373 0 11.538-5.166 11.538-11.538S21.757 4.462 15.385 4.462v0C9.012 4.462 3.847 9.628 3.847 16s5.166 11.538 11.538 11.538v0z"
                style="stroke:var(--color3, currentColor)" />
            <path fill="none" stroke="none" stroke-linecap="round" stroke-linejoin="round" stroke-width="2.462"
                d="M3.846 16h23.077" style="stroke:var(--color3, currentColor)" />
            <path fill="none" stroke="none" stroke-linecap="round" stroke-linejoin="round" stroke-miterlimit="10"
                stroke-width="2.462"
                d="M15.385 27.538c2.124 0 3.846-5.166 3.846-11.538S17.508 4.462 15.385 4.462c-2.124 0-3.846 5.166-3.846 11.538s1.723 11.538 3.846 11.538z"
                style="stroke:var(--color3, currentColor)" />
        </symbol>
        <symbol id="instagram" viewBox="0 0 32 32">
            <path
                d="M16 4.989h5.505c1.295 0 1.943.324 2.429.486.648.323 1.133.485 1.619.97.486.486.809.973.972 1.619.161.486.324 1.134.486 2.429v11.009c0 1.295-.325 1.943-.486 2.429-.324.648-.486 1.133-.973 1.619-.485.486-.97.809-1.618.972-.486.161-1.134.324-2.429.486H10.496c-1.295 0-1.943-.325-2.429-.486-.648-.324-1.133-.486-1.619-.973-.486-.485-.809-.97-.972-1.618-.161-.486-.324-1.134-.486-2.429V10.494c0-1.295.325-1.943.486-2.429.324-.648.486-1.133.973-1.619.485-.486.97-.809 1.618-.972.486-.161 1.134-.324 2.429-.486H16zm0-2.429h-5.505c-1.458 0-2.429.324-3.238.648a7.11 7.11 0 0 0-2.43 1.618l-.001.001c-.809.81-1.133 1.458-1.619 2.429-.324.809-.486 1.78-.648 3.238v11.009c0 1.458.324 2.429.648 3.238a7.106 7.106 0 0 0 1.618 2.428l.001.001c.81.809 1.458 1.134 2.429 1.619.809.324 1.78.486 3.238.648h11.011c1.458 0 2.429-.324 3.238-.648a7.106 7.106 0 0 0 2.428-1.618l.001-.001c.809-.81 1.134-1.458 1.619-2.429.324-.809.486-1.78.648-3.238V10.495c0-1.458-.324-2.429-.648-3.238a7.106 7.106 0 0 0-1.618-2.428l-.001-.001c-.81-.809-1.458-1.133-2.429-1.619-.809-.324-1.78-.486-3.238-.648H16z" />
            <path
                d="M16 9.037h-.051a6.913 6.913 0 0 0-6.912 6.912v.054V16v.051a6.913 6.913 0 0 0 6.912 6.912h.054H16h.051a6.913 6.913 0 0 0 6.912-6.912v-.054V16v-.051a6.913 6.913 0 0 0-6.912-6.912h-.054H16zm0 11.497c-2.429 0-4.534-1.943-4.534-4.534 0-2.429 1.943-4.534 4.534-4.534 2.429 0 4.534 1.943 4.534 4.534 0 2.429-2.104 4.534-4.534 4.534zm7.124-10.039a1.62 1.62 0 0 0 0-3.238 1.62 1.62 0 0 0 0 3.238z" />
        </symbol>
        <symbol id="facebook" viewBox="0 0 32 32">
            <path
                d="M17.944 17.011h4.367l0.686-4.447h-5.055v-2.429c0-1.847 0.602-3.485 2.327-3.485h2.77v-3.878c-0.486-0.068-1.516-0.211-3.461-0.211-4.061 0-6.444 2.15-6.444 7.046v2.958h-4.175v4.447h4.175v12.22c0.827 0.124 1.664 0.209 2.524 0.209 0.777 0 1.536-0.072 2.285-0.173v-12.256z">
            </path>
        </symbol>
        <symbol id="key" viewBox="0 0 32 32">
            <path fill="none" stroke="#f8f8f8" stroke-linejoin="round" stroke-width="1.6"
                d="M14.094 11.532c0 .654 0 1.288.206 1.882-2.168 2.544-7.891 9.269-8.424 9.782a1.015 1.015 0 0 0-.338.754c0 .427.262.84.483 1.071.332.347 1.75 1.66 2.011 1.408.775-.754.93-.955 1.248-1.267.478-.468-.05-1.424.115-1.81.166-.388.342-.463.629-.523s.794.146 1.192.15c.418.006.644-.17.956-.462.251-.232.432-.448.438-.784.01-.454-.644-1.052-.156-1.53s1.192.312 1.71.251c.518-.06 1.147-.779 1.212-1.086s-.588-1.096-.488-1.544c.036-.15.342-.503.574-.553s1.258.347 1.489.296c.282-.06.609-.357.875-.522.78.337 1.489.472 2.4.472 3.445 0 6.236-2.686 6.236-5.994s-2.792-5.984-6.237-5.984-6.131 2.684-6.131 5.994zm9.148-1.165v.036a1.61 1.61 0 0 1-3.22 0v-.038.002a1.61 1.61 0 0 1 3.218-.002v.002z"
                style="stroke:var(--color2, #f8f8f8)" />
        </symbol>
        <symbol id="mail" viewBox="0 0 32 32">
            <path stroke-linecap="round" stroke-linejoin="round" stroke-width="2.56"
                d="M26.666 6.666H5.334C4.597 6.666 4 7.264 4 8v16c0 .736.596 1.334 1.334 1.334h21.332c.737 0 1.334-.598 1.334-1.334V8c0-.736-.596-1.334-1.334-1.334z" />
            <path stroke-linecap="round" stroke-linejoin="round" stroke-width="2.56" d="m4 8 12.343 9.334L28 8" />
        </symbol>
        <symbol id="phone" viewBox="0 0 31 32">
            <path stroke-linejoin="round" stroke-linecap="round" stroke-miterlimit="4" stroke-width="2.56"
                d="M9.787 4.48h-3.521c-1.34 0-2.426 1.086-2.426 2.426v0c0 11.384 9.229 20.614 20.614 20.614 1.34 0 2.426-1.086 2.426-2.426v0-3.52c0-0 0-0.001 0-0.001 0-1.071-0.658-1.989-1.592-2.371l-0.017-0.006-3.374-1.349c-0.282-0.116-0.609-0.183-0.951-0.183-0.625 0-1.198 0.224-1.642 0.596l0.004-0.003-0.87 0.727c-0.441 0.369-1.014 0.594-1.639 0.594-0.707 0-1.347-0.287-1.81-0.75l-2.456-2.456c-0.463-0.463-0.749-1.103-0.749-1.81 0-0.625 0.224-1.198 0.596-1.643l-0.003 0.004 0.727-0.872c0.369-0.441 0.593-1.013 0.593-1.638 0-0.343-0.067-0.67-0.189-0.968l0.006 0.017-1.348-3.373c-0.388-0.951-1.306-1.609-2.377-1.609-0 0-0 0-0 0v0z">
            </path>
        </symbol>
        <symbol id="hamburgerMenu" viewBox="0 0 16 16">
            <path fill="none" stroke="#373738" style="stroke: var(--color1, #373738)" stroke-linejoin="round"
                stroke-linecap="round" stroke-miterlimit="4" stroke-width="2.4"
                d="M6.666 22.666h18.667M6.666 16h18.667"></path>
            <path fill="none" stroke="#8b263a" style="stroke: var(--color2, #8b263a)" stroke-linejoin="round"
                stroke-linecap="round" stroke-miterlimit="4" stroke-width="2.4" d="M6.666 9.334h18.667"></path>
        </symbol>
        <symbol id="montage" viewBox="0 0 27 32">
            <path
                d="M3.914 6.318c0.549-0.137 1.099-0.137 1.648 0l0.549-1.236 0.961 0.412-0.549 1.236c0.412 0.275 0.824 0.687 1.099 1.167l1.305-0.481 0.343 0.961-1.236 0.481c0.137 0.618 0.069 1.167-0.069 1.648l1.305 0.549-0.412 0.961-1.305-0.549c-0.275 0.481-0.687 0.893-1.167 1.167l0.481 1.305-0.961 0.343-0.481-1.236c-0.549 0.069-1.099 0.069-1.648-0.069l-0.549 1.305-0.961-0.412 0.549-1.305c-0.481-0.275-0.893-0.687-1.167-1.167l-1.236 0.481-0.412-0.961 1.305-0.481c-0.137-0.549-0.137-1.167 0-1.648l-1.236-0.549 0.412-0.961 1.236 0.549c0.275-0.481 0.687-0.893 1.167-1.167l-0.481-1.305 0.961-0.343 0.549 1.305zM4.051 8.172c0.824-0.343 1.785 0.069 2.060 0.893 0.343 0.824-0.069 1.717-0.893 2.060s-1.717-0.069-2.060-0.893c-0.275-0.824 0.069-1.717 0.893-2.060z">
            </path>
            <path
                d="M18.129 25.476c0.481-0.137 0.961-0.137 1.373 0l0.412-1.030 0.824 0.343-0.481 1.030c0.412 0.206 0.687 0.549 0.961 0.961l1.030-0.412 0.343 0.824-1.099 0.412c0.137 0.412 0.137 0.893 0 1.305l1.030 0.481-0.343 0.755-1.030-0.412c-0.206 0.343-0.549 0.687-0.961 0.893l0.412 1.030-0.824 0.343-0.412-1.030c-0.412 0.069-0.893 0.069-1.305-0.069l-0.481 1.030-0.755-0.343 0.412-1.030c-0.343-0.206-0.687-0.549-0.893-0.961l-1.030 0.412-0.343-0.755 1.030-0.412c-0.069-0.481-0.069-0.961 0.069-1.373l-1.030-0.412 0.275-0.824 1.099 0.481c0.206-0.412 0.549-0.755 0.961-0.961l-0.412-1.030 0.755-0.343 0.412 1.099zM18.266 26.987c0.687-0.275 1.442 0.069 1.717 0.755 0.275 0.618-0.069 1.373-0.755 1.648-0.618 0.275-1.373-0.069-1.648-0.687-0.275-0.687 0.069-1.442 0.687-1.717z">
            </path>
            <path
                d="M19.227 7.142c0 0.206 0 0.412 0 0.549 0 2.129-1.030 3.983-2.541 4.944l3.708 1.030 4.395 7.897-1.305 6.112h-0.343l-0.618-1.648h-0.069v-0.069l-0.275 0.069h-0.343l-0.549 0.275c-0.137-0.206-0.343-0.412-0.481-0.549l0.549-1.099-0.549-0.275 0.618-1.991-1.030-1.854v3.708l-0.618-0.275-0.481 1.099c-0.343 0-0.618-0.069-0.961 0l-0.412-1.099-1.442 0.549 0.481 1.099c-0.275 0.206-0.481 0.412-0.687 0.687l-1.099-0.481-0.275 0.549h-0.824l-3.021-1.579 0.206-0.481 2.403 0.961c2.884-0.961-2.884-6.112-5.082-2.472v-5.288l-3.021 1.717 1.167 5.288c0.893 2.335-2.541 3.159-3.021 1.167l-1.373-6.592c-0.412-2.060 0.618-2.266 1.579-2.815 1.579-0.893 3.090-1.717 4.67-2.609l3.571-1.030c-1.511-0.893-2.541-2.815-2.541-4.944 0-0.137 0-0.343 0.069-0.549h9.545z">
            </path>
            <path
                d="M14.352 0c0.343 0 0.755 0.137 0.893 0.618v4.67h0.687v-4.532c1.854 0.687 3.159 2.403 3.296 4.532h0.206c0.412 0 0.687 0.343 0.687 0.687v0c0 0.412-0.275 0.687-0.687 0.687h-10.026c-0.412 0-0.687-0.275-0.687-0.687v0c0-0.343 0.275-0.687 0.687-0.687h0.206c0.137-2.129 1.511-3.845 3.296-4.532v4.532h0.687v-4.67c0.069-0.343 0.481-0.618 0.755-0.618z">
            </path>
            <path
                d="M2.129 26.3c0.206 0.137 0.412 0.206 0.549 0.137 2.197-0.206 2.472-0.206 3.433-0.343 0-0.069-0.137-1.236-0.137-1.442 0-0.069 0-0.137 0-0.206-0.069 0-0.549 0.069-0.687 0.069l-1.854 0.206c-0.824 0.069 3.159-0.343 2.335-0.275l-3.090 0.343c-0.206 0-0.412 0.069-0.618 0.206-0.343 0.412-0.343 0.961 0.069 1.305zM9.339 24.584c0.069 0.069 0.137 0.137 0.137 0.275 0.069 0.069 0.137 0.137 0.206 0.206 0 0 0-0.069 0.069-0.137 0-0.069 0-0.137-0.069-0.206-0.069 0-0.343-0.137-0.343-0.137zM8.378 25.545c-0.069 0.069-0.137 0.206-0.137 0.275-0.069 0.137 0.069 0.206 0.206 0.206 0.069 0.069 0.206 0.137 0.275 0.137 0.069 0.069 0.206 0.137 0.343 0.137 0-0.069-0.206-0.343-0.275-0.412-0.137-0.137-0.206-0.206-0.412-0.343zM8.584 24.996l-0.137 0.412c0.069 0.069 0.137 0.069 0.206 0.137 0.137 0.137 0.275 0.275 0.412 0.412 0 0.069 0.069 0.206 0.069 0.275 0.069-0.069 0.137-0.275 0.206-0.343 0-0.069 0-0.069-0.069-0.069l-0.069-0.275c-0.137-0.206-0.343-0.481-0.618-0.549zM8.858 24.446c-0.069 0-0.137 0.275-0.206 0.412 0.275 0.137 0.412 0.275 0.618 0.549 0.069 0.069 0.069 0.206 0.137 0.206 0 0 0.137-0.275 0.137-0.343s-0.343-0.755-0.687-0.824zM10.026 26.918c0.206 0.069 0.687 0.137 0.893 0.137 0.481 0 1.305-0.069 1.717-0.343 0.275-0.137 0.343-0.343 0.275-0.618-0.137-0.275-0.206-0.275-0.618-0.412l-0.893-0.412c-0.069-0.069-0.137-0.069-0.206-0.137-0.137-0.069-0.137-0.069-0.275 0-0.206 0.137-0.137 0.137-0.275 0.412-0.137 0.206-0.618 1.305-0.618 1.373zM6.249 24.378l0.137 1.717 0.343 0.069c0.549 0.206 1.442 0.618 1.923 0.893 0.275 0.206 0.549 0.343 0.824 0.481 0-0.137 0.343-0.824 0.412-0.961 0.137-0.343 0.275-0.687 0.412-0.961 0.137-0.343 0.275-0.687 0.412-0.961 0.069-0.206 0.137-0.343 0.206-0.481s0.137-0.137 0.206-0.206c0.069 0 0.137-0.069 0.206-0.069 0.069-0.069 0.069-0.069 0.275 0 0.069 0.069 0.137 0.069 0.206 0.137l1.442 0.687c0.137 0 0.137 0.069 0.275 0 0.206 0 0.481-0.069 0.412-0.412 0-0.275-0.275-0.618-0.549-0.893-1.167-1.305-2.472-1.717-3.708-1.030-0.275 0.137-0.549 0.412-0.824 0.618-0.755 0.549-1.373 0.824-2.197 1.167-0.137 0.069-0.275 0.137-0.412 0.206zM9.82 24.515c-0.137-0.069-0.275-0.137-0.412-0.206-0.206-0.069-0.549-0.275-0.755-0.069-0.069 0.137-0.137 0.343-0.206 0.412-0.069 0.206-0.481 1.099-0.481 1.236 0 0.275 0.275 0.343 0.618 0.481 0.206 0.137 0.549 0.343 0.755 0.069 0.069-0.069 0.137-0.275 0.206-0.412 0.137-0.275 0.206-0.549 0.343-0.824 0.069-0.069 0.137-0.275 0.137-0.343 0-0.137-0.069-0.275-0.206-0.343zM2.884 25.27c-0.206-0.069-0.412-0.069-0.549 0.206-0.206 0.412 0.481 0.755 0.687 0.275 0.069-0.137 0.069-0.343-0.137-0.481z">
            </path>
            <path
                d="M22.043 9.957c0.549-0.137 1.099-0.137 1.648 0l0.549-1.236 0.961 0.412-0.549 1.236c0.481 0.275 0.893 0.687 1.167 1.236l1.236-0.549 0.412 0.961-1.305 0.549c0.137 0.549 0.137 1.099 0 1.648l1.236 0.549-0.412 0.961-1.236-0.549c-0.275 0.412-0.687 0.824-1.167 1.099l0.481 1.305-0.961 0.412-0.549-1.305c-0.549 0.137-1.099 0.069-1.648-0.069l-0.549 1.305-0.961-0.412 0.549-1.305c-0.412-0.275-0.824-0.687-1.099-1.167l-1.305 0.481-0.343-0.961 1.236-0.481c-0.137-0.549-0.069-1.099 0.069-1.648l-1.305-0.549 0.412-0.961 1.305 0.549c0.275-0.481 0.687-0.893 1.167-1.167l-0.481-1.236 0.961-0.412 0.481 1.305zM22.249 11.811c0.824-0.275 1.717 0.069 2.060 0.893 0.275 0.824-0.069 1.785-0.893 2.060-0.824 0.343-1.785-0.069-2.060-0.893-0.343-0.824 0.069-1.717 0.893-2.060z">
            </path>
        </symbol>
        <symbol id="producing" viewBox="0 0 31 32">
            <path fill="#2b2a29" style="fill: var(--color1, #2b2a29)"
                d="M0 32h31.068v-1.942h-0.932c-0.078-0.155-0.078-0.311-0.078-0.544 0-0.155 0-0.311 0-0.544 0-2.175-0.078-6.136 0-7.922h-1.010v-3.029h-1.476v-5.204c0-0.777 0.155-0.777 0.311-1.32 0.311-1.087 0.078-2.097-0.388-2.874-0.233-0.311-0.466-0.621-0.777-0.854-0.233-0.233-0.233-0.155-0.466-0.388l-2.874-3.262c-0.311-0.311-1.398-1.476-1.553-1.864-0.155-0.466-0.388-0.777-0.699-1.087-0.854-1.010-2.252-1.398-3.495-1.010-0.777 0.155-1.398 0.621-1.864 1.243-0.388 0.466-3.728 3.573-4.505 4.272-0.466 0.466-0.777 0.777-1.32 1.243-0.777 0.699-1.165 1.553-0.932 2.641 0.078 0.388 0.233 0.621 0.311 0.932l-2.641 2.641 0.699 0.777 2.718-2.718c0.777 0.466 1.631 0.777 2.641 0.233 0.466-0.233 0.621-0.466 1.010-0.777l3.573-3.34c0.932-0.777 0.854-0.311 1.864 0.777l1.709 1.864c0.233 0.233 0.155 0.233 0.155 0.699 0 0.311 0.078 0.544 0.155 0.777 0.155 0.854 0.311 0.466 0.311 1.32v5.282h-1.476v3.029h-1.010v7.845h-9.010v-7.845h-1.010v-1.010h1.010v-1.010h-1.010c-0.466-1.087-1.010-2.019-2.485-2.019-1.553 0-3.029 0-4.505 0v2.019h-1.010v1.010h1.010v1.010h-1.010c0.078 1.709 0 4.738 0 6.757 0 0.233 0.078 2.019-0.078 2.175l-0.932 0.078v1.942z">
            </path>
            <path fill="#fefefe" style="fill: var(--color2, #fefefe)"
                d="M24.078 21.825c2.408-0.544 4.66 2.563 2.796 4.816-1.087 1.32-2.874 1.553-4.194 0.466-0.544-0.388-0.932-1.010-1.087-1.864-0.311-1.476 0.699-3.029 2.485-3.417zM23.146 23.379c0.233 0.155 0.544 0.311 0.777 0.466-0.078 0.311-0.388 0.544-0.466 0.854-0.155-0.078-0.233-0.155-0.388-0.233s-0.078-0.078-0.233-0.078c-0.233-0.155-0.078-0.078-0.233 0 0 0-0.233 1.010 0.155 0.854 0.233-0.078 0.466-0.311 0.699-0.388 0.078 0.311 0.388 0.621 0.466 0.854-0.155 0.155-0.621 0.388-0.777 0.466 0.155 0.233 0.544 0.466 0.854 0.544v-0.932h1.087v0.932c0.388-0.078 0.621-0.311 0.854-0.466-0.155-0.233-0.544-0.388-0.777-0.544 0.155-0.155 0.388-0.621 0.466-0.854 0.621 0.155 1.087 1.165 0.854-0.544-0.233 0-0.544 0.311-0.854 0.388-0.155-0.311-0.311-0.544-0.466-0.854 0.233-0.078 0.544-0.388 0.777-0.388-0.155-0.311-0.466-0.544-0.854-0.544v0.854h-1.087l0.078-0.854c-0.388 0-0.777 0.233-0.932 0.466z">
            </path>
            <path fill="#fefefe" style="fill: var(--color2, #fefefe)"
                d="M18.252 1.398c1.631-0.311 3.107 1.786 1.864 3.34-0.699 0.854-1.942 1.010-2.796 0.311-0.388-0.311-0.699-0.699-0.777-1.32-0.233-1.010 0.466-2.019 1.709-2.33zM17.631 2.485c0.078 0.078 0.388 0.233 0.466 0.311-0.078 0.233-0.233 0.388-0.311 0.621-0.078-0.078-0.155-0.078-0.233-0.155-0.155-0.078-0.078-0.078-0.155-0.078-0.155-0.078-0.078-0.078-0.155 0 0 0-0.155 0.699 0.078 0.544 0.155-0.078 0.311-0.233 0.466-0.233 0.078 0.233 0.311 0.388 0.311 0.621-0.078 0-0.388 0.233-0.544 0.233 0.155 0.233 0.388 0.311 0.621 0.388v-0.621h0.699v0.621c0.311-0.078 0.388-0.155 0.621-0.311-0.155-0.155-0.388-0.233-0.544-0.311 0.078-0.155 0.233-0.466 0.311-0.621 0.466 0.078 0.699 0.777 0.621-0.388-0.233 0-0.388 0.233-0.621 0.311-0.078-0.233-0.155-0.388-0.311-0.621 0.155-0.078 0.388-0.233 0.544-0.311-0.078-0.155-0.311-0.311-0.621-0.311v0.621h-0.699v-0.621c-0.233 0-0.466 0.155-0.544 0.311z">
            </path>
        </symbol>
        <symbol id="checkV2" viewBox="0 0 27 32">
            <path fill="currentColor" style="fill: var(--color1, currentColor)"
                d="M13.322 0.549c-0.481 0.137-0.687 0.343-0.893 0.618-0.275 0.343-0.412 0.549-0.961 0.618-1.099 0.206-1.305-0.824-2.541-0.275-1.030 0.481-0.549 1.167-1.236 1.923-0.137 0.137-0.137 0.206-0.343 0.275-0.755 0.343-1.373-0.069-2.060 0.412-1.099 0.961-0.275 1.511-0.549 2.403-0.412 1.442-2.197 0.755-2.129 2.609 0.069 0.824 1.030 1.167 0.549 2.403-0.275 0.549-1.236 0.893-0.893 2.060 0.275 1.236 2.197 1.030 1.373 3.021-0.412 0.893 0.137 1.785 0.893 1.991 0.481 0.206 1.579 0.137 1.785 1.373 0.069 0.618 0.069 1.717 1.236 1.854 0.893 0.137 1.648-0.618 2.403 0.275 0.343 0.412 0.481 1.511 1.785 1.442 0.206 0 0.412-0.069 0.549-0.137 0.412-0.206 0.687-0.824 1.717-0.687 0.824 0.069 1.030 1.030 2.129 0.755 1.099-0.206 0.961-1.167 1.579-1.579 1.099-0.687 1.579 0.275 2.609-0.206 1.442-0.687 0.206-2.335 1.785-2.953 0.412-0.137 1.579-0.069 1.854-1.236 0.137-1.030-0.824-1.579 0-2.609 0.412-0.618 2.266-1.099 0.687-2.953-0.755-0.893-0.618-1.373-0.069-2.197 0.481-0.824 0.069-1.785-0.549-2.129-0.481-0.206-1.579-0.481-1.442-1.717 0.069-0.549 0.206-0.893-0.069-1.305-0.687-1.167-1.648-0.549-2.335-0.824-1.030-0.412-0.755-1.373-1.236-1.854-0.206-0.275-0.618-0.549-1.099-0.549-1.030-0.069-1.236 0.893-2.472 0.206-0.481-0.275-0.893-1.373-2.060-1.030z">
            </path>
            <path fill="#2f303ab3" style="fill: var(--color2, #2f303ab3)"
                d="M12.635 3.090c-1.717 0.137-3.159 0.824-4.395 1.785-0.893 0.618-1.785 1.717-2.335 2.678-0.961 1.717-1.373 3.571-1.099 5.562 0.137 1.236 0.618 2.403 1.099 3.365 0.137 0.206 0.275 0.412 0.481 0.687 2.678 4.052 8.927 5.219 13.116 1.648 2.060-1.717 3.502-4.738 3.090-7.897-0.275-2.609-1.442-4.189-3.159-5.837-0.137-0.137-0.412-0.343-0.618-0.481-1.785-1.236-3.914-1.785-6.18-1.511z">
            </path>
            <path fill="currentColor" style="fill: var(--color1, currentColor)"
                d="M12.635 3.845c-1.099 0.137-2.266 0.549-3.090 1.030-0.893 0.549-1.579 1.099-2.197 1.923-1.236 1.579-2.129 3.64-1.785 6.318 0.206 1.717 1.167 3.708 2.335 4.807 3.159 2.884 7.828 3.159 11.193 0.343 3.021-2.541 3.777-6.867 1.785-10.369l-1.373-1.785c-0.206-0.206-0.343-0.275-0.549-0.481-1.579-1.373-3.708-2.060-6.318-1.785z">
            </path>
            <path fill="currentColor" style="fill: var(--color1, currentColor)"
                d="M3.777 28.773l4.67-1.373 1.854 3.090c0.069 0.137 0.206 0.343 0.343 0.481 0.137 0.275 0.206 0.412 0.412 0.549l2.609-7.004c0.275 0.343 0.549 1.305 0.755 1.717 0.206 0.618 0.412 1.167 0.618 1.785 0.275 0.618 1.236 3.021 1.373 3.502 0 0 0-0.069 0 0 0.069 0.069 1.305-1.991 1.305-1.991 0.412-0.755 0.893-1.373 1.236-2.060l4.738 1.373c-0.137-0.481-2.403-6.524-2.609-6.73-0.687 0.206-0.961 0.618-2.060 0.343-1.099-0.343-0.961 0.412-1.511 1.030-1.648 1.854-3.296-0.069-3.708-0.069-0.549 0-2.129 1.923-3.845 0.137-0.481-0.618-0.343-1.373-1.511-1.099-1.167 0.343-1.579-0.206-2.060-0.343-0.206 0.137-2.472 6.18-2.609 6.661z">
            </path>
            <path fill="#2f303ab3" style="fill: var(--color2, #2f303ab3)"
                d="M12.086 13.597c-0.618-0.618-1.236-1.236-1.854-1.854-0.275-0.275-0.618-0.755-1.236-0.618-0.412 0.137-0.824 0.618-0.618 1.167 0.069 0.343 1.511 1.648 1.785 1.991 0.343 0.343 1.648 1.717 1.923 1.854 0.343-0.206 1.442-1.305 1.785-1.648l3.502-3.571c0.343-0.343 1.511-1.442 1.717-1.854 0.206-0.481-0.137-0.961-0.412-1.099-0.687-0.343-0.961 0.069-1.236 0.343-0.687 0.687-5.013 5.082-5.356 5.288z">
            </path>
        </symbol>
    </defs>
</svg>