<svg xmlns="http://www.w3.org/2000/svg" aria-hidden="true" style="position:absolute;width:0;height:0;overflow:hidden">
    <defs>
        <symbol id="arrowLeft" viewBox="0 0 31 32">
            <path fill="none" stroke="currentColor" style="stroke: var(--color1, currentColor)" stroke-linejoin="round"
                stroke-linecap="round" stroke-miterlimit="4" stroke-width="1.6842"
                d="M25.965 16h-20.772M5.193 16l7.789-7.789M5.193 16l7.789 7.789"></path>
        </symbol>
        <symbol id="arrowRight" viewBox="0 0 31 32">
            <path fill="none" stroke="currentColor" style="stroke: var(--color1, currentColor)" stroke-linejoin="round"
                stroke-linecap="round" stroke-miterlimit="4" stroke-width="1.6842"
                d="M5.193 16h20.772M25.965 16l-7.789 7.789M25.965 16l-7.789-7.789"></path>
        </symbol>
        <symbol id="chevronDown" viewBox="0 0 31 32">
            <path stroke-linecap="round" stroke-linejoin="round" stroke-width="2.56"
                d="m24.32 12.16-8.055 8.055a1.276 1.276 0 0 1-1.81 0L6.4 12.16" />
        </symbol>
        <symbol id="globe" viewBox="0 0 31 32">
            <path fill="none" stroke="none" stroke-linecap="round" stroke-linejoin="round" stroke-miterlimit="10"
                stroke-width="2.462"
                d="M15.385 27.538c6.373 0 11.538-5.166 11.538-11.538S21.757 4.462 15.385 4.462v0C9.012 4.462 3.847 9.628 3.847 16s5.166 11.538 11.538 11.538v0z"
                style="stroke:var(--color3, currentColor)" />
            <path fill="none" stroke="none" stroke-linecap="round" stroke-linejoin="round" stroke-width="2.462"
                d="M3.846 16h23.077" style="stroke:var(--color3, currentColor)" />
            <path fill="none" stroke="none" stroke-linecap="round" stroke-linejoin="round" stroke-miterlimit="10"
                stroke-width="2.462"
                d="M15.385 27.538c2.124 0 3.846-5.166 3.846-11.538S17.508 4.462 15.385 4.462c-2.124 0-3.846 5.166-3.846 11.538s1.723 11.538 3.846 11.538z"
                style="stroke:var(--color3, currentColor)" />
        </symbol>
        <symbol id="instagram" viewBox="0 0 32 32">
            <path
                d="M16 4.989h5.505c1.295 0 1.943.324 2.429.486.648.323 1.133.485 1.619.97.486.486.809.973.972 1.619.161.486.324 1.134.486 2.429v11.009c0 1.295-.325 1.943-.486 2.429-.324.648-.486 1.133-.973 1.619-.485.486-.97.809-1.618.972-.486.161-1.134.324-2.429.486H10.496c-1.295 0-1.943-.325-2.429-.486-.648-.324-1.133-.486-1.619-.973-.486-.485-.809-.97-.972-1.618-.161-.486-.324-1.134-.486-2.429V10.494c0-1.295.325-1.943.486-2.429.324-.648.486-1.133.973-1.619.485-.486.97-.809 1.618-.972.486-.161 1.134-.324 2.429-.486H16zm0-2.429h-5.505c-1.458 0-2.429.324-3.238.648a7.11 7.11 0 0 0-2.43 1.618l-.001.001c-.809.81-1.133 1.458-1.619 2.429-.324.809-.486 1.78-.648 3.238v11.009c0 1.458.324 2.429.648 3.238a7.106 7.106 0 0 0 1.618 2.428l.001.001c.81.809 1.458 1.134 2.429 1.619.809.324 1.78.486 3.238.648h11.011c1.458 0 2.429-.324 3.238-.648a7.106 7.106 0 0 0 2.428-1.618l.001-.001c.809-.81 1.134-1.458 1.619-2.429.324-.809.486-1.78.648-3.238V10.495c0-1.458-.324-2.429-.648-3.238a7.106 7.106 0 0 0-1.618-2.428l-.001-.001c-.81-.809-1.458-1.133-2.429-1.619-.809-.324-1.78-.486-3.238-.648H16z" />
            <path
                d="M16 9.037h-.051a6.913 6.913 0 0 0-6.912 6.912v.054V16v.051a6.913 6.913 0 0 0 6.912 6.912h.054H16h.051a6.913 6.913 0 0 0 6.912-6.912v-.054V16v-.051a6.913 6.913 0 0 0-6.912-6.912h-.054H16zm0 11.497c-2.429 0-4.534-1.943-4.534-4.534 0-2.429 1.943-4.534 4.534-4.534 2.429 0 4.534 1.943 4.534 4.534 0 2.429-2.104 4.534-4.534 4.534zm7.124-10.039a1.62 1.62 0 0 0 0-3.238 1.62 1.62 0 0 0 0 3.238z" />
        </symbol>
        <symbol id="facebook" viewBox="0 0 32 32">
            <path
                d="M17.944 17.011h4.367l0.686-4.447h-5.055v-2.429c0-1.847 0.602-3.485 2.327-3.485h2.77v-3.878c-0.486-0.068-1.516-0.211-3.461-0.211-4.061 0-6.444 2.15-6.444 7.046v2.958h-4.175v4.447h4.175v12.22c0.827 0.124 1.664 0.209 2.524 0.209 0.777 0 1.536-0.072 2.285-0.173v-12.256z">
            </path>
        </symbol>
        <symbol id="mail" viewBox="0 0 32 32">
            <path stroke-linecap="round" stroke-linejoin="round" stroke-width="2.56"
                d="M26.666 6.666H5.334C4.597 6.666 4 7.264 4 8v16c0 .736.596 1.334 1.334 1.334h21.332c.737 0 1.334-.598 1.334-1.334V8c0-.736-.596-1.334-1.334-1.334z" />
            <path stroke-linecap="round" stroke-linejoin="round" stroke-width="2.56" d="m4 8 12.343 9.334L28 8" />
        </symbol>
        <symbol id="phone" viewBox="0 0 31 32">
            <path stroke-linejoin="round" stroke-linecap="round" stroke-miterlimit="4" stroke-width="2.56"
                d="M9.787 4.48h-3.521c-1.34 0-2.426 1.086-2.426 2.426v0c0 11.384 9.229 20.614 20.614 20.614 1.34 0 2.426-1.086 2.426-2.426v0-3.52c0-0 0-0.001 0-0.001 0-1.071-0.658-1.989-1.592-2.371l-0.017-0.006-3.374-1.349c-0.282-0.116-0.609-0.183-0.951-0.183-0.625 0-1.198 0.224-1.642 0.596l0.004-0.003-0.87 0.727c-0.441 0.369-1.014 0.594-1.639 0.594-0.707 0-1.347-0.287-1.81-0.75l-2.456-2.456c-0.463-0.463-0.749-1.103-0.749-1.81 0-0.625 0.224-1.198 0.596-1.643l-0.003 0.004 0.727-0.872c0.369-0.441 0.593-1.013 0.593-1.638 0-0.343-0.067-0.67-0.189-0.968l0.006 0.017-1.348-3.373c-0.388-0.951-1.306-1.609-2.377-1.609-0 0-0 0-0 0v0z">
            </path>
        </symbol>
        <symbol id="hamburgerMenu" viewBox="0 0 32 32">
            <path fill="none" stroke="#373738" style="stroke: var(--color1, #373738)" stroke-linejoin="round"
                stroke-linecap="round" stroke-miterlimit="4" stroke-width="2.4"
                d="M6.666 22.666h18.667M6.666 16h18.667"></path>
            <path fill="none" stroke="#8b263a" style="stroke: var(--color2, #8b263a)" stroke-linejoin="round"
                stroke-linecap="round" stroke-miterlimit="4" stroke-width="2.4" d="M6.666 9.334h18.667"></path>
        </symbol>
        <symbol id="iconClose" viewBox="0 0 32 32">
            <path fill="none" stroke="#8b263a" style="stroke: var(--color1, #8b263a)" stroke-linejoin="round"
                stroke-linecap="round" stroke-miterlimit="4" stroke-width="2.4" d="M24 24l-16-16"></path>
            <path fill="none" stroke="#8b263a" style="stroke: var(--color1, #8b263a)" stroke-linejoin="round"
                stroke-linecap="round" stroke-miterlimit="4" stroke-width="2.4" d="M24 8l-16 16"></path>
        </symbol>
        <symbol id="consultation" viewBox="0 0 28 32">
            <path
                d="M8.039 10.693c-0.234 0.078-0.312 0-0.468 0.234-0.234 0.468-0.156 1.561-0.078 2.029 0.234 0.78 0.546 1.405 0.937 2.029 0.234 0.468 1.093 1.015 1.639 1.249 0.702 0.39 1.483 0.546 2.498 0.546 0.624-1.483 2.419-0.937 2.419 0.312 0 0.624-0.468 1.171-1.015 1.249-0.702 0.156-0.937-0.234-1.405-0.624-1.483-0.078-1.951-0.234-3.044-0.702 0.078 0.312 0.312 0.78 0.468 0.937 0.156 0.312 0.468 0.624 0.546 0.859-1.093 0.702-2.341 1.171-3.59 1.795-0.624 0.312-1.249 0.546-1.873 0.78-0.546 0.312-1.249 0.546-1.795 0.937-1.795 1.249-3.278 4.605-3.278 7.649 2.81 1.093 3.278 1.171 6.556 1.639 4.605 0.624 10.146 0.546 14.829 0 1.873-0.234 3.356-0.546 5.073-1.093 0.624-0.156 0.937-0.312 1.483-0.546-0.078-0.859-0.156-1.483-0.312-2.341-0.546-2.341-1.639-4.839-3.824-5.776-1.327-0.546-4.527-1.951-5.62-2.576-0.234-0.234-0.624-0.312-0.859-0.546 0.859-0.546 1.483-2.81 1.483-2.81l0.702-0.859c0.624-1.015 1.093-2.263 0.937-3.512-0.078-0.78-0.078-0.624-0.624-0.937 0-2.498 0.234-4.059-1.015-5.776-2.029-2.81-7.649-2.81-9.678 0-1.327 1.795-1.015 3.278-1.093 5.854z">
            </path>
            <path
                d="M4.449 9.912c0 0.546-0.39 0.312-0.624 0.937-0.156 0.39-0.078 1.093-0.078 1.561 0 1.717-0.234 2.576 1.483 2.888 1.873 0.312 1.561-1.639 1.561-3.044 0-2.732-0.468-1.951-1.249-2.419-0.234-2.107 1.015-4.761 2.42-6.166 2.42-2.498 6.4-3.356 9.6-1.717 1.873 0.937 3.512 2.42 4.215 4.371 0.312 0.937 0.78 2.341 0.624 3.512-0.624 0.156-0.702 0.078-1.015 0.546-0.234 0.39-0.234 0.78-0.234 1.405 0 0.78-0.156 2.341 0.156 2.966 0.468 0.78 1.483 0.702 2.263 0.234 0.859-0.546 0.624-1.405 0.624-2.732 0-0.468 0.078-0.937-0.078-1.327-0.234-0.937-0.624-0.078-0.624-1.327 0.078-4.137-2.341-7.337-5.698-8.819-2.341-1.015-5.463-1.093-7.883 0.078-3.434 1.717-5.541 4.761-5.463 9.054z">
            </path>
        </symbol>
        <symbol id="approval" viewBox="0 0 31 32">
            <path fill="currentColor" style="fill: var(--color1, currentColor)"
                d="M16.78 14.751c-1.405 0-1.717 0.078-3.044-0.702-0.312-0.078-0.624-0.312-0.859-0.546-0.234-0.156-0.546-0.39-1.015-0.39-1.405 0-3.2 0.937-4.215 1.951-2.029 2.107-2.81 4.839-3.668 5.62-0.156 0.234-0.624 0.546-0.859 0.702-0.78 0.312-2.341 0.39-2.888 1.717-0.468 1.093-0.156 1.561 0.312 2.341h0.39c0.156-0.859 0.937-1.483 1.873-1.483 1.093 0 1.951 0.78 2.029 1.795 0.234 0 0.702 0.078 1.405 0 0.234 0 2.029 0 2.029 0v-8.117c0-0.702 0.624-1.327 1.327-1.327h1.171c0.546-0.078 1.171-0.078 1.873-0.078 0.312 0 0.702 0.078 1.093 0.078h8.976c0.702 0 1.327 0.624 1.327 1.327v7.805c0.078 0.078 4.449-0.078 4.683-0.156 0.546-0.234 0.624-1.171 0.624-1.717 0-4.683-4.683-10.615-8.819-10.459-0.702-0.156-0.859 0.702-2.419 1.327-0.312 0.078-1.093 0.312-1.327 0.312z">
            </path>
            <path fill="currentColor" style="fill: var(--color1, currentColor)"
                d="M15.454 0.078c-1.093 0.156-1.483 0.156-2.263 0.624-3.278 2.029-2.576 7.571-0.624 10.615 0.78 1.249 1.951 1.873 3.2 1.951h0.312c0 0 0 0 0 0s0 0 0 0h0.234c1.249-0.078 2.419-0.702 3.2-1.951 2.029-3.044 2.732-8.585-0.624-10.615-0.702-0.468-1.171-0.468-2.185-0.624-0.234-0.078-0.39-0.078-0.624-0.078s-0.468 0-0.624 0.078z">
            </path>
            <path fill="currentColor" style="fill: var(--color2, currentColor)"
                d="M10.693 17.249h11.161c0.647 0 1.171 0.524 1.171 1.171v5.932c0 0.647-0.524 1.171-1.171 1.171h-11.161c-0.647 0-1.171-0.524-1.171-1.171v-5.932c0-0.647 0.524-1.171 1.171-1.171z">
            </path>
            <path fill="currentColor" style="fill: var(--color2, currentColor)"
                d="M0.546 26.381h30.127c0.302 0 0.546 0.629 0.546 1.405v2.81c0 0.776-0.245 1.405-0.546 1.405h-30.127c-0.302 0-0.546-0.629-0.546-1.405v-2.81c0-0.776 0.245-1.405 0.546-1.405z">
            </path>
        </symbol>
        <symbol id="montage" viewBox="0 0 27 32">
            <path
                d="M3.914 6.318c0.549-0.137 1.099-0.137 1.648 0l0.549-1.236 0.961 0.412-0.549 1.236c0.412 0.275 0.824 0.687 1.099 1.167l1.305-0.481 0.343 0.961-1.236 0.481c0.137 0.618 0.069 1.167-0.069 1.648l1.305 0.549-0.412 0.961-1.305-0.549c-0.275 0.481-0.687 0.893-1.167 1.167l0.481 1.305-0.961 0.343-0.481-1.236c-0.549 0.069-1.099 0.069-1.648-0.069l-0.549 1.305-0.961-0.412 0.549-1.305c-0.481-0.275-0.893-0.687-1.167-1.167l-1.236 0.481-0.412-0.961 1.305-0.481c-0.137-0.549-0.137-1.167 0-1.648l-1.236-0.549 0.412-0.961 1.236 0.549c0.275-0.481 0.687-0.893 1.167-1.167l-0.481-1.305 0.961-0.343 0.549 1.305zM4.051 8.172c0.824-0.343 1.785 0.069 2.060 0.893 0.343 0.824-0.069 1.717-0.893 2.060s-1.717-0.069-2.060-0.893c-0.275-0.824 0.069-1.717 0.893-2.060z">
            </path>
            <path
                d="M18.129 25.476c0.481-0.137 0.961-0.137 1.373 0l0.412-1.030 0.824 0.343-0.481 1.030c0.412 0.206 0.687 0.549 0.961 0.961l1.030-0.412 0.343 0.824-1.099 0.412c0.137 0.412 0.137 0.893 0 1.305l1.030 0.481-0.343 0.755-1.030-0.412c-0.206 0.343-0.549 0.687-0.961 0.893l0.412 1.030-0.824 0.343-0.412-1.030c-0.412 0.069-0.893 0.069-1.305-0.069l-0.481 1.030-0.755-0.343 0.412-1.030c-0.343-0.206-0.687-0.549-0.893-0.961l-1.030 0.412-0.343-0.755 1.030-0.412c-0.069-0.481-0.069-0.961 0.069-1.373l-1.030-0.412 0.275-0.824 1.099 0.481c0.206-0.412 0.549-0.755 0.961-0.961l-0.412-1.030 0.755-0.343 0.412 1.099zM18.266 26.987c0.687-0.275 1.442 0.069 1.717 0.755 0.275 0.618-0.069 1.373-0.755 1.648-0.618 0.275-1.373-0.069-1.648-0.687-0.275-0.687 0.069-1.442 0.687-1.717z">
            </path>
            <path
                d="M19.227 7.142c0 0.206 0 0.412 0 0.549 0 2.129-1.030 3.983-2.541 4.944l3.708 1.030 4.395 7.897-1.305 6.112h-0.343l-0.618-1.648h-0.069v-0.069l-0.275 0.069h-0.343l-0.549 0.275c-0.137-0.206-0.343-0.412-0.481-0.549l0.549-1.099-0.549-0.275 0.618-1.991-1.030-1.854v3.708l-0.618-0.275-0.481 1.099c-0.343 0-0.618-0.069-0.961 0l-0.412-1.099-1.442 0.549 0.481 1.099c-0.275 0.206-0.481 0.412-0.687 0.687l-1.099-0.481-0.275 0.549h-0.824l-3.021-1.579 0.206-0.481 2.403 0.961c2.884-0.961-2.884-6.112-5.082-2.472v-5.288l-3.021 1.717 1.167 5.288c0.893 2.335-2.541 3.159-3.021 1.167l-1.373-6.592c-0.412-2.060 0.618-2.266 1.579-2.815 1.579-0.893 3.090-1.717 4.67-2.609l3.571-1.030c-1.511-0.893-2.541-2.815-2.541-4.944 0-0.137 0-0.343 0.069-0.549h9.545z">
            </path>
            <path
                d="M14.352 0c0.343 0 0.755 0.137 0.893 0.618v4.67h0.687v-4.532c1.854 0.687 3.159 2.403 3.296 4.532h0.206c0.412 0 0.687 0.343 0.687 0.687v0c0 0.412-0.275 0.687-0.687 0.687h-10.026c-0.412 0-0.687-0.275-0.687-0.687v0c0-0.343 0.275-0.687 0.687-0.687h0.206c0.137-2.129 1.511-3.845 3.296-4.532v4.532h0.687v-4.67c0.069-0.343 0.481-0.618 0.755-0.618z">
            </path>
            <path
                d="M2.129 26.3c0.206 0.137 0.412 0.206 0.549 0.137 2.197-0.206 2.472-0.206 3.433-0.343 0-0.069-0.137-1.236-0.137-1.442 0-0.069 0-0.137 0-0.206-0.069 0-0.549 0.069-0.687 0.069l-1.854 0.206c-0.824 0.069 3.159-0.343 2.335-0.275l-3.090 0.343c-0.206 0-0.412 0.069-0.618 0.206-0.343 0.412-0.343 0.961 0.069 1.305zM9.339 24.584c0.069 0.069 0.137 0.137 0.137 0.275 0.069 0.069 0.137 0.137 0.206 0.206 0 0 0-0.069 0.069-0.137 0-0.069 0-0.137-0.069-0.206-0.069 0-0.343-0.137-0.343-0.137zM8.378 25.545c-0.069 0.069-0.137 0.206-0.137 0.275-0.069 0.137 0.069 0.206 0.206 0.206 0.069 0.069 0.206 0.137 0.275 0.137 0.069 0.069 0.206 0.137 0.343 0.137 0-0.069-0.206-0.343-0.275-0.412-0.137-0.137-0.206-0.206-0.412-0.343zM8.584 24.996l-0.137 0.412c0.069 0.069 0.137 0.069 0.206 0.137 0.137 0.137 0.275 0.275 0.412 0.412 0 0.069 0.069 0.206 0.069 0.275 0.069-0.069 0.137-0.275 0.206-0.343 0-0.069 0-0.069-0.069-0.069l-0.069-0.275c-0.137-0.206-0.343-0.481-0.618-0.549zM8.858 24.446c-0.069 0-0.137 0.275-0.206 0.412 0.275 0.137 0.412 0.275 0.618 0.549 0.069 0.069 0.069 0.206 0.137 0.206 0 0 0.137-0.275 0.137-0.343s-0.343-0.755-0.687-0.824zM10.026 26.918c0.206 0.069 0.687 0.137 0.893 0.137 0.481 0 1.305-0.069 1.717-0.343 0.275-0.137 0.343-0.343 0.275-0.618-0.137-0.275-0.206-0.275-0.618-0.412l-0.893-0.412c-0.069-0.069-0.137-0.069-0.206-0.137-0.137-0.069-0.137-0.069-0.275 0-0.206 0.137-0.137 0.137-0.275 0.412-0.137 0.206-0.618 1.305-0.618 1.373zM6.249 24.378l0.137 1.717 0.343 0.069c0.549 0.206 1.442 0.618 1.923 0.893 0.275 0.206 0.549 0.343 0.824 0.481 0-0.137 0.343-0.824 0.412-0.961 0.137-0.343 0.275-0.687 0.412-0.961 0.137-0.343 0.275-0.687 0.412-0.961 0.069-0.206 0.137-0.343 0.206-0.481s0.137-0.137 0.206-0.206c0.069 0 0.137-0.069 0.206-0.069 0.069-0.069 0.069-0.069 0.275 0 0.069 0.069 0.137 0.069 0.206 0.137l1.442 0.687c0.137 0 0.137 0.069 0.275 0 0.206 0 0.481-0.069 0.412-0.412 0-0.275-0.275-0.618-0.549-0.893-1.167-1.305-2.472-1.717-3.708-1.030-0.275 0.137-0.549 0.412-0.824 0.618-0.755 0.549-1.373 0.824-2.197 1.167-0.137 0.069-0.275 0.137-0.412 0.206zM9.82 24.515c-0.137-0.069-0.275-0.137-0.412-0.206-0.206-0.069-0.549-0.275-0.755-0.069-0.069 0.137-0.137 0.343-0.206 0.412-0.069 0.206-0.481 1.099-0.481 1.236 0 0.275 0.275 0.343 0.618 0.481 0.206 0.137 0.549 0.343 0.755 0.069 0.069-0.069 0.137-0.275 0.206-0.412 0.137-0.275 0.206-0.549 0.343-0.824 0.069-0.069 0.137-0.275 0.137-0.343 0-0.137-0.069-0.275-0.206-0.343zM2.884 25.27c-0.206-0.069-0.412-0.069-0.549 0.206-0.206 0.412 0.481 0.755 0.687 0.275 0.069-0.137 0.069-0.343-0.137-0.481z">
            </path>
            <path
                d="M22.043 9.957c0.549-0.137 1.099-0.137 1.648 0l0.549-1.236 0.961 0.412-0.549 1.236c0.481 0.275 0.893 0.687 1.167 1.236l1.236-0.549 0.412 0.961-1.305 0.549c0.137 0.549 0.137 1.099 0 1.648l1.236 0.549-0.412 0.961-1.236-0.549c-0.275 0.412-0.687 0.824-1.167 1.099l0.481 1.305-0.961 0.412-0.549-1.305c-0.549 0.137-1.099 0.069-1.648-0.069l-0.549 1.305-0.961-0.412 0.549-1.305c-0.412-0.275-0.824-0.687-1.099-1.167l-1.305 0.481-0.343-0.961 1.236-0.481c-0.137-0.549-0.069-1.099 0.069-1.648l-1.305-0.549 0.412-0.961 1.305 0.549c0.275-0.481 0.687-0.893 1.167-1.167l-0.481-1.236 0.961-0.412 0.481 1.305zM22.249 11.811c0.824-0.275 1.717 0.069 2.060 0.893 0.275 0.824-0.069 1.785-0.893 2.060-0.824 0.343-1.785-0.069-2.060-0.893-0.343-0.824 0.069-1.717 0.893-2.060z">
            </path>
        </symbol>
        <symbol id="producing" viewBox="0 0 31 32">
            <path fill="currentColor" style="fill: var(--color1, currentColor)"
                d="M0 32h31.068v-1.942h-0.932c-0.078-0.155-0.078-0.311-0.078-0.544 0-0.155 0-0.311 0-0.544 0-2.175-0.078-6.136 0-7.922h-1.010v-3.029h-1.476v-5.204c0-0.777 0.155-0.777 0.311-1.32 0.311-1.087 0.078-2.097-0.388-2.874-0.233-0.311-0.466-0.621-0.777-0.854-0.233-0.233-0.233-0.155-0.466-0.388l-2.874-3.262c-0.311-0.311-1.398-1.476-1.553-1.864-0.155-0.466-0.388-0.777-0.699-1.087-0.854-1.010-2.252-1.398-3.495-1.010-0.777 0.155-1.398 0.621-1.864 1.243-0.388 0.466-3.728 3.573-4.505 4.272-0.466 0.466-0.777 0.777-1.32 1.243-0.777 0.699-1.165 1.553-0.932 2.641 0.078 0.388 0.233 0.621 0.311 0.932l-2.641 2.641 0.699 0.777 2.718-2.718c0.777 0.466 1.631 0.777 2.641 0.233 0.466-0.233 0.621-0.466 1.010-0.777l3.573-3.34c0.932-0.777 0.854-0.311 1.864 0.777l1.709 1.864c0.233 0.233 0.155 0.233 0.155 0.699 0 0.311 0.078 0.544 0.155 0.777 0.155 0.854 0.311 0.466 0.311 1.32v5.282h-1.476v3.029h-1.010v7.845h-9.010v-7.845h-1.010v-1.010h1.010v-1.010h-1.010c-0.466-1.087-1.010-2.019-2.485-2.019-1.553 0-3.029 0-4.505 0v2.019h-1.010v1.010h1.010v1.010h-1.010c0.078 1.709 0 4.738 0 6.757 0 0.233 0.078 2.019-0.078 2.175l-0.932 0.078v1.942z">
            </path>
            <path fill="#2f2d2e" style="fill: var(--color2, #2f2d2e)"
                d="M24.078 21.825c2.408-0.544 4.66 2.563 2.796 4.816-1.087 1.32-2.874 1.553-4.194 0.466-0.544-0.388-0.932-1.010-1.087-1.864-0.311-1.476 0.699-3.029 2.485-3.417zM23.146 23.379c0.233 0.155 0.544 0.311 0.777 0.466-0.078 0.311-0.388 0.544-0.466 0.854-0.155-0.078-0.233-0.155-0.388-0.233s-0.078-0.078-0.233-0.078c-0.233-0.155-0.078-0.078-0.233 0 0 0-0.233 1.010 0.155 0.854 0.233-0.078 0.466-0.311 0.699-0.388 0.078 0.311 0.388 0.621 0.466 0.854-0.155 0.155-0.621 0.388-0.777 0.466 0.155 0.233 0.544 0.466 0.854 0.544v-0.932h1.087v0.932c0.388-0.078 0.621-0.311 0.854-0.466-0.155-0.233-0.544-0.388-0.777-0.544 0.155-0.155 0.388-0.621 0.466-0.854 0.621 0.155 1.087 1.165 0.854-0.544-0.233 0-0.544 0.311-0.854 0.388-0.155-0.311-0.311-0.544-0.466-0.854 0.233-0.078 0.544-0.388 0.777-0.388-0.155-0.311-0.466-0.544-0.854-0.544v0.854h-1.087l0.078-0.854c-0.388 0-0.777 0.233-0.932 0.466z">
            </path>
            <path fill="#2f2d2e" style="fill: var(--color2, #2f2d2e)"
                d="M18.252 1.398c1.631-0.311 3.107 1.786 1.864 3.34-0.699 0.854-1.942 1.010-2.796 0.311-0.388-0.311-0.699-0.699-0.777-1.32-0.233-1.010 0.466-2.019 1.709-2.33zM17.631 2.485c0.078 0.078 0.388 0.233 0.466 0.311-0.078 0.233-0.233 0.388-0.311 0.621-0.078-0.078-0.155-0.078-0.233-0.155-0.155-0.078-0.078-0.078-0.155-0.078-0.155-0.078-0.078-0.078-0.155 0 0 0-0.155 0.699 0.078 0.544 0.155-0.078 0.311-0.233 0.466-0.233 0.078 0.233 0.311 0.388 0.311 0.621-0.078 0-0.388 0.233-0.544 0.233 0.155 0.233 0.388 0.311 0.621 0.388v-0.621h0.699v0.621c0.311-0.078 0.388-0.155 0.621-0.311-0.155-0.155-0.388-0.233-0.544-0.311 0.078-0.155 0.233-0.466 0.311-0.621 0.466 0.078 0.699 0.777 0.621-0.388-0.233 0-0.388 0.233-0.621 0.311-0.078-0.233-0.155-0.388-0.311-0.621 0.155-0.078 0.388-0.233 0.544-0.311-0.078-0.155-0.311-0.311-0.621-0.311v0.621h-0.699v-0.621c-0.233 0-0.466 0.155-0.544 0.311z">
            </path>
        </symbol>
        <symbol id="manufacture" viewBox="0 0 27 32">
            <path
                d="M12.429 14.009c0.069-0.069 0 0 0.069-0.137 0.137-0.343 0-1.236-0.069-1.579-0.069-0.206-0.206-0.481-0.343-0.687v0 0 0c-0.137-0.275-0.275-0.481-0.481-0.618-0.137-0.137-0.206-0.275-0.343-0.412v0 0c-0.618-0.481-1.511-0.755-2.197-0.755-0.755 0.137-1.167 0.137-1.717 0.481-0.481 0.343-0.824 0.687-1.167 1.099-0.687 1.099-0.755 2.129-0.206 3.433l0.549-0.069c0.069-0.275-0.755-1.305 0.069-2.815 0.137-0.275 0.275-0.481 0.549-0.687 0.343-0.412 0.893-0.618 1.442-0.755 0.549-0.069 1.099 0 1.511 0.137 0.137 0.069 0.412 0.206 0.618 0.343v0c0.137 0.137 0.275 0.275 0.412 0.412 0.275 0.206 0.549 0.755 0.687 1.099 0.137 0.549 0.137 1.099 0 1.579l0.618-0.069zM9.064 11.536c-0.961 0-1.785 0.755-1.785 1.785 0 0.481 0.206 0.961 0.549 1.236l2.747-0.343c0.206-0.275 0.275-0.549 0.275-0.893 0-1.030-0.755-1.785-1.785-1.785zM13.322 0.618l0.412-0.206c0-0.069 0.069-0.069 0.069-0.069v0 0c0.412-0.206 0.549 0.343 0.961 0.618s0.824-0.137 1.030-0.481c0.069-0.137 0.137-0.206 0.206-0.275 0.137 0 0.961 0.275 1.099 0.343 0 0.275-0.206 0.961 0.137 1.236 0.412 0.275 0.824 0.069 1.236 0 0.137 0.137 0.481 0.893 0.481 1.099 0 0.069-0.755 0.412-0.687 0.961 0 0.206 0.069 0.206 0.137 0.343s0.206 0.275 0.481 0.412c0.206 0.137 0.275 0.069 0.069 0.687-0.069 0.069-0.069 0.137-0.137 0.275-0.069 0.275-0.206 0.206-0.618 0.206-0.069 0-0.137 0-0.206 0l-1.373-0.137c0.069-0.069 0.137-0.137 0.275-0.206 0.618-0.824 0.687-1.785 0.137-2.609-0.412-0.687-1.167-0.961-1.991-0.961-0.343 0.069-0.549 0.206-0.687 0.275-0.893 0.343-1.442 1.511-1.030 2.609 0.137 0.481 0.481 0.824 0.893 1.099 0 0 0 0 0 0 0.549 0.343 1.167 0.343 1.648 0.206l-0.893 1.236c-0.137 0.137-0.206 0.343-0.343 0.481l-0.069 0.069c0 0 0 0 0 0-0.069 0.069-1.030-0.275-1.099-0.343-0.069-0.137 0.206-0.961-0.206-1.236-0.137-0.137-0.412-0.137-0.618-0.137-0.687 0.069-0.481 0.343-0.893-0.412-0.412-0.824-0.206-0.412 0.275-0.961 0.549-0.687 0-1.030-0.618-1.442 0.069-0.206 0.275-0.961 0.412-1.099 0.412-0.069 0.961 0.137 1.236-0.206 0.343-0.481-0.069-0.893 0.069-1.236 0 0 0-0.069 0.069-0.069 0.069-0.069 0.069-0.069 0.137-0.069zM17.717 6.249c-0.069 0.549 0 1.236 0 1.717 0 0.687 0 1.373 0.069 2.060 0 1.442 0 2.815 0 4.258l1.030 0.206 0.206-7.073v-0.137c0.275-0.069 1.511-0.069 1.785 0l0.069 7.554 1.030 0.206c0.069-1.030 0.069-2.197 0.137-3.296 0-0.481 0-1.030 0.069-1.579 0-1.305-0.137-1.236 0.412-1.236 0.275 0 1.167-0.069 1.373 0l0.137 6.524c0.137 0.069 0.481 0.069 0.618 0.137 0.343 0.069 0.481 0 0.412 0.275v9.682l-10.3 1.167-15.313-1.099 0.069-9.888c0.206-0.137 0.893-0.137 1.236-0.206 0.549-0.137 3.296-0.343 3.639-0.481-0.069-0.206-0.481-0.343-0.687-0.412-0.687-0.206-0.961 0.069-0.961-0.618 0-0.412-0.137-1.442 0.069-1.511 0.069-0.069 0-0.069 0.069-0.069 0.549-0.137 1.923-0.343 1.648-1.373-0.069-0.549-0.275-0.824-0.549-1.167-0.206-0.343 0-0.412 0.275-0.755l0.618-0.618c0.206-0.206 0.275-0.343 0.549-0.137 1.167 0.824 2.060 0.755 2.403-0.687 0.206-0.893-0.137-0.618 1.167-0.755 0.961 0.069 0.824-0.137 1.030 0.549 0.206 1.030 0.687 1.717 1.854 1.167 0.961-0.481 0.687-0.824 1.511 0.069 0.549 0.549 0.893 0.618 0.549 1.030-0.412 0.549-0.824 1.511-0.069 2.060 0.961 0.618 1.511-0.069 1.511 0.893 0 0.206 0 0.412 0 0.618 0 0.481 0.069 0.343-0.069 0.412l0.137 0.069h0.206l0.206-6.661 0.755-0.961 1.099 0.069zM15.725 21.906v1.717c0.275 0.069 3.639-0.275 4.258-0.275l2.129-0.206c0.687-0.069 1.442-0.069 2.060-0.137v-1.305c-0.275 0-0.755 0-1.030 0.069-0.687 0-2.541 0-3.227 0.069-0.343 0-0.755 0-1.099 0l-3.090 0.069zM24.172 17.785v-1.236l-8.446-1.236c0 0.481 0 0.961 0 1.373 0 0.549-0.137 0.343 0.893 0.481 0.481 0.069 7.279 0.618 7.554 0.618zM15.725 20.326c0.275 0.069 1.785 0 2.197 0h5.219c0.275 0 0.755 0 1.030-0.069v-1.236l-6.318-0.343c-0.481 0-1.785-0.137-2.129-0.069v1.717zM0.412 23.004l13.391 0.687 0.069-1.717c-0.412-0.069-9.339-0.137-10.094-0.137-0.687 0-2.884-0.137-3.365-0.069v1.236zM0.412 16.687v1.236l6.661-0.412c1.099-0.137 2.335-0.206 3.433-0.275 0.549 0 1.099-0.069 1.648-0.069l1.236-0.069c0.206 0 0.275-0.069 0.412-0.069l0.069-1.717c-0.549 0-2.609 0.275-3.365 0.343-1.099 0.069-2.266 0.206-3.365 0.343l-5.906 0.618c-0.206 0-0.549 0-0.824 0.069zM0.412 19.021v1.305h13.459v-1.717l-13.459 0.412z">
            </path>
            <path
                d="M16.893 4.67c0.206-0.549 0.069-1.373-0.206-1.717-0.137-0.069-0.137-0.137-0.206-0.206-0.549-0.481-1.373-0.618-1.923-0.343-1.511 0.755-1.167 2.678-0.069 3.159 1.030 0.481 1.991 0 2.403-0.893zM15.245 2.884c0.618 0 1.099 0.549 1.099 1.099 0 0.618-0.481 1.099-1.099 1.099-0.549 0-1.030-0.481-1.030-1.099 0-0.549 0.481-1.099 1.030-1.099z">
            </path>
        </symbol>
        <symbol id="check" viewBox="0 0 24 32">
            <path
                d="M1.625 29.174l4.804-1.413 1.978 3.179c0.071 0.141 0.212 0.353 0.283 0.494 0.141 0.212 0.212 0.424 0.424 0.565l2.755-7.205c0.212 0.283 0.565 1.342 0.706 1.766 0.283 0.636 0.494 1.201 0.706 1.766 0.283 0.706 1.272 3.179 1.342 3.673 0 0 0.071-0.071 0.071-0.071 0.071 0.071 1.342-1.978 1.342-1.978 0.424-0.777 0.848-1.413 1.272-2.19l4.804 1.413c-0.071-0.424-2.472-6.64-2.614-6.923-0.706 0.283-0.989 0.706-2.119 0.424-1.201-0.353-0.989 0.424-1.554 0.989-1.695 1.907-3.461 0-3.885 0-0.565-0.071-2.119 1.978-3.885 0.071-0.565-0.565-0.353-1.413-1.554-1.060-1.272 0.353-1.695-0.212-2.19-0.424-0.141 0.212-2.543 6.358-2.684 6.923z">
            </path>
            <path
                d="M11.444 0.071c1.272-0.353 1.625 0.777 2.119 1.060 1.342 0.706 1.483-0.283 2.543-0.212 0.565 0 0.918 0.283 1.201 0.565 0.424 0.494 0.212 1.483 1.272 1.907 0.706 0.283 1.695-0.283 2.402 0.848 0.212 0.424 0.141 0.848 0.071 1.342-0.141 1.342 0.989 1.554 1.413 1.837 0.636 0.283 1.13 1.342 0.636 2.119-0.565 0.918-0.777 1.342 0.071 2.261 1.625 1.907-0.283 2.472-0.777 3.108-0.777 1.060 0.212 1.625 0 2.614-0.212 1.272-1.483 1.201-1.837 1.342-1.625 0.565-0.353 2.331-1.907 2.967-1.060 0.494-1.483-0.494-2.614 0.283-0.636 0.424-0.565 1.413-1.625 1.625-1.201 0.212-1.413-0.706-2.261-0.848-0.989-0.141-1.272 0.494-1.695 0.706-0.141 0.071-0.424 0.141-0.636 0.212-1.342 0.071-1.483-1.13-1.766-1.483-0.777-0.918-1.625-0.212-2.472-0.353-1.272-0.141-1.272-1.201-1.342-1.907-0.141-1.201-1.342-1.201-1.837-1.342-0.777-0.212-1.342-1.13-0.918-2.119 0.848-1.978-1.13-1.837-1.413-3.038-0.353-1.272 0.636-1.554 0.918-2.19 0.565-1.201-0.494-1.554-0.565-2.472-0.071-1.907 1.837-1.201 2.26-2.614 0.283-0.989-0.565-1.554 0.565-2.472 0.636-0.565 1.342-0.071 2.049-0.424 0.212-0.141 0.283-0.212 0.424-0.353 0.636-0.777 0.212-1.483 1.201-1.978 1.342-0.565 1.483 0.565 2.684 0.353 0.494-0.141 0.706-0.353 0.918-0.636 0.283-0.353 0.494-0.565 0.918-0.706zM10.879 4.309c-0.989 0.141-2.049 0.565-2.826 0.989-0.848 0.494-1.413 0.989-2.049 1.766-1.13 1.483-1.978 3.391-1.625 5.793 0.141 1.625 1.060 3.461 2.19 4.45 2.826 2.684 7.205 2.967 10.243 0.353 2.826-2.402 3.532-6.358 1.695-9.607l-1.272-1.625c-0.141-0.212-0.283-0.212-0.494-0.424-1.483-1.272-3.391-1.907-5.863-1.695z">
            </path>
            <path
                d="M7.982 11.514l2.261 2.331 5.581-5.157 1.483 1.625-5.581 5.086h0.071l-1.625 1.554-0.071 0.071-0.071-0.071c-1.201-1.342-2.331-2.543-3.603-3.885l1.554-1.554z">
            </path>
        </symbol>
        <symbol id="key" viewBox="0 0 27 32">
            <path
                d="M0.069 10.026c1.923-0.069 3.365 0.137 4.464 1.167 0.893 0.893 2.335 1.717 3.571 2.266 0.618 0.343 1.236 0.687 1.785 1.030 1.785 1.030 3.159 2.129 4.532 2.953 0.275 0.137 0.687 0.275 0.961 0.412 0 0.893-1.030 0.137-0.893 2.884 0.069 2.403 0.687 2.060 1.305 2.472 0 0.275 0 0.618 0 0.893 0 0.618 0.069 0.343 0.275 0.755-0.412 0.275-0.343 0.549-0.069 0.893-0.137 0.481-0.412 0.481 0.069 1.030-0.412 0.687-0.481 1.717 0.412 2.129 0.893-0.412 0.687-1.236 0.687-2.403 0-1.099 0-2.266 0-3.365 0.687-0.343 1.167-0.206 1.305-2.129 0-0.549 0-1.167-0.137-1.648-0.206-0.824-0.069-0.824-0.755-1.099l0.137-1.854c1.648 0.206 1.511 1.099 1.373-4.12 0-0.618-0.069-1.579-0.206-1.991-0.137-0.618-0.481-0.893-0.687-1.373 0.412 0 3.846 1.648 4.395 1.923 1.099 0.618 2.541 1.305 3.708 0.755 1.373-0.549 1.648-0.893-0.481-2.197-1.236-0.961-5.082-2.953-6.867-3.914-1.511-0.824-4.601-2.197-6.386-2.266-4.12-0.206-8.309-0.137-12.498-0.137v6.936zM17.373 19.021c-0.481 0.137-0.343 0.481-0.893 0.481-0.618 0-0.481-0.481-0.893-0.481-0.069 0.755 1.236 0.549 1.442 0.481 0.275-0.069 0.343-0.137 0.343-0.481zM16.206 18.060c0.481-0.069 0.481 0.137 0.618-0.343 0.069-0.481 0.069-1.167 0-1.717-0.206-0.755-0.206-0.549-0.343-0.687l-0.069 0.755c0.069 1.373-0.481 0.893-0.206 1.991zM16.069 14.489c0.137-0.137 0.206 0.137 0.137-0.755 0-0.824-0.206-2.472-0.549-2.953-0.755-1.030-1.717-2.060-2.747-1.236-1.648 1.373 1.648 3.365 2.815 4.601l0.343 0.343z">
            </path>
        </symbol>
        <symbol id="location" viewBox="0 0 27 32">
            <path
                d="M13.734 27.193c0.549-0.343 1.991-2.609 2.266-3.090 0.755-1.167 1.373-2.060 2.129-3.227 2.953-4.738 6.386-10.3 2.678-15.245-1.373-1.854-3.708-3.639-7.073-3.571-6.112 0-10.438 6.043-8.034 11.811 1.991 4.67 4.12 7.76 6.798 11.742 0.412 0.549 0.824 1.305 1.236 1.579zM13.665 6.112c1.236 0 2.403 0.549 3.227 1.373 0.824 0.893 1.373 2.060 1.373 3.365s-0.549 2.472-1.373 3.296c-0.824 0.824-1.991 1.373-3.227 1.373-1.305 0-2.472-0.549-3.296-1.373s-1.305-1.991-1.305-3.296c0-1.305 0.481-2.472 1.305-3.365 0.824-0.824 1.991-1.373 3.296-1.373zM16.618 7.76c-0.755-0.755-1.854-1.236-2.953-1.236-1.167 0-2.197 0.481-3.021 1.236-0.755 0.824-1.167 1.854-1.167 3.090 0 1.167 0.412 2.266 1.167 3.021 0.824 0.755 1.854 1.236 3.021 1.236 1.099 0 2.197-0.481 2.953-1.236s1.236-1.854 1.236-3.021c0-1.236-0.481-2.266-1.236-3.090zM13.665 7.142c1.991 0 3.571 1.648 3.571 3.708 0 1.991-1.579 3.639-3.571 3.639s-3.571-1.648-3.571-3.639c0-2.060 1.579-3.708 3.571-3.708z">
            </path>
            <path
                d="M16.824 24.034c4.12 0.412 7.073 1.511 7.073 2.884 0 1.717-4.532 3.021-10.163 3.021s-10.163-1.305-10.163-3.021c0-1.373 2.953-2.472 7.073-2.884l0.549 0.687c-3.296 0.275-5.7 1.167-5.7 2.197 0 1.305 3.708 2.335 8.24 2.335s8.24-1.030 8.24-2.335c0-1.030-2.403-1.923-5.7-2.197l0.549-0.687z">
            </path>
        </symbol>
    </defs>
</svg>