<svg xmlns="http://www.w3.org/2000/svg" aria-hidden="true" style="position:absolute;width:0;height:0;overflow:hidden">
    <defs>
        <symbol id="arrowLeft" viewBox="0 0 32 32">
            <path fill="none" stroke="#fff" stroke-linecap="round" stroke-linejoin="round" stroke-width="1.73"
                d="M26.666 16H5.333m.001 0 8-8m-8 8 8 8" style="stroke:var(--color1, #fff)" />
        </symbol>
        <symbol id="arrowRight" viewBox="0 0 41 32">
            <path fill="none" stroke="#fff" stroke-linecap="round" stroke-linejoin="round" stroke-width="3.048"
                d="M1.778 16h37.586m.001 0L25.27 30.095M39.365 16 25.27 1.905" style="stroke:var(--color1, #fff)" />
        </symbol>
        <symbol id="building" viewBox="0 0 32 32">
            <path fill="none" stroke="#fff" stroke-linecap="round" stroke-linejoin="round" stroke-width="2.667"
                d="M2.667 26.667h26.667M9.333 13.333h5.333M25.333 12H20c-.736 0-1.333.597-1.333 1.333v13.333h8V13.333c0-.736-.597-1.333-1.333-1.333v0zm-16-2.667h5.333M17.333 4H6.666c-.736 0-1.333.597-1.333 1.333v21.333h13.333V5.333c0-.736-.597-1.333-1.333-1.333v0z"
                style="stroke:var(--color1, #fff)" />
        </symbol>
        <symbol id="check" viewBox="0 0 32 32">
            <path fill="none" stroke="#f8f8f8" stroke-linecap="round" stroke-linejoin="round" stroke-width="1.6"
                d="m9.334 17.334 4 4L22.667 12" style="stroke:var(--color2, #f8f8f8)" />
        </symbol>
        <symbol id="chevronDown" viewBox="0 0 31 32">
            <path stroke-linecap="round" stroke-linejoin="round" stroke-width="2.56"
                d="m24.32 12.16-8.055 8.055a1.276 1.276 0 0 1-1.81 0L6.4 12.16" />
        </symbol>
        <symbol id="factory" viewBox="0 0 32 32">
            <path fill="#f8f8f8"
                d="M26.234 9.246a.653.653 0 0 0-.664.042l.002-.002-6.264 4.194V9.835a.662.662 0 0 0-1.086-.508l.001-.001-5.213 4.306h-2.302V7.411a.66.66 0 0 0-.511-.644l-.004-.001-2.646-.596a.662.662 0 0 0-.808.646v.025-.001 6.793h-.662a.661.661 0 0 0-.661.662v10.584c0 .365.296.661.661.662h19.845a.662.662 0 0 0 .662-.662V9.832c0-.251-.14-.47-.347-.582l-.003-.002zM8.062 7.678l1.323.291v5.662H8.062V7.678zm17.2 16.538H6.74v-9.262h6.502a.67.67 0 0 0 .424-.152l4.319-3.572v3.493a.663.663 0 0 0 1.034.548l-.002.001 6.245-4.194v13.137z"
                style="fill:var(--color2, #f8f8f8)" />
            <path fill="#f8f8f8"
                d="M8.062 16.271h5.292v1.322H8.062v-1.322zm0 2.646h5.292v1.323H8.062v-1.323zm0 2.646h5.292v1.322H8.062v-1.322zm8.6-4.63h1.322v1.984h-1.323v-1.984zm0 3.968h1.322v1.985h-1.323v-1.984zm2.646-3.968h1.322v1.984h-1.322v-1.984zm0 3.968h1.322v1.985h-1.322v-1.984zm2.646-3.968h1.323v1.984h-1.323v-1.984zm0 3.968h1.323v1.985h-1.323v-1.984z"
                style="fill:var(--color2, #f8f8f8)" />
        </symbol>
        <symbol id="globe" viewBox="0 0 31 32">
            <path fill="none" stroke="none" stroke-linecap="round" stroke-linejoin="round" stroke-miterlimit="10"
                stroke-width="2.462"
                d="M15.385 27.538c6.373 0 11.538-5.166 11.538-11.538S21.757 4.462 15.385 4.462v0C9.012 4.462 3.847 9.628 3.847 16s5.166 11.538 11.538 11.538v0z"
                style="stroke:var(--color3, currentColor)" />
            <path fill="none" stroke="none" stroke-linecap="round" stroke-linejoin="round" stroke-width="2.462"
                d="M3.846 16h23.077" style="stroke:var(--color3, currentColor)" />
            <path fill="none" stroke="none" stroke-linecap="round" stroke-linejoin="round" stroke-miterlimit="10"
                stroke-width="2.462"
                d="M15.385 27.538c2.124 0 3.846-5.166 3.846-11.538S17.508 4.462 15.385 4.462c-2.124 0-3.846 5.166-3.846 11.538s1.723 11.538 3.846 11.538z"
                style="stroke:var(--color3, currentColor)" />
        </symbol>
        <symbol id="instagram" viewBox="0 0 32 32">
            <path
                d="M16 4.989h5.505c1.295 0 1.943.324 2.429.486.648.323 1.133.485 1.619.97.486.486.809.973.972 1.619.161.486.324 1.134.486 2.429v11.009c0 1.295-.325 1.943-.486 2.429-.324.648-.486 1.133-.973 1.619-.485.486-.97.809-1.618.972-.486.161-1.134.324-2.429.486H10.496c-1.295 0-1.943-.325-2.429-.486-.648-.324-1.133-.486-1.619-.973-.486-.485-.809-.97-.972-1.618-.161-.486-.324-1.134-.486-2.429V10.494c0-1.295.325-1.943.486-2.429.324-.648.486-1.133.973-1.619.485-.486.97-.809 1.618-.972.486-.161 1.134-.324 2.429-.486H16zm0-2.429h-5.505c-1.458 0-2.429.324-3.238.648a7.11 7.11 0 0 0-2.43 1.618l-.001.001c-.809.81-1.133 1.458-1.619 2.429-.324.809-.486 1.78-.648 3.238v11.009c0 1.458.324 2.429.648 3.238a7.106 7.106 0 0 0 1.618 2.428l.001.001c.81.809 1.458 1.134 2.429 1.619.809.324 1.78.486 3.238.648h11.011c1.458 0 2.429-.324 3.238-.648a7.106 7.106 0 0 0 2.428-1.618l.001-.001c.809-.81 1.134-1.458 1.619-2.429.324-.809.486-1.78.648-3.238V10.495c0-1.458-.324-2.429-.648-3.238a7.106 7.106 0 0 0-1.618-2.428l-.001-.001c-.81-.809-1.458-1.133-2.429-1.619-.809-.324-1.78-.486-3.238-.648H16z" />
            <path
                d="M16 9.037h-.051a6.913 6.913 0 0 0-6.912 6.912v.054V16v.051a6.913 6.913 0 0 0 6.912 6.912h.054H16h.051a6.913 6.913 0 0 0 6.912-6.912v-.054V16v-.051a6.913 6.913 0 0 0-6.912-6.912h-.054H16zm0 11.497c-2.429 0-4.534-1.943-4.534-4.534 0-2.429 1.943-4.534 4.534-4.534 2.429 0 4.534 1.943 4.534 4.534 0 2.429-2.104 4.534-4.534 4.534zm7.124-10.039a1.62 1.62 0 0 0 0-3.238 1.62 1.62 0 0 0 0 3.238z" />
        </symbol>
        <symbol id="facebook" viewBox="0 0 32 32">
            <path
                d="M17.944 17.011h4.367l0.686-4.447h-5.055v-2.429c0-1.847 0.602-3.485 2.327-3.485h2.77v-3.878c-0.486-0.068-1.516-0.211-3.461-0.211-4.061 0-6.444 2.15-6.444 7.046v2.958h-4.175v4.447h4.175v12.22c0.827 0.124 1.664 0.209 2.524 0.209 0.777 0 1.536-0.072 2.285-0.173v-12.256z">
            </path>
        </symbol>
        <symbol id="key" viewBox="0 0 32 32">
            <path fill="none" stroke="#f8f8f8" stroke-linejoin="round" stroke-width="1.6"
                d="M14.094 11.532c0 .654 0 1.288.206 1.882-2.168 2.544-7.891 9.269-8.424 9.782a1.015 1.015 0 0 0-.338.754c0 .427.262.84.483 1.071.332.347 1.75 1.66 2.011 1.408.775-.754.93-.955 1.248-1.267.478-.468-.05-1.424.115-1.81.166-.388.342-.463.629-.523s.794.146 1.192.15c.418.006.644-.17.956-.462.251-.232.432-.448.438-.784.01-.454-.644-1.052-.156-1.53s1.192.312 1.71.251c.518-.06 1.147-.779 1.212-1.086s-.588-1.096-.488-1.544c.036-.15.342-.503.574-.553s1.258.347 1.489.296c.282-.06.609-.357.875-.522.78.337 1.489.472 2.4.472 3.445 0 6.236-2.686 6.236-5.994s-2.792-5.984-6.237-5.984-6.131 2.684-6.131 5.994zm9.148-1.165v.036a1.61 1.61 0 0 1-3.22 0v-.038.002a1.61 1.61 0 0 1 3.218-.002v.002z"
                style="stroke:var(--color2, #f8f8f8)" />
        </symbol>
        <symbol id="mail" viewBox="0 0 32 32">
            <path stroke-linecap="round" stroke-linejoin="round" stroke-width="2.56"
                d="M26.666 6.666H5.334C4.597 6.666 4 7.264 4 8v16c0 .736.596 1.334 1.334 1.334h21.332c.737 0 1.334-.598 1.334-1.334V8c0-.736-.596-1.334-1.334-1.334z" />
            <path stroke-linecap="round" stroke-linejoin="round" stroke-width="2.56" d="m4 8 12.343 9.334L28 8" />
        </symbol>
        <symbol id="phone" viewBox="0 0 31 32">
            <path stroke-linejoin="round" stroke-linecap="round" stroke-miterlimit="4" stroke-width="2.56"
                d="M9.787 4.48h-3.521c-1.34 0-2.426 1.086-2.426 2.426v0c0 11.384 9.229 20.614 20.614 20.614 1.34 0 2.426-1.086 2.426-2.426v0-3.52c0-0 0-0.001 0-0.001 0-1.071-0.658-1.989-1.592-2.371l-0.017-0.006-3.374-1.349c-0.282-0.116-0.609-0.183-0.951-0.183-0.625 0-1.198 0.224-1.642 0.596l0.004-0.003-0.87 0.727c-0.441 0.369-1.014 0.594-1.639 0.594-0.707 0-1.347-0.287-1.81-0.75l-2.456-2.456c-0.463-0.463-0.749-1.103-0.749-1.81 0-0.625 0.224-1.198 0.596-1.643l-0.003 0.004 0.727-0.872c0.369-0.441 0.593-1.013 0.593-1.638 0-0.343-0.067-0.67-0.189-0.968l0.006 0.017-1.348-3.373c-0.388-0.951-1.306-1.609-2.377-1.609-0 0-0 0-0 0v0z">
            </path>
        </symbol>
    </defs>
</svg>