<svg xmlns="http://www.w3.org/2000/svg" xml:space="preserve" width="402" height="388" style="shape-rendering:geometricPrecision;text-rendering:geometricPrecision;image-rendering:optimizeQuality;fill-rule:evenodd;clip-rule:evenodd" viewBox="0 0 400 386"><path d="M0 131c27-1 48 2 64 17 12 12 24 20 41 29 9 4 18 10 26 15 26 14 56 16 75 27 4 3 11 5 14 7 0 13-14 1-13 41 1 35 11 30 19 36 1 4 0 9 0 13 1 9 2 6 4 11-5 4-4 8 0 13-2 7-7 7 0 15-6 10-7 25 6 31 14-6 10-18 10-35v-48c10-5 17-4 19-32 1-8 0-16-2-24-3-11-1-11-11-15l2-27c24 3 42 21 40-55 0-8-1-22-3-29-2-8-7-13-9-19 5 0 35 18 42 22 16 9 37 19 54 11 20-8 36-26 5-45-18-14-74-43-100-57-21-12-66-31-91-33C132-3 60 11 0 11v120zm249 111c-4 3-21 2-26 1-1 12 18 9 21 9 4-2 5-5 5-10zm-17-14c7 0 8 2 9-4 2-7 1-18 0-25-2-11-2-8-5-10v11c0 20-8 13-4 28zm-2-52c3-1 3 3 3-10-1-12 2-43-4-50-11-15-64-53-79-41-57 31 58 79 75 97l5 4z" style="fill:#e7e7e7"/></svg>