<?xml version="1.0" encoding="UTF-8"?>
<!DOCTYPE svg PUBLIC "-//W3C//DTD SVG 1.1//EN" "http://www.w3.org/Graphics/SVG/1.1/DTD/svg11.dtd">
<!-- Creator: CorelDRAW 2019 (64-Bit) -->
<svg xmlns="http://www.w3.org/2000/svg" xml:space="preserve" width="876.148mm" height="519.274mm" version="1.1" style="shape-rendering:geometricPrecision; text-rendering:geometricPrecision; image-rendering:optimizeQuality; fill-rule:evenodd; clip-rule:evenodd"
viewBox="0 0 87614.8 51927.4"
 xmlns:xlink="http://www.w3.org/1999/xlink">
 <defs>
  <style type="text/css">
   <![CDATA[
    .fil2 {fill:#FEFEFE}
    .fil1 {fill:#8B263A}
    .fil0 {fill:#373738}
   ]]>
  </style>
 </defs>
 <g id="Слой_x0020_1">
  <metadata id="CorelCorpID_0Corel-Layer"/>
  <g id="_1032834832">
   <path class="fil0" d="M-7.88 31625.94l0 242.64 1860.31 1132.36c689.94,373.15 1264.94,696.13 2044.57,1029.02 4786.61,2044.49 10352.6,2911.69 15525.12,1658.01 2489.38,-603.42 4187.83,-1665.17 5743.93,-3395.88 394.72,-439.1 944.26,-1321.9 1193.41,-1880.28 750.61,-1682.02 815.18,-2856.8 812.37,-5259.44 -1.79,-1647.13 -669.37,-3305.81 -1596.43,-4550.64 -1741.16,-2337.96 -4668.38,-3379.64 -7817.86,-4314.7 -2519.66,-748.1 -7409.35,-1624.09 -8789.3,-3424.14 -391.67,-511.02 -762.56,-1346.62 -602.35,-2303.84 302.01,-1804.06 1223.09,-2671.56 3013.29,-3135.04 703.48,-182.18 1939.06,-322.38 2695.81,-239.7 1260.25,137.86 1185.23,-12.13 2643.85,354.45 1201.71,301.95 2300.02,703.42 3412.31,1198.07 348.61,155.06 666.44,323.09 1006.98,529.83 1229.66,746.37 1043,724.92 1825.09,1248.6 252.48,-169.22 648.64,-981.95 809.8,-1293.22 265.75,-513.29 2095.32,-3750.28 2182.83,-4126.06 -563.29,-841.17 -4817.24,-2587.46 -6055.45,-3003.5 -733.94,-246.64 -1596.25,-442.38 -2483.52,-589.98 -3635.83,-604.92 -8160.25,-300.76 -11343.49,1748.14 -324.68,209.01 -616.73,409.11 -905.61,631.15 -618.78,475.35 -1056.79,890.25 -1561.58,1512.08 -910.81,1122.14 -1590.91,2438.06 -1962.79,4103.48 -752.43,3369.31 -41.86,6905.26 2704.7,8956.26 1780.29,1329.42 4046.63,2150.03 6274.73,2784.16 2163.23,615.72 5051.45,1351.28 6906.22,2233.71 1271.12,604.8 2683.27,1680.36 2459.75,3556.87 -213.91,1795.52 -1354.57,2593.61 -3125,2946.87 -4107.55,819.54 -9740.01,-920.55 -13057.95,-3376.35 -150.36,-111.34 -284.4,-180.75 -429.03,-298.97 -226.42,-184.93 -174.15,-256.13 -472.89,-335.88 -42.79,183.92 -2559.4,5256.46 -2911.82,5661.92z"/>
   <path class="fil0" d="M78854.14 0.33l-6794.63 0c0,8546.67 0,17093.45 0,25640.12 0,2122.56 -108.12,4344.03 507.73,5882.57 1981.34,4954.81 8594.99,3950.16 12630.55,2321.65 397.83,-160.44 776.54,-345.74 1178.54,-439.33l-1375.06 -5419.17c-805.8,187.62 -2604.96,1272.07 -4242.84,926.34 -1993.89,-421 -1904.29,-1811.76 -1904.29,-3433.75 0,-3531.96 0,-7063.86 0,-10595.76l6632.17 0 0 -6389.88 -6632.17 0 0 -8492.79z"/>
   <polygon class="fil1" points="67449.3,0.33 61220.94,0.33 61220.94,25883.33 67459.46,25883.33 "/>
   <polygon class="fil0" points="29595.62,20625.68 55721.13,20625.68 55721.13,14478.49 29595.62,14478.49 "/>
   <polygon class="fil0" points="29595.62,35184.78 55721.13,35184.78 55721.13,29199.41 29595.62,29199.41 "/>
   <polygon class="fil1" points="29595.44,6956.48 55721.13,6956.48 55721.31,1213.39 29433.86,1213.39 29595.44,1213.39 "/>
   <polygon class="fil1" points="61220.94,35184.96 67428.99,35184.96 67449.3,29199.23 61211.38,29199.23 "/>
   <path class="fil1" d="M33397.39 45052.39l0 -970.61 -1051.72 0 -0.18 5581.36 1132.6 0 0.12 -3073.74c0.06,-1633.19 2992.39,-2670.21 2992.39,-323.58l0 3397.32 1132.6 0 0.18 -3154.66c0,-451 417.41,-867.42 665.06,-1114.06 789.85,-786.74 2408.08,-885.25 2408.08,1275.9l0 2992.82 1135.17 0 -2.45 -2912.01c-0.84,-2157.91 -520.03,-2750.17 -2183.36,-2750.17 -1268.49,0 -1409.82,666.51 -2103.45,1132.3 -593.38,-1121.07 -933.45,-1132.3 -2184.01,-1132.3 -1020.84,0 -1674.2,872.23 -1941.03,1051.43z"/>
   <path class="fil1" d="M4198.31 46185.01c0,-673.64 1035.48,-1293.96 1698.38,-1293.96 1314.5,0 2183.67,900 2183.67,1860.08 0,2017.92 -2074.53,2609.84 -3213.6,1677.07 -864.11,-707.6 -668.45,-960.68 -668.45,-2243.19zm-1132.83 5742.71l1132.83 0 0 -3154.28c501.82,337.14 1422.77,1485.72 3307.42,800.07 2214.9,-805.69 2429.47,-4368.03 -92.47,-5390.54 -815.66,-330.68 -1994.63,-262.71 -2765.68,267.67 -283.91,195.26 -357.36,350.45 -611.09,520.93l0 -889.79 -971.01 0 0 7845.94z"/>
   <path class="fil1" d="M22478.07 46670.32c0,-830.59 948.74,-1779.27 1780.52,-1779.27l403.14 0c853.7,0 1779.2,925.5 1779.2,1779.27l0 404.36c0,895.44 -962.83,1779.31 -1860.08,1779.31 -1217.78,0 -2102.78,-856.36 -2102.78,-1779.31l0 -404.36zm1698.38 3073.74c1431.15,0 2533.88,-359.22 3184.44,-1668.75 955.6,-1923.55 -633.35,-4074.35 -2618.34,-4074.35 -1041.57,0 -1770.55,87.75 -2570.26,826.95 -1939.41,1792.34 -486.64,4916.15 2004.16,4916.15z"/>
   <path class="fil0" d="M74162.7 48854.17c-1081.76,0 -1949.09,-823.87 -1971.19,-1952.29 -33.45,-1738.51 2127.1,-2759.94 3450.19,-1387.22 1196.45,1241.25 332.71,3339.51 -1479,3339.51zm-3154.5 -2022.12c0,1608.1 1392.98,2911.82 2911.99,2911.82 1003.52,0 1807.52,-120 2569.72,-826.93 1180.92,-1094.51 1162.4,-2969.63 41.81,-4049.3 -1794.39,-1728.5 -5523.52,-801.92 -5523.52,1964.41z"/>
   <path class="fil1" d="M47632.92 46751.13c0,-524.28 267.24,-951.72 542.91,-1236.41 604.98,-624.86 974.61,-623.67 1640.75,-623.67 982.61,0 1859.55,1057.33 1831.24,2012.65 -73.84,2499.01 -4014.9,2743.66 -4014.9,-152.57zm-1132.72 -242.65c0,953.79 -0.6,1722.74 912.18,2485.15 1881.83,1571.89 5397.12,621.25 5397.12,-2080.66 0,-1621.77 -1354.92,-2912.01 -2992.92,-2912.01 -996.77,0 -1628.8,103.34 -2404.74,749.84 -384.32,320.29 -911.64,1090.78 -911.64,1757.68z"/>
   <path class="fil0" d="M83140.59 45052.57l0 -970.61 -1051.31 0 0 5580.99 1132.55 0 0 -3073.55c0,-1319.46 3235.14,-3224.71 3235.14,242.65l0 2830.9 1132.54 0c0,-1159.38 120.66,-3825.79 -274.18,-4740.42 -544.77,-1261.03 -2292.55,-1023.11 -3204.68,-598.29 -499.37,232.9 -595.54,477.81 -970.06,728.33z"/>
   <path class="fil2" d="M47632.92 46751.13c0,2896.23 3941.06,2651.58 4014.9,152.57 28.31,-955.32 -848.63,-2012.65 -1831.24,-2012.65 -666.14,0 -1035.77,-1.19 -1640.75,623.67 -275.67,284.69 -542.91,712.13 -542.91,1236.41z"/>
   <path class="fil2" d="M22478.07 46670.32l0 404.36c0,922.95 885,1779.31 2102.78,1779.31 897.25,0 1860.08,-883.87 1860.08,-1779.31l0 -404.36c0,-853.77 -925.5,-1779.27 -1779.2,-1779.27l-403.14 0c-831.78,0 -1780.52,948.68 -1780.52,1779.27z"/>
   <path class="fil2" d="M74162.7 48854.17c1811.71,0 2675.45,-2098.26 1479,-3339.51 -1323.09,-1372.72 -3483.64,-351.29 -3450.19,1387.22 22.1,1128.42 889.43,1952.29 1971.19,1952.29z"/>
   <path class="fil2" d="M4198.31 46185.01c0,1282.51 -195.66,1535.59 668.45,2243.19 1139.07,932.77 3213.6,340.85 3213.6,-1677.07 0,-960.08 -869.17,-1860.08 -2183.67,-1860.08 -662.9,0 -1698.38,620.32 -1698.38,1293.96z"/>
   <path class="fil0" d="M57743.22 44081.96l-889.66 0 0 808.85 889.66 0 0 3720.69c0,1856.02 2832.6,822.17 2992.68,808.78 -75.26,-323.07 -213.84,-546.72 -242.51,-889.67 -212.65,49.47 -1030.87,485.68 -1458.38,83.2 -119.47,-112.53 -159.43,-175.58 -159.43,-406.76l0 -3316.24 1375.29 0 0 -808.85 -1375.29 0 0 -1860.26 -1132.36 0 0 1860.26z"/>
   <path class="fil1" d="M15036.7 45133.26l0 -1051.48 -1051.6 0 -0.18 5581.36 1132.71 0 0 -3235.48c0,-882.6 1297.59,-1455.74 2264.78,-1455.74 0,-365.02 81.3,-970.96 -162.05,-970.96 -705.33,0 -1277.33,266.71 -1730.35,696.26l-81.78 80.04c-70.06,71.91 -42.23,50.11 -115.04,127.71 -137.74,146.52 -91.81,117.67 -256.49,228.29z"/>
   <polygon class="fil0" points="65184.22,49662.95 66316.68,49662.95 66316.68,44081.97 65184.22,44081.97 "/>
   <polygon class="fil0" points="65184.22,43111.36 66316.68,43111.36 66316.68,41898.13 65184.22,41898.13 "/>
  </g>
 </g>
</svg>
